G04 EAGLE Gerber RS-274X export*
G75*
%MOMM*%
%FSLAX34Y34*%
%LPD*%
%IN*%
%IPPOS*%
%AMOC8*
5,1,8,0,0,1.08239X$1,22.5*%
G01*
%ADD10C,0.254000*%


D10*
X0Y10000D02*
X38Y9128D01*
X152Y8264D01*
X341Y7412D01*
X603Y6580D01*
X937Y5774D01*
X1340Y5000D01*
X1808Y4264D01*
X2340Y3572D01*
X2929Y2929D01*
X3572Y2340D01*
X4264Y1808D01*
X5000Y1340D01*
X5774Y937D01*
X6580Y603D01*
X7412Y341D01*
X8264Y152D01*
X9128Y38D01*
X10000Y0D01*
X210000Y0D01*
X210872Y38D01*
X211736Y152D01*
X212588Y341D01*
X213420Y603D01*
X214226Y937D01*
X215000Y1340D01*
X215736Y1808D01*
X216428Y2340D01*
X217071Y2929D01*
X217660Y3572D01*
X218192Y4264D01*
X218660Y5000D01*
X219063Y5774D01*
X219397Y6580D01*
X219659Y7412D01*
X219848Y8264D01*
X219962Y9128D01*
X220000Y10000D01*
X220000Y400000D01*
X219962Y400872D01*
X219848Y401736D01*
X219659Y402588D01*
X219397Y403420D01*
X219063Y404226D01*
X218660Y405000D01*
X218192Y405736D01*
X217660Y406428D01*
X217071Y407071D01*
X216428Y407660D01*
X215736Y408192D01*
X215000Y408660D01*
X214226Y409063D01*
X213420Y409397D01*
X212588Y409659D01*
X211736Y409848D01*
X210872Y409962D01*
X210000Y410000D01*
X10000Y410000D01*
X9128Y409962D01*
X8264Y409848D01*
X7412Y409659D01*
X6580Y409397D01*
X5774Y409063D01*
X5000Y408660D01*
X4264Y408192D01*
X3572Y407660D01*
X2929Y407071D01*
X2340Y406428D01*
X1808Y405736D01*
X1340Y405000D01*
X937Y404226D01*
X603Y403420D01*
X341Y402588D01*
X152Y401736D01*
X38Y400872D01*
X0Y400000D01*
X0Y10000D01*
X45000Y379464D02*
X44924Y378396D01*
X44771Y377335D01*
X44543Y376288D01*
X44241Y375260D01*
X43867Y374256D01*
X43422Y373281D01*
X42908Y372341D01*
X42329Y371440D01*
X41687Y370582D01*
X40985Y369772D01*
X40228Y369015D01*
X39418Y368313D01*
X38560Y367671D01*
X37659Y367092D01*
X36719Y366578D01*
X35744Y366133D01*
X34740Y365759D01*
X33712Y365457D01*
X32665Y365229D01*
X31604Y365076D01*
X30536Y365000D01*
X29464Y365000D01*
X28396Y365076D01*
X27335Y365229D01*
X26288Y365457D01*
X25260Y365759D01*
X24256Y366133D01*
X23281Y366578D01*
X22341Y367092D01*
X21440Y367671D01*
X20582Y368313D01*
X19772Y369015D01*
X19015Y369772D01*
X18313Y370582D01*
X17671Y371440D01*
X17092Y372341D01*
X16578Y373281D01*
X16133Y374256D01*
X15759Y375260D01*
X15457Y376288D01*
X15229Y377335D01*
X15076Y378396D01*
X15000Y379464D01*
X15000Y380536D01*
X15076Y381604D01*
X15229Y382665D01*
X15457Y383712D01*
X15759Y384740D01*
X16133Y385744D01*
X16578Y386719D01*
X17092Y387659D01*
X17671Y388560D01*
X18313Y389418D01*
X19015Y390228D01*
X19772Y390985D01*
X20582Y391687D01*
X21440Y392329D01*
X22341Y392908D01*
X23281Y393422D01*
X24256Y393867D01*
X25260Y394241D01*
X26288Y394543D01*
X27335Y394771D01*
X28396Y394924D01*
X29464Y395000D01*
X30536Y395000D01*
X31604Y394924D01*
X32665Y394771D01*
X33712Y394543D01*
X34740Y394241D01*
X35744Y393867D01*
X36719Y393422D01*
X37659Y392908D01*
X38560Y392329D01*
X39418Y391687D01*
X40228Y390985D01*
X40985Y390228D01*
X41687Y389418D01*
X42329Y388560D01*
X42908Y387659D01*
X43422Y386719D01*
X43867Y385744D01*
X44241Y384740D01*
X44543Y383712D01*
X44771Y382665D01*
X44924Y381604D01*
X45000Y380536D01*
X45000Y379464D01*
X205000Y79464D02*
X204924Y78396D01*
X204771Y77335D01*
X204543Y76288D01*
X204241Y75260D01*
X203867Y74256D01*
X203422Y73281D01*
X202908Y72341D01*
X202329Y71440D01*
X201687Y70582D01*
X200985Y69772D01*
X200228Y69015D01*
X199418Y68313D01*
X198560Y67671D01*
X197659Y67092D01*
X196719Y66578D01*
X195744Y66133D01*
X194740Y65759D01*
X193712Y65457D01*
X192665Y65229D01*
X191604Y65076D01*
X190536Y65000D01*
X189464Y65000D01*
X188396Y65076D01*
X187335Y65229D01*
X186288Y65457D01*
X185260Y65759D01*
X184256Y66133D01*
X183281Y66578D01*
X182341Y67092D01*
X181440Y67671D01*
X180582Y68313D01*
X179772Y69015D01*
X179015Y69772D01*
X178313Y70582D01*
X177671Y71440D01*
X177092Y72341D01*
X176578Y73281D01*
X176133Y74256D01*
X175759Y75260D01*
X175457Y76288D01*
X175229Y77335D01*
X175076Y78396D01*
X175000Y79464D01*
X175000Y80536D01*
X175076Y81604D01*
X175229Y82665D01*
X175457Y83712D01*
X175759Y84740D01*
X176133Y85744D01*
X176578Y86719D01*
X177092Y87659D01*
X177671Y88560D01*
X178313Y89418D01*
X179015Y90228D01*
X179772Y90985D01*
X180582Y91687D01*
X181440Y92329D01*
X182341Y92908D01*
X183281Y93422D01*
X184256Y93867D01*
X185260Y94241D01*
X186288Y94543D01*
X187335Y94771D01*
X188396Y94924D01*
X189464Y95000D01*
X190536Y95000D01*
X191604Y94924D01*
X192665Y94771D01*
X193712Y94543D01*
X194740Y94241D01*
X195744Y93867D01*
X196719Y93422D01*
X197659Y92908D01*
X198560Y92329D01*
X199418Y91687D01*
X200228Y90985D01*
X200985Y90228D01*
X201687Y89418D01*
X202329Y88560D01*
X202908Y87659D01*
X203422Y86719D01*
X203867Y85744D01*
X204241Y84740D01*
X204543Y83712D01*
X204771Y82665D01*
X204924Y81604D01*
X205000Y80536D01*
X205000Y79464D01*
M02*
