G04 EAGLE Gerber RS-274X export*
G75*
%MOMM*%
%FSLAX34Y34*%
%LPD*%
%INSilkscreen Top*%
%IPPOS*%
%AMOC8*
5,1,8,0,0,1.08239X$1,22.5*%
G01*
%ADD10C,0.076200*%
%ADD11C,0.152400*%


D10*
X58487Y53974D02*
X58487Y55513D01*
X63619Y55513D01*
X63619Y52434D01*
X63617Y52344D01*
X63611Y52255D01*
X63601Y52166D01*
X63588Y52078D01*
X63570Y51990D01*
X63549Y51903D01*
X63524Y51817D01*
X63495Y51732D01*
X63463Y51648D01*
X63427Y51566D01*
X63387Y51486D01*
X63344Y51408D01*
X63297Y51331D01*
X63248Y51256D01*
X63195Y51184D01*
X63139Y51114D01*
X63080Y51047D01*
X63018Y50982D01*
X62953Y50920D01*
X62886Y50861D01*
X62816Y50805D01*
X62744Y50752D01*
X62669Y50703D01*
X62593Y50656D01*
X62514Y50613D01*
X62434Y50573D01*
X62352Y50537D01*
X62268Y50505D01*
X62183Y50476D01*
X62097Y50451D01*
X62010Y50430D01*
X61922Y50412D01*
X61834Y50399D01*
X61745Y50389D01*
X61656Y50383D01*
X61566Y50381D01*
X56434Y50381D01*
X56344Y50383D01*
X56255Y50389D01*
X56166Y50399D01*
X56078Y50412D01*
X55990Y50430D01*
X55903Y50451D01*
X55817Y50476D01*
X55732Y50505D01*
X55648Y50537D01*
X55566Y50573D01*
X55486Y50613D01*
X55408Y50656D01*
X55331Y50703D01*
X55256Y50752D01*
X55184Y50805D01*
X55114Y50861D01*
X55047Y50920D01*
X54982Y50982D01*
X54920Y51047D01*
X54861Y51114D01*
X54805Y51184D01*
X54752Y51256D01*
X54703Y51331D01*
X54656Y51407D01*
X54613Y51486D01*
X54573Y51566D01*
X54537Y51648D01*
X54505Y51732D01*
X54476Y51817D01*
X54451Y51903D01*
X54430Y51990D01*
X54412Y52077D01*
X54399Y52166D01*
X54389Y52255D01*
X54383Y52344D01*
X54381Y52434D01*
X54381Y55513D01*
X54381Y59981D02*
X63619Y59981D01*
X63619Y65113D02*
X54381Y59981D01*
X54381Y65113D02*
X63619Y65113D01*
X63619Y69581D02*
X54381Y69581D01*
X54381Y72147D01*
X54383Y72245D01*
X54389Y72343D01*
X54398Y72441D01*
X54411Y72539D01*
X54428Y72636D01*
X54448Y72732D01*
X54473Y72827D01*
X54501Y72921D01*
X54532Y73014D01*
X54567Y73106D01*
X54606Y73197D01*
X54647Y73286D01*
X54693Y73373D01*
X54741Y73458D01*
X54793Y73542D01*
X54848Y73623D01*
X54906Y73703D01*
X54967Y73780D01*
X55031Y73854D01*
X55098Y73926D01*
X55168Y73996D01*
X55240Y74063D01*
X55314Y74127D01*
X55391Y74188D01*
X55471Y74246D01*
X55552Y74301D01*
X55636Y74353D01*
X55721Y74401D01*
X55808Y74447D01*
X55897Y74488D01*
X55988Y74527D01*
X56080Y74562D01*
X56173Y74593D01*
X56267Y74621D01*
X56362Y74646D01*
X56458Y74666D01*
X56555Y74683D01*
X56653Y74696D01*
X56751Y74705D01*
X56849Y74711D01*
X56947Y74713D01*
X61053Y74713D01*
X61151Y74711D01*
X61249Y74705D01*
X61347Y74696D01*
X61445Y74683D01*
X61542Y74666D01*
X61638Y74646D01*
X61733Y74621D01*
X61827Y74593D01*
X61920Y74562D01*
X62012Y74527D01*
X62103Y74488D01*
X62192Y74447D01*
X62279Y74401D01*
X62364Y74353D01*
X62448Y74301D01*
X62529Y74246D01*
X62609Y74188D01*
X62686Y74127D01*
X62760Y74063D01*
X62832Y73996D01*
X62902Y73926D01*
X62969Y73854D01*
X63033Y73780D01*
X63094Y73703D01*
X63152Y73623D01*
X63207Y73542D01*
X63259Y73458D01*
X63307Y73373D01*
X63353Y73286D01*
X63394Y73197D01*
X63433Y73106D01*
X63468Y73014D01*
X63499Y72921D01*
X63527Y72827D01*
X63552Y72732D01*
X63572Y72636D01*
X63589Y72539D01*
X63602Y72441D01*
X63611Y72343D01*
X63617Y72245D01*
X63619Y72147D01*
X63619Y69581D01*
X89619Y52947D02*
X89619Y50381D01*
X89619Y52947D02*
X89617Y53046D01*
X89611Y53146D01*
X89602Y53245D01*
X89588Y53343D01*
X89571Y53441D01*
X89550Y53539D01*
X89525Y53635D01*
X89496Y53730D01*
X89464Y53825D01*
X89428Y53917D01*
X89389Y54009D01*
X89346Y54099D01*
X89300Y54187D01*
X89250Y54273D01*
X89197Y54357D01*
X89141Y54439D01*
X89081Y54519D01*
X89019Y54596D01*
X88953Y54671D01*
X88885Y54744D01*
X88814Y54813D01*
X88740Y54880D01*
X88664Y54944D01*
X88585Y55005D01*
X88504Y55063D01*
X88421Y55118D01*
X88336Y55169D01*
X88249Y55217D01*
X88160Y55262D01*
X88069Y55303D01*
X87977Y55341D01*
X87884Y55375D01*
X87789Y55405D01*
X87693Y55432D01*
X87596Y55455D01*
X87499Y55474D01*
X87400Y55489D01*
X87301Y55501D01*
X87202Y55509D01*
X87103Y55513D01*
X87003Y55513D01*
X86904Y55509D01*
X86805Y55501D01*
X86706Y55489D01*
X86607Y55474D01*
X86510Y55455D01*
X86413Y55432D01*
X86317Y55405D01*
X86222Y55375D01*
X86129Y55341D01*
X86037Y55303D01*
X85946Y55262D01*
X85857Y55217D01*
X85770Y55169D01*
X85685Y55118D01*
X85602Y55063D01*
X85521Y55005D01*
X85442Y54944D01*
X85366Y54880D01*
X85292Y54813D01*
X85221Y54744D01*
X85153Y54671D01*
X85087Y54596D01*
X85025Y54519D01*
X84965Y54439D01*
X84909Y54357D01*
X84856Y54273D01*
X84806Y54187D01*
X84760Y54099D01*
X84717Y54009D01*
X84678Y53917D01*
X84642Y53825D01*
X84610Y53730D01*
X84581Y53635D01*
X84556Y53539D01*
X84535Y53441D01*
X84518Y53343D01*
X84504Y53245D01*
X84495Y53146D01*
X84489Y53046D01*
X84487Y52947D01*
X80381Y53460D02*
X80381Y50381D01*
X80381Y53460D02*
X80383Y53550D01*
X80389Y53639D01*
X80399Y53728D01*
X80412Y53816D01*
X80430Y53904D01*
X80451Y53991D01*
X80476Y54077D01*
X80505Y54162D01*
X80537Y54246D01*
X80573Y54328D01*
X80613Y54408D01*
X80656Y54487D01*
X80703Y54563D01*
X80752Y54638D01*
X80805Y54710D01*
X80861Y54780D01*
X80920Y54847D01*
X80982Y54912D01*
X81047Y54974D01*
X81114Y55033D01*
X81184Y55089D01*
X81256Y55142D01*
X81331Y55191D01*
X81408Y55238D01*
X81486Y55281D01*
X81566Y55321D01*
X81648Y55357D01*
X81732Y55389D01*
X81817Y55418D01*
X81903Y55443D01*
X81990Y55464D01*
X82078Y55482D01*
X82166Y55495D01*
X82255Y55505D01*
X82344Y55511D01*
X82434Y55513D01*
X82524Y55511D01*
X82613Y55505D01*
X82702Y55495D01*
X82790Y55482D01*
X82878Y55464D01*
X82965Y55443D01*
X83051Y55418D01*
X83136Y55389D01*
X83220Y55357D01*
X83302Y55321D01*
X83382Y55281D01*
X83461Y55238D01*
X83537Y55191D01*
X83612Y55142D01*
X83684Y55089D01*
X83754Y55033D01*
X83821Y54974D01*
X83886Y54912D01*
X83948Y54847D01*
X84007Y54780D01*
X84063Y54710D01*
X84116Y54638D01*
X84165Y54563D01*
X84212Y54487D01*
X84255Y54408D01*
X84295Y54328D01*
X84331Y54246D01*
X84363Y54162D01*
X84392Y54077D01*
X84417Y53991D01*
X84438Y53904D01*
X84456Y53816D01*
X84469Y53728D01*
X84479Y53639D01*
X84485Y53550D01*
X84487Y53460D01*
X84487Y51407D01*
X89106Y58990D02*
X89619Y58990D01*
X89106Y58990D02*
X89106Y59504D01*
X89619Y59504D01*
X89619Y58990D01*
X89619Y62981D02*
X89619Y65547D01*
X89617Y65646D01*
X89611Y65746D01*
X89602Y65845D01*
X89588Y65943D01*
X89571Y66041D01*
X89550Y66139D01*
X89525Y66235D01*
X89496Y66330D01*
X89464Y66425D01*
X89428Y66517D01*
X89389Y66609D01*
X89346Y66699D01*
X89300Y66787D01*
X89250Y66873D01*
X89197Y66957D01*
X89141Y67039D01*
X89081Y67119D01*
X89019Y67196D01*
X88953Y67271D01*
X88885Y67344D01*
X88814Y67413D01*
X88740Y67480D01*
X88664Y67544D01*
X88585Y67605D01*
X88504Y67663D01*
X88421Y67718D01*
X88336Y67769D01*
X88249Y67817D01*
X88160Y67862D01*
X88069Y67903D01*
X87977Y67941D01*
X87884Y67975D01*
X87789Y68005D01*
X87693Y68032D01*
X87596Y68055D01*
X87499Y68074D01*
X87400Y68089D01*
X87301Y68101D01*
X87202Y68109D01*
X87103Y68113D01*
X87003Y68113D01*
X86904Y68109D01*
X86805Y68101D01*
X86706Y68089D01*
X86607Y68074D01*
X86510Y68055D01*
X86413Y68032D01*
X86317Y68005D01*
X86222Y67975D01*
X86129Y67941D01*
X86037Y67903D01*
X85946Y67862D01*
X85857Y67817D01*
X85770Y67769D01*
X85685Y67718D01*
X85602Y67663D01*
X85521Y67605D01*
X85442Y67544D01*
X85366Y67480D01*
X85292Y67413D01*
X85221Y67344D01*
X85153Y67271D01*
X85087Y67196D01*
X85025Y67119D01*
X84965Y67039D01*
X84909Y66957D01*
X84856Y66873D01*
X84806Y66787D01*
X84760Y66699D01*
X84717Y66609D01*
X84678Y66517D01*
X84642Y66425D01*
X84610Y66330D01*
X84581Y66235D01*
X84556Y66139D01*
X84535Y66041D01*
X84518Y65943D01*
X84504Y65845D01*
X84495Y65746D01*
X84489Y65646D01*
X84487Y65547D01*
X80381Y66060D02*
X80381Y62981D01*
X80381Y66060D02*
X80383Y66150D01*
X80389Y66239D01*
X80399Y66328D01*
X80412Y66416D01*
X80430Y66504D01*
X80451Y66591D01*
X80476Y66677D01*
X80505Y66762D01*
X80537Y66846D01*
X80573Y66928D01*
X80613Y67008D01*
X80656Y67087D01*
X80703Y67163D01*
X80752Y67238D01*
X80805Y67310D01*
X80861Y67380D01*
X80920Y67447D01*
X80982Y67512D01*
X81047Y67574D01*
X81114Y67633D01*
X81184Y67689D01*
X81256Y67742D01*
X81331Y67791D01*
X81408Y67838D01*
X81486Y67881D01*
X81566Y67921D01*
X81648Y67957D01*
X81732Y67989D01*
X81817Y68018D01*
X81903Y68043D01*
X81990Y68064D01*
X82078Y68082D01*
X82166Y68095D01*
X82255Y68105D01*
X82344Y68111D01*
X82434Y68113D01*
X82524Y68111D01*
X82613Y68105D01*
X82702Y68095D01*
X82790Y68082D01*
X82878Y68064D01*
X82965Y68043D01*
X83051Y68018D01*
X83136Y67989D01*
X83220Y67957D01*
X83302Y67921D01*
X83382Y67881D01*
X83461Y67838D01*
X83537Y67791D01*
X83612Y67742D01*
X83684Y67689D01*
X83754Y67633D01*
X83821Y67574D01*
X83886Y67512D01*
X83948Y67447D01*
X84007Y67380D01*
X84063Y67310D01*
X84116Y67238D01*
X84165Y67163D01*
X84212Y67087D01*
X84255Y67008D01*
X84295Y66928D01*
X84331Y66846D01*
X84363Y66762D01*
X84392Y66677D01*
X84417Y66591D01*
X84438Y66504D01*
X84456Y66416D01*
X84469Y66328D01*
X84479Y66239D01*
X84485Y66150D01*
X84487Y66060D01*
X84487Y64007D01*
X80381Y71468D02*
X89619Y74547D01*
X80381Y77626D01*
X105381Y50381D02*
X114619Y50381D01*
X105381Y50381D02*
X105381Y52947D01*
X105383Y53046D01*
X105389Y53146D01*
X105398Y53245D01*
X105412Y53343D01*
X105429Y53441D01*
X105450Y53539D01*
X105475Y53635D01*
X105504Y53730D01*
X105536Y53825D01*
X105572Y53917D01*
X105611Y54009D01*
X105654Y54099D01*
X105700Y54187D01*
X105750Y54273D01*
X105803Y54357D01*
X105859Y54439D01*
X105919Y54519D01*
X105981Y54596D01*
X106047Y54671D01*
X106115Y54744D01*
X106186Y54813D01*
X106260Y54880D01*
X106336Y54944D01*
X106415Y55005D01*
X106496Y55063D01*
X106579Y55118D01*
X106664Y55169D01*
X106751Y55217D01*
X106840Y55262D01*
X106931Y55303D01*
X107023Y55341D01*
X107116Y55375D01*
X107211Y55405D01*
X107307Y55432D01*
X107404Y55455D01*
X107501Y55474D01*
X107600Y55489D01*
X107699Y55501D01*
X107798Y55509D01*
X107897Y55513D01*
X107997Y55513D01*
X108096Y55509D01*
X108195Y55501D01*
X108294Y55489D01*
X108393Y55474D01*
X108490Y55455D01*
X108587Y55432D01*
X108683Y55405D01*
X108778Y55375D01*
X108871Y55341D01*
X108963Y55303D01*
X109054Y55262D01*
X109143Y55217D01*
X109230Y55169D01*
X109315Y55118D01*
X109398Y55063D01*
X109479Y55005D01*
X109558Y54944D01*
X109634Y54880D01*
X109708Y54813D01*
X109779Y54744D01*
X109847Y54671D01*
X109913Y54596D01*
X109975Y54519D01*
X110035Y54439D01*
X110091Y54357D01*
X110144Y54273D01*
X110194Y54187D01*
X110240Y54099D01*
X110283Y54009D01*
X110322Y53917D01*
X110358Y53825D01*
X110390Y53730D01*
X110419Y53635D01*
X110444Y53539D01*
X110465Y53441D01*
X110482Y53343D01*
X110496Y53245D01*
X110505Y53146D01*
X110511Y53046D01*
X110513Y52947D01*
X110513Y50381D01*
X110513Y53460D02*
X114619Y55513D01*
X114619Y59642D02*
X114619Y63748D01*
X114619Y59642D02*
X105381Y59642D01*
X105381Y63748D01*
X109487Y62721D02*
X109487Y59642D01*
X114619Y69904D02*
X114617Y69994D01*
X114611Y70083D01*
X114601Y70172D01*
X114588Y70260D01*
X114570Y70348D01*
X114549Y70435D01*
X114524Y70521D01*
X114495Y70606D01*
X114463Y70690D01*
X114427Y70772D01*
X114387Y70852D01*
X114344Y70931D01*
X114297Y71007D01*
X114248Y71082D01*
X114195Y71154D01*
X114139Y71224D01*
X114080Y71291D01*
X114018Y71356D01*
X113953Y71418D01*
X113886Y71477D01*
X113816Y71533D01*
X113744Y71586D01*
X113669Y71635D01*
X113593Y71682D01*
X113514Y71725D01*
X113434Y71765D01*
X113352Y71801D01*
X113268Y71833D01*
X113183Y71862D01*
X113097Y71887D01*
X113010Y71908D01*
X112922Y71926D01*
X112834Y71939D01*
X112745Y71949D01*
X112656Y71955D01*
X112566Y71957D01*
X114619Y69904D02*
X114617Y69777D01*
X114612Y69650D01*
X114602Y69524D01*
X114589Y69398D01*
X114573Y69272D01*
X114552Y69147D01*
X114528Y69022D01*
X114501Y68899D01*
X114470Y68776D01*
X114435Y68654D01*
X114397Y68533D01*
X114355Y68413D01*
X114309Y68295D01*
X114261Y68178D01*
X114208Y68062D01*
X114153Y67948D01*
X114094Y67836D01*
X114032Y67725D01*
X113967Y67616D01*
X113898Y67510D01*
X113827Y67405D01*
X113752Y67302D01*
X113674Y67202D01*
X113594Y67104D01*
X113511Y67008D01*
X113425Y66915D01*
X113336Y66825D01*
X107434Y67081D02*
X107344Y67083D01*
X107255Y67089D01*
X107166Y67099D01*
X107078Y67112D01*
X106990Y67130D01*
X106903Y67151D01*
X106817Y67176D01*
X106732Y67205D01*
X106648Y67237D01*
X106566Y67273D01*
X106486Y67313D01*
X106408Y67356D01*
X106331Y67403D01*
X106256Y67452D01*
X106184Y67505D01*
X106114Y67561D01*
X106047Y67620D01*
X105982Y67682D01*
X105920Y67747D01*
X105861Y67814D01*
X105805Y67884D01*
X105752Y67956D01*
X105703Y68031D01*
X105656Y68108D01*
X105613Y68186D01*
X105573Y68266D01*
X105537Y68348D01*
X105505Y68432D01*
X105476Y68517D01*
X105451Y68603D01*
X105430Y68690D01*
X105412Y68778D01*
X105399Y68866D01*
X105389Y68955D01*
X105383Y69044D01*
X105381Y69134D01*
X105383Y69258D01*
X105389Y69382D01*
X105399Y69505D01*
X105413Y69628D01*
X105431Y69751D01*
X105453Y69872D01*
X105478Y69994D01*
X105508Y70114D01*
X105541Y70233D01*
X105579Y70351D01*
X105620Y70468D01*
X105664Y70583D01*
X105713Y70697D01*
X105765Y70810D01*
X105821Y70920D01*
X105880Y71029D01*
X105943Y71136D01*
X106009Y71241D01*
X106078Y71343D01*
X106151Y71443D01*
X109230Y68107D02*
X109183Y68031D01*
X109132Y67956D01*
X109078Y67884D01*
X109021Y67814D01*
X108961Y67747D01*
X108898Y67682D01*
X108833Y67620D01*
X108765Y67561D01*
X108694Y67505D01*
X108621Y67452D01*
X108546Y67402D01*
X108468Y67356D01*
X108389Y67313D01*
X108308Y67273D01*
X108225Y67237D01*
X108141Y67205D01*
X108056Y67176D01*
X107969Y67151D01*
X107882Y67130D01*
X107793Y67112D01*
X107704Y67099D01*
X107614Y67089D01*
X107524Y67083D01*
X107434Y67081D01*
X110770Y70931D02*
X110817Y71007D01*
X110868Y71082D01*
X110922Y71154D01*
X110979Y71224D01*
X111039Y71291D01*
X111102Y71356D01*
X111167Y71418D01*
X111235Y71477D01*
X111306Y71533D01*
X111379Y71586D01*
X111454Y71636D01*
X111532Y71682D01*
X111611Y71725D01*
X111692Y71765D01*
X111775Y71801D01*
X111859Y71833D01*
X111944Y71862D01*
X112031Y71887D01*
X112119Y71908D01*
X112207Y71926D01*
X112296Y71939D01*
X112386Y71949D01*
X112476Y71955D01*
X112566Y71957D01*
X110770Y70930D02*
X109230Y68107D01*
X114619Y75842D02*
X114619Y79947D01*
X114619Y75842D02*
X105381Y75842D01*
X105381Y79947D01*
X109487Y78921D02*
X109487Y75842D01*
X105381Y85290D02*
X114619Y85290D01*
X105381Y82724D02*
X105381Y87857D01*
X137566Y55513D02*
X137656Y55511D01*
X137745Y55505D01*
X137834Y55495D01*
X137922Y55482D01*
X138010Y55464D01*
X138097Y55443D01*
X138183Y55418D01*
X138268Y55389D01*
X138352Y55357D01*
X138434Y55321D01*
X138514Y55281D01*
X138593Y55238D01*
X138669Y55191D01*
X138744Y55142D01*
X138816Y55089D01*
X138886Y55033D01*
X138953Y54974D01*
X139018Y54912D01*
X139080Y54847D01*
X139139Y54780D01*
X139195Y54710D01*
X139248Y54638D01*
X139297Y54563D01*
X139344Y54487D01*
X139387Y54408D01*
X139427Y54328D01*
X139463Y54246D01*
X139495Y54162D01*
X139524Y54077D01*
X139549Y53991D01*
X139570Y53904D01*
X139588Y53816D01*
X139601Y53728D01*
X139611Y53639D01*
X139617Y53550D01*
X139619Y53460D01*
X139617Y53333D01*
X139612Y53206D01*
X139602Y53080D01*
X139589Y52954D01*
X139573Y52828D01*
X139552Y52703D01*
X139528Y52578D01*
X139501Y52455D01*
X139470Y52332D01*
X139435Y52210D01*
X139397Y52089D01*
X139355Y51969D01*
X139309Y51851D01*
X139261Y51734D01*
X139208Y51618D01*
X139153Y51504D01*
X139094Y51392D01*
X139032Y51281D01*
X138967Y51172D01*
X138898Y51066D01*
X138827Y50961D01*
X138752Y50858D01*
X138674Y50758D01*
X138594Y50660D01*
X138511Y50564D01*
X138425Y50471D01*
X138336Y50381D01*
X132434Y50638D02*
X132344Y50640D01*
X132255Y50646D01*
X132166Y50656D01*
X132078Y50669D01*
X131990Y50687D01*
X131903Y50708D01*
X131817Y50733D01*
X131732Y50762D01*
X131648Y50794D01*
X131566Y50830D01*
X131486Y50870D01*
X131408Y50913D01*
X131331Y50960D01*
X131256Y51009D01*
X131184Y51062D01*
X131114Y51118D01*
X131047Y51177D01*
X130982Y51239D01*
X130920Y51304D01*
X130861Y51371D01*
X130805Y51441D01*
X130752Y51513D01*
X130703Y51588D01*
X130656Y51665D01*
X130613Y51743D01*
X130573Y51823D01*
X130537Y51905D01*
X130505Y51989D01*
X130476Y52074D01*
X130451Y52160D01*
X130430Y52247D01*
X130412Y52335D01*
X130399Y52423D01*
X130389Y52512D01*
X130383Y52601D01*
X130381Y52691D01*
X130383Y52815D01*
X130389Y52939D01*
X130399Y53062D01*
X130413Y53185D01*
X130431Y53308D01*
X130453Y53429D01*
X130478Y53551D01*
X130508Y53671D01*
X130541Y53790D01*
X130579Y53908D01*
X130620Y54025D01*
X130664Y54140D01*
X130713Y54254D01*
X130765Y54367D01*
X130821Y54477D01*
X130880Y54586D01*
X130943Y54693D01*
X131009Y54798D01*
X131078Y54900D01*
X131151Y55000D01*
X134230Y51664D02*
X134183Y51588D01*
X134132Y51513D01*
X134078Y51441D01*
X134021Y51371D01*
X133961Y51304D01*
X133898Y51239D01*
X133833Y51177D01*
X133765Y51118D01*
X133694Y51062D01*
X133621Y51009D01*
X133546Y50959D01*
X133468Y50913D01*
X133389Y50870D01*
X133308Y50830D01*
X133225Y50794D01*
X133141Y50762D01*
X133056Y50733D01*
X132969Y50708D01*
X132882Y50687D01*
X132793Y50669D01*
X132704Y50656D01*
X132614Y50646D01*
X132524Y50640D01*
X132434Y50638D01*
X135770Y54487D02*
X135817Y54563D01*
X135868Y54638D01*
X135922Y54710D01*
X135979Y54780D01*
X136039Y54847D01*
X136102Y54912D01*
X136167Y54974D01*
X136235Y55033D01*
X136306Y55089D01*
X136379Y55142D01*
X136454Y55192D01*
X136532Y55238D01*
X136611Y55281D01*
X136692Y55321D01*
X136775Y55357D01*
X136859Y55389D01*
X136944Y55418D01*
X137031Y55443D01*
X137119Y55464D01*
X137207Y55482D01*
X137296Y55495D01*
X137386Y55505D01*
X137476Y55511D01*
X137566Y55513D01*
X135770Y54487D02*
X134230Y51664D01*
X130381Y58741D02*
X139619Y60794D01*
X133460Y62847D01*
X139619Y64900D01*
X130381Y66953D01*
X139619Y72508D02*
X139619Y74561D01*
X139619Y72508D02*
X139617Y72418D01*
X139611Y72329D01*
X139601Y72240D01*
X139588Y72152D01*
X139570Y72064D01*
X139549Y71977D01*
X139524Y71891D01*
X139495Y71806D01*
X139463Y71722D01*
X139427Y71640D01*
X139387Y71560D01*
X139344Y71482D01*
X139297Y71405D01*
X139248Y71330D01*
X139195Y71258D01*
X139139Y71188D01*
X139080Y71121D01*
X139018Y71056D01*
X138953Y70994D01*
X138886Y70935D01*
X138816Y70879D01*
X138744Y70826D01*
X138669Y70777D01*
X138593Y70730D01*
X138514Y70687D01*
X138434Y70647D01*
X138352Y70611D01*
X138268Y70579D01*
X138183Y70550D01*
X138097Y70525D01*
X138010Y70504D01*
X137922Y70486D01*
X137834Y70473D01*
X137745Y70463D01*
X137656Y70457D01*
X137566Y70455D01*
X132434Y70455D01*
X132344Y70457D01*
X132255Y70463D01*
X132166Y70473D01*
X132078Y70486D01*
X131990Y70504D01*
X131903Y70525D01*
X131817Y70550D01*
X131732Y70579D01*
X131648Y70611D01*
X131566Y70647D01*
X131486Y70687D01*
X131408Y70730D01*
X131331Y70777D01*
X131256Y70826D01*
X131184Y70879D01*
X131114Y70935D01*
X131047Y70994D01*
X130982Y71056D01*
X130920Y71121D01*
X130861Y71188D01*
X130805Y71258D01*
X130752Y71330D01*
X130703Y71405D01*
X130656Y71481D01*
X130613Y71560D01*
X130573Y71640D01*
X130537Y71722D01*
X130505Y71806D01*
X130476Y71891D01*
X130451Y71977D01*
X130430Y72064D01*
X130412Y72151D01*
X130399Y72240D01*
X130389Y72329D01*
X130383Y72418D01*
X130381Y72508D01*
X130381Y74561D01*
X130381Y78298D02*
X139619Y78298D01*
X139619Y82404D01*
X139619Y86211D02*
X130381Y86211D01*
X130381Y91343D02*
X136026Y86211D01*
X133974Y88264D02*
X139619Y91343D01*
X162566Y55513D02*
X162656Y55511D01*
X162745Y55505D01*
X162834Y55495D01*
X162922Y55482D01*
X163010Y55464D01*
X163097Y55443D01*
X163183Y55418D01*
X163268Y55389D01*
X163352Y55357D01*
X163434Y55321D01*
X163514Y55281D01*
X163593Y55238D01*
X163669Y55191D01*
X163744Y55142D01*
X163816Y55089D01*
X163886Y55033D01*
X163953Y54974D01*
X164018Y54912D01*
X164080Y54847D01*
X164139Y54780D01*
X164195Y54710D01*
X164248Y54638D01*
X164297Y54563D01*
X164344Y54487D01*
X164387Y54408D01*
X164427Y54328D01*
X164463Y54246D01*
X164495Y54162D01*
X164524Y54077D01*
X164549Y53991D01*
X164570Y53904D01*
X164588Y53816D01*
X164601Y53728D01*
X164611Y53639D01*
X164617Y53550D01*
X164619Y53460D01*
X164617Y53333D01*
X164612Y53206D01*
X164602Y53080D01*
X164589Y52954D01*
X164573Y52828D01*
X164552Y52703D01*
X164528Y52578D01*
X164501Y52455D01*
X164470Y52332D01*
X164435Y52210D01*
X164397Y52089D01*
X164355Y51969D01*
X164309Y51851D01*
X164261Y51734D01*
X164208Y51618D01*
X164153Y51504D01*
X164094Y51392D01*
X164032Y51281D01*
X163967Y51172D01*
X163898Y51066D01*
X163827Y50961D01*
X163752Y50858D01*
X163674Y50758D01*
X163594Y50660D01*
X163511Y50564D01*
X163425Y50471D01*
X163336Y50381D01*
X157434Y50638D02*
X157344Y50640D01*
X157255Y50646D01*
X157166Y50656D01*
X157078Y50669D01*
X156990Y50687D01*
X156903Y50708D01*
X156817Y50733D01*
X156732Y50762D01*
X156648Y50794D01*
X156566Y50830D01*
X156486Y50870D01*
X156408Y50913D01*
X156331Y50960D01*
X156256Y51009D01*
X156184Y51062D01*
X156114Y51118D01*
X156047Y51177D01*
X155982Y51239D01*
X155920Y51304D01*
X155861Y51371D01*
X155805Y51441D01*
X155752Y51513D01*
X155703Y51588D01*
X155656Y51665D01*
X155613Y51743D01*
X155573Y51823D01*
X155537Y51905D01*
X155505Y51989D01*
X155476Y52074D01*
X155451Y52160D01*
X155430Y52247D01*
X155412Y52335D01*
X155399Y52423D01*
X155389Y52512D01*
X155383Y52601D01*
X155381Y52691D01*
X155383Y52815D01*
X155389Y52939D01*
X155399Y53062D01*
X155413Y53185D01*
X155431Y53308D01*
X155453Y53429D01*
X155478Y53551D01*
X155508Y53671D01*
X155541Y53790D01*
X155579Y53908D01*
X155620Y54025D01*
X155664Y54140D01*
X155713Y54254D01*
X155765Y54367D01*
X155821Y54477D01*
X155880Y54586D01*
X155943Y54693D01*
X156009Y54798D01*
X156078Y54900D01*
X156151Y55000D01*
X159230Y51664D02*
X159183Y51588D01*
X159132Y51513D01*
X159078Y51441D01*
X159021Y51371D01*
X158961Y51304D01*
X158898Y51239D01*
X158833Y51177D01*
X158765Y51118D01*
X158694Y51062D01*
X158621Y51009D01*
X158546Y50959D01*
X158468Y50913D01*
X158389Y50870D01*
X158308Y50830D01*
X158225Y50794D01*
X158141Y50762D01*
X158056Y50733D01*
X157969Y50708D01*
X157882Y50687D01*
X157793Y50669D01*
X157704Y50656D01*
X157614Y50646D01*
X157524Y50640D01*
X157434Y50638D01*
X160770Y54487D02*
X160817Y54563D01*
X160868Y54638D01*
X160922Y54710D01*
X160979Y54780D01*
X161039Y54847D01*
X161102Y54912D01*
X161167Y54974D01*
X161235Y55033D01*
X161306Y55089D01*
X161379Y55142D01*
X161454Y55192D01*
X161532Y55238D01*
X161611Y55281D01*
X161692Y55321D01*
X161775Y55357D01*
X161859Y55389D01*
X161944Y55418D01*
X162031Y55443D01*
X162119Y55464D01*
X162207Y55482D01*
X162296Y55495D01*
X162386Y55505D01*
X162476Y55511D01*
X162566Y55513D01*
X160770Y54487D02*
X159230Y51664D01*
X155381Y58741D02*
X164619Y60794D01*
X158460Y62847D01*
X164619Y64900D01*
X155381Y66953D01*
X155381Y70781D02*
X164619Y70781D01*
X155381Y70781D02*
X155381Y73347D01*
X155383Y73445D01*
X155389Y73543D01*
X155398Y73641D01*
X155411Y73739D01*
X155428Y73836D01*
X155448Y73932D01*
X155473Y74027D01*
X155501Y74121D01*
X155532Y74214D01*
X155567Y74306D01*
X155606Y74397D01*
X155647Y74486D01*
X155693Y74573D01*
X155741Y74658D01*
X155793Y74742D01*
X155848Y74823D01*
X155906Y74903D01*
X155967Y74980D01*
X156031Y75054D01*
X156098Y75126D01*
X156168Y75196D01*
X156240Y75263D01*
X156314Y75327D01*
X156391Y75388D01*
X156471Y75446D01*
X156552Y75501D01*
X156636Y75553D01*
X156721Y75601D01*
X156808Y75647D01*
X156897Y75688D01*
X156988Y75727D01*
X157080Y75762D01*
X157173Y75793D01*
X157267Y75821D01*
X157362Y75846D01*
X157458Y75866D01*
X157555Y75883D01*
X157653Y75896D01*
X157751Y75905D01*
X157849Y75911D01*
X157947Y75913D01*
X162053Y75913D01*
X162151Y75911D01*
X162249Y75905D01*
X162347Y75896D01*
X162445Y75883D01*
X162542Y75866D01*
X162638Y75846D01*
X162733Y75821D01*
X162827Y75793D01*
X162920Y75762D01*
X163012Y75727D01*
X163103Y75688D01*
X163192Y75647D01*
X163279Y75601D01*
X163364Y75553D01*
X163448Y75501D01*
X163529Y75446D01*
X163609Y75388D01*
X163686Y75327D01*
X163760Y75263D01*
X163832Y75196D01*
X163902Y75126D01*
X163969Y75054D01*
X164033Y74980D01*
X164094Y74903D01*
X164152Y74823D01*
X164207Y74742D01*
X164259Y74658D01*
X164307Y74573D01*
X164353Y74486D01*
X164394Y74397D01*
X164433Y74306D01*
X164468Y74214D01*
X164499Y74121D01*
X164527Y74027D01*
X164552Y73932D01*
X164572Y73836D01*
X164589Y73739D01*
X164602Y73641D01*
X164611Y73543D01*
X164617Y73445D01*
X164619Y73347D01*
X164619Y70781D01*
X164619Y80847D02*
X155381Y80847D01*
X164619Y79821D02*
X164619Y81873D01*
X155381Y81873D02*
X155381Y79821D01*
X157947Y85481D02*
X162053Y85481D01*
X157947Y85481D02*
X157848Y85483D01*
X157748Y85489D01*
X157649Y85498D01*
X157551Y85512D01*
X157453Y85529D01*
X157355Y85550D01*
X157259Y85575D01*
X157164Y85604D01*
X157069Y85636D01*
X156977Y85672D01*
X156885Y85711D01*
X156795Y85754D01*
X156707Y85800D01*
X156621Y85850D01*
X156537Y85903D01*
X156455Y85959D01*
X156375Y86019D01*
X156298Y86081D01*
X156223Y86147D01*
X156150Y86215D01*
X156081Y86286D01*
X156014Y86360D01*
X155950Y86436D01*
X155889Y86515D01*
X155831Y86596D01*
X155776Y86679D01*
X155725Y86764D01*
X155677Y86851D01*
X155632Y86940D01*
X155591Y87031D01*
X155553Y87123D01*
X155519Y87216D01*
X155489Y87311D01*
X155462Y87407D01*
X155439Y87504D01*
X155420Y87601D01*
X155405Y87700D01*
X155393Y87799D01*
X155385Y87898D01*
X155381Y87997D01*
X155381Y88097D01*
X155385Y88196D01*
X155393Y88295D01*
X155405Y88394D01*
X155420Y88493D01*
X155439Y88590D01*
X155462Y88687D01*
X155489Y88783D01*
X155519Y88878D01*
X155553Y88971D01*
X155591Y89063D01*
X155632Y89154D01*
X155677Y89243D01*
X155725Y89330D01*
X155776Y89415D01*
X155831Y89498D01*
X155889Y89579D01*
X155950Y89658D01*
X156014Y89734D01*
X156081Y89808D01*
X156150Y89879D01*
X156223Y89947D01*
X156298Y90013D01*
X156375Y90075D01*
X156455Y90135D01*
X156537Y90191D01*
X156621Y90244D01*
X156707Y90294D01*
X156795Y90340D01*
X156885Y90383D01*
X156977Y90422D01*
X157069Y90458D01*
X157164Y90490D01*
X157259Y90519D01*
X157355Y90544D01*
X157453Y90565D01*
X157551Y90582D01*
X157649Y90596D01*
X157748Y90605D01*
X157848Y90611D01*
X157947Y90613D01*
X162053Y90613D01*
X162152Y90611D01*
X162252Y90605D01*
X162351Y90596D01*
X162449Y90582D01*
X162547Y90565D01*
X162645Y90544D01*
X162741Y90519D01*
X162836Y90490D01*
X162931Y90458D01*
X163023Y90422D01*
X163115Y90383D01*
X163205Y90340D01*
X163293Y90294D01*
X163379Y90244D01*
X163463Y90191D01*
X163545Y90135D01*
X163625Y90075D01*
X163702Y90013D01*
X163777Y89947D01*
X163850Y89879D01*
X163919Y89808D01*
X163986Y89734D01*
X164050Y89658D01*
X164111Y89579D01*
X164169Y89498D01*
X164224Y89415D01*
X164275Y89330D01*
X164323Y89243D01*
X164368Y89154D01*
X164409Y89063D01*
X164447Y88971D01*
X164481Y88878D01*
X164511Y88783D01*
X164538Y88687D01*
X164561Y88590D01*
X164580Y88493D01*
X164595Y88394D01*
X164607Y88295D01*
X164615Y88196D01*
X164619Y88097D01*
X164619Y87997D01*
X164615Y87898D01*
X164607Y87799D01*
X164595Y87700D01*
X164580Y87601D01*
X164561Y87504D01*
X164538Y87407D01*
X164511Y87311D01*
X164481Y87216D01*
X164447Y87123D01*
X164409Y87031D01*
X164368Y86940D01*
X164323Y86851D01*
X164275Y86764D01*
X164224Y86679D01*
X164169Y86596D01*
X164111Y86515D01*
X164050Y86436D01*
X163986Y86360D01*
X163919Y86286D01*
X163850Y86215D01*
X163777Y86147D01*
X163702Y86081D01*
X163625Y86019D01*
X163545Y85959D01*
X163463Y85903D01*
X163379Y85850D01*
X163293Y85800D01*
X163205Y85754D01*
X163115Y85711D01*
X163023Y85672D01*
X162931Y85636D01*
X162836Y85604D01*
X162741Y85575D01*
X162645Y85550D01*
X162547Y85529D01*
X162449Y85512D01*
X162351Y85498D01*
X162252Y85489D01*
X162152Y85483D01*
X162053Y85481D01*
D11*
X90950Y17300D02*
X78250Y17300D01*
X71900Y23650D01*
X71900Y36350D01*
X78250Y42700D01*
X116350Y17300D02*
X122700Y23650D01*
X116350Y17300D02*
X103650Y17300D01*
X97300Y23650D01*
X97300Y36350D01*
X103650Y42700D01*
X116350Y42700D01*
X122700Y36350D01*
X97300Y23650D02*
X90950Y17300D01*
X97300Y36350D02*
X90950Y42700D01*
X78250Y42700D01*
X154450Y17300D02*
X167150Y17300D01*
X154450Y17300D02*
X148100Y23650D01*
X148100Y36350D01*
X154450Y42700D01*
X148100Y23650D02*
X141750Y17300D01*
X129050Y17300D01*
X122700Y23650D01*
X122700Y36350D01*
X129050Y42700D01*
X141750Y42700D01*
X148100Y36350D01*
X173500Y36350D02*
X173500Y23650D01*
X167150Y17300D01*
X173500Y36350D02*
X167150Y42700D01*
X154450Y42700D01*
X65550Y17300D02*
X52850Y17300D01*
X46500Y23650D01*
X46500Y36350D01*
X52850Y42700D01*
X71900Y23650D02*
X65550Y17300D01*
X71900Y36350D02*
X65550Y42700D01*
X52850Y42700D01*
M02*
