M48
;GenerationSoftware,Autodesk,EAGLE,9.6.0*%
;CreationDate,2020-10-29T21:32:24Z*%
FMAT,2
ICI,OFF
METRIC,TZ,000.000
T3C0.200
T2C0.350
T1C3.100
%
G90
M71
T1
X3000Y24000
X17000Y3000
X3000Y52000
X17000Y31000
X24000Y52000
X38000Y31000
X24000Y24000
X38000Y3000
T2
X5700Y20300
X5700Y48300
X26700Y48300
X26700Y20300
X1394Y12700
X17200Y21000
X16893Y18900
X6300Y18200
X8300Y18200
X1394Y40700
X17200Y49000
X16893Y46900
X6300Y46200
X8300Y46200
X22394Y40700
X38200Y49000
X37893Y46900
X27300Y46200
X29300Y46200
X22394Y12700
X38200Y21000
X37893Y18900
X27300Y18200
X29300Y18200
X13900Y10000
X1400Y11609
X15693Y12500
X16893Y17800
X13900Y38000
X1400Y39609
X15693Y40500
X16893Y45800
X34900Y38000
X22400Y39609
X36693Y40500
X37893Y45800
X34900Y10000
X22400Y11609
X36693Y12500
X37893Y17800
X1394Y10700
X1800Y19000
X2800Y19000
X3800Y19000
X4800Y19000
X2000Y2000
X2000Y4000
X3000Y3000
X5000Y3000
X4000Y4000
X4000Y2000
X6000Y2000
X6000Y4000
X7000Y3000
X8000Y4000
X8000Y2000
X9000Y3000
X10000Y4000
X12000Y4000
X11000Y3000
X10000Y2000
X12000Y2000
X13000Y3000
X14000Y4000
X14000Y2000
X12300Y16300
X13300Y15300
X12300Y14300
X14300Y14300
X13300Y13300
X12300Y12300
X6300Y19000
X7300Y19000
X8300Y19000
X1394Y38700
X1800Y47000
X2800Y47000
X3800Y47000
X4800Y47000
X2000Y30000
X2000Y32000
X3000Y31000
X5000Y31000
X4000Y32000
X4000Y30000
X6000Y30000
X6000Y32000
X7000Y31000
X8000Y32000
X8000Y30000
X9000Y31000
X10000Y32000
X12000Y32000
X11000Y31000
X10000Y30000
X12000Y30000
X13000Y31000
X14000Y32000
X14000Y30000
X12300Y44300
X13300Y43300
X12300Y42300
X14300Y42300
X13300Y41300
X12300Y40300
X6300Y47000
X7300Y47000
X8300Y47000
X22394Y38700
X22800Y47000
X23800Y47000
X24800Y47000
X25800Y47000
X23000Y30000
X23000Y32000
X24000Y31000
X26000Y31000
X25000Y32000
X25000Y30000
X27000Y30000
X27000Y32000
X28000Y31000
X29000Y32000
X29000Y30000
X30000Y31000
X31000Y32000
X33000Y32000
X32000Y31000
X31000Y30000
X33000Y30000
X34000Y31000
X35000Y32000
X35000Y30000
X33300Y44300
X34300Y43300
X33300Y42300
X35300Y42300
X34300Y41300
X33300Y40300
X27300Y47000
X28300Y47000
X29300Y47000
X22394Y10700
X22800Y19000
X23800Y19000
X24800Y19000
X25800Y19000
X23000Y2000
X23000Y4000
X24000Y3000
X26000Y3000
X25000Y4000
X25000Y2000
X27000Y2000
X27000Y4000
X28000Y3000
X29000Y4000
X29000Y2000
X30000Y3000
X31000Y4000
X33000Y4000
X32000Y3000
X31000Y2000
X33000Y2000
X34000Y3000
X35000Y4000
X35000Y2000
X33300Y16300
X34300Y15300
X33300Y14300
X35300Y14300
X34300Y13300
X33300Y12300
X27300Y19000
X28300Y19000
X29300Y19000
X15200Y10000
X1400Y9500
X12900Y6300
X7407Y21000
X15200Y38000
X1400Y37500
X12900Y34300
X7407Y49000
X36200Y38000
X22400Y37500
X33900Y34300
X28407Y49000
X36200Y10000
X22400Y9500
X33900Y6300
X28407Y21000
X15500Y5000
X15500Y33000
X36500Y33000
X36500Y5000
X7400Y22000
X7400Y50000
X28400Y50000
X28400Y22000
T3
X6000Y27000
X5000Y27000
X5670Y27000
X5340Y27000
X9000Y27000
X8000Y27000
X8670Y27000
X8340Y27000
X7500Y27000
X6500Y27000
X7170Y27000
X6840Y27000
X13000Y27000
X12000Y27000
X12670Y27000
X12340Y27000
X16000Y27000
X15000Y27000
X15670Y27000
X15340Y27000
X14500Y27000
X13500Y27000
X14170Y27000
X13840Y27000
X26000Y28000
X25000Y28000
X25670Y28000
X25340Y28000
X26000Y27000
X25000Y27000
X25670Y27000
X25340Y27000
X29000Y28000
X28000Y28000
X28670Y28000
X28340Y28000
X29000Y27000
X28000Y27000
X28670Y27000
X28340Y27000
X27500Y28000
X26500Y28000
X27170Y28000
X26840Y28000
X27500Y27000
X26500Y27000
X27170Y27000
X26840Y27000
X34000Y28000
X33000Y28000
X33670Y28000
X33340Y28000
X34000Y27000
X33000Y27000
X33670Y27000
X33340Y27000
X37000Y28000
X36000Y28000
X36670Y28000
X36340Y28000
X37000Y27000
X36000Y27000
X36670Y27000
X36340Y27000
X35500Y28000
X34500Y28000
X35170Y28000
X34840Y28000
X35500Y27000
X34500Y27000
X35170Y27000
X34840Y27000
X21000Y35000
X21000Y34000
X21000Y34670
X21000Y34340
X21000Y38000
X21000Y37000
X21000Y37670
X21000Y37340
X21000Y36500
X21000Y35500
X21000Y36170
X21000Y35840
X21000Y43000
X21000Y42000
X21000Y42670
X21000Y42340
X21000Y46000
X21000Y45000
X21000Y45670
X21000Y45340
X21000Y44500
X21000Y43500
X21000Y44170
X21000Y43840
X20000Y7000
X20000Y6000
X20000Y6670
X20000Y6340
X21000Y7000
X21000Y6000
X21000Y6670
X21000Y6340
X20000Y10000
X20000Y9000
X20000Y9670
X20000Y9340
X21000Y10000
X21000Y9000
X21000Y9670
X21000Y9340
X20000Y8500
X20000Y7500
X20000Y8170
X20000Y7840
X21000Y8500
X21000Y7500
X21000Y8170
X21000Y7840
X20000Y15000
X20000Y14000
X20000Y14670
X20000Y14340
X21000Y15000
X21000Y14000
X21000Y14670
X21000Y14340
X20000Y18000
X20000Y17000
X20000Y17670
X20000Y17340
X21000Y18000
X21000Y17000
X21000Y17670
X21000Y17340
X20000Y16500
X20000Y15500
X20000Y16170
X20000Y15840
X21000Y16500
X21000Y15500
X21000Y16170
X21000Y15840
X6000Y28000
X5000Y28000
X5670Y28000
X5340Y28000
X9000Y28000
X8000Y28000
X8670Y28000
X8340Y28000
X7500Y28000
X6500Y28000
X7170Y28000
X6840Y28000
X13000Y28000
X12000Y28000
X12670Y28000
X12340Y28000
X16000Y28000
X15000Y28000
X15670Y28000
X15340Y28000
X14500Y28000
X13500Y28000
X14170Y28000
X13840Y28000
M30