G04 EAGLE Gerber RS-274X export*
G75*
%MOMM*%
%FSLAX34Y34*%
%LPD*%
%IN*%
%IPPOS*%
%AMOC8*
5,1,8,0,0,1.08239X$1,22.5*%
G01*
%ADD10C,0.254000*%


D10*
X0Y10000D02*
X38Y9128D01*
X152Y8264D01*
X341Y7412D01*
X603Y6580D01*
X937Y5774D01*
X1340Y5000D01*
X1808Y4264D01*
X2340Y3572D01*
X2929Y2929D01*
X3572Y2340D01*
X4264Y1808D01*
X5000Y1340D01*
X5774Y937D01*
X6580Y603D01*
X7412Y341D01*
X8264Y152D01*
X9128Y38D01*
X10000Y0D01*
X170000Y0D01*
X172615Y114D01*
X175209Y456D01*
X177765Y1022D01*
X180261Y1809D01*
X182679Y2811D01*
X185000Y4019D01*
X187207Y5425D01*
X189284Y7019D01*
X191213Y8787D01*
X192981Y10716D01*
X194575Y12793D01*
X195981Y15000D01*
X197189Y17321D01*
X198191Y19739D01*
X198978Y22235D01*
X199544Y24791D01*
X199886Y27385D01*
X200000Y30000D01*
X200000Y45000D01*
X200019Y45436D01*
X200076Y45868D01*
X200170Y46294D01*
X200302Y46710D01*
X200468Y47113D01*
X200670Y47500D01*
X200904Y47868D01*
X201170Y48214D01*
X201464Y48536D01*
X201786Y48830D01*
X202132Y49096D01*
X202500Y49330D01*
X202887Y49532D01*
X203290Y49698D01*
X203706Y49830D01*
X204132Y49924D01*
X204564Y49981D01*
X205000Y50000D01*
X205436Y49981D01*
X205868Y49924D01*
X206294Y49830D01*
X206710Y49698D01*
X207113Y49532D01*
X207500Y49330D01*
X207868Y49096D01*
X208214Y48830D01*
X208536Y48536D01*
X208830Y48214D01*
X209096Y47868D01*
X209330Y47500D01*
X209532Y47113D01*
X209698Y46710D01*
X209830Y46294D01*
X209924Y45868D01*
X209981Y45436D01*
X210000Y45000D01*
X210000Y10000D01*
X210038Y9128D01*
X210152Y8264D01*
X210341Y7412D01*
X210603Y6580D01*
X210937Y5774D01*
X211340Y5000D01*
X211808Y4264D01*
X212340Y3572D01*
X212929Y2929D01*
X213572Y2340D01*
X214264Y1808D01*
X215000Y1340D01*
X215774Y937D01*
X216580Y603D01*
X217412Y341D01*
X218264Y152D01*
X219128Y38D01*
X220000Y0D01*
X380000Y0D01*
X382615Y114D01*
X385209Y456D01*
X387765Y1022D01*
X390261Y1809D01*
X392679Y2811D01*
X395000Y4019D01*
X397207Y5425D01*
X399284Y7019D01*
X401213Y8787D01*
X402981Y10716D01*
X404575Y12793D01*
X405981Y15000D01*
X407189Y17321D01*
X408191Y19739D01*
X408978Y22235D01*
X409544Y24791D01*
X409886Y27385D01*
X410000Y30000D01*
X410000Y45000D01*
X410019Y45436D01*
X410076Y45868D01*
X410170Y46294D01*
X410302Y46710D01*
X410468Y47113D01*
X410670Y47500D01*
X410904Y47868D01*
X411170Y48214D01*
X411464Y48536D01*
X411786Y48830D01*
X412132Y49096D01*
X412500Y49330D01*
X412887Y49532D01*
X413290Y49698D01*
X413706Y49830D01*
X414132Y49924D01*
X414564Y49981D01*
X415000Y50000D01*
X415436Y49981D01*
X415868Y49924D01*
X416294Y49830D01*
X416710Y49698D01*
X417113Y49532D01*
X417500Y49330D01*
X417868Y49096D01*
X418214Y48830D01*
X418536Y48536D01*
X418830Y48214D01*
X419096Y47868D01*
X419330Y47500D01*
X419532Y47113D01*
X419698Y46710D01*
X419830Y46294D01*
X419924Y45868D01*
X419981Y45436D01*
X420000Y45000D01*
X420000Y10000D01*
X420038Y9128D01*
X420152Y8264D01*
X420341Y7412D01*
X420603Y6580D01*
X420937Y5774D01*
X421340Y5000D01*
X421808Y4264D01*
X422340Y3572D01*
X422929Y2929D01*
X423572Y2340D01*
X424264Y1808D01*
X425000Y1340D01*
X425774Y937D01*
X426580Y603D01*
X427412Y341D01*
X428264Y152D01*
X429128Y38D01*
X430000Y0D01*
X590000Y0D01*
X592615Y114D01*
X595209Y456D01*
X597765Y1022D01*
X600261Y1809D01*
X602679Y2811D01*
X605000Y4019D01*
X607207Y5425D01*
X609284Y7019D01*
X611213Y8787D01*
X612981Y10716D01*
X614575Y12793D01*
X615981Y15000D01*
X617189Y17321D01*
X618191Y19739D01*
X618978Y22235D01*
X619544Y24791D01*
X619886Y27385D01*
X620000Y30000D01*
X620000Y45000D01*
X620019Y45436D01*
X620076Y45868D01*
X620170Y46294D01*
X620302Y46710D01*
X620468Y47113D01*
X620670Y47500D01*
X620904Y47868D01*
X621170Y48214D01*
X621464Y48536D01*
X621786Y48830D01*
X622132Y49096D01*
X622500Y49330D01*
X622887Y49532D01*
X623290Y49698D01*
X623706Y49830D01*
X624132Y49924D01*
X624564Y49981D01*
X625000Y50000D01*
X625436Y49981D01*
X625868Y49924D01*
X626294Y49830D01*
X626710Y49698D01*
X627113Y49532D01*
X627500Y49330D01*
X627868Y49096D01*
X628214Y48830D01*
X628536Y48536D01*
X628830Y48214D01*
X629096Y47868D01*
X629330Y47500D01*
X629532Y47113D01*
X629698Y46710D01*
X629830Y46294D01*
X629924Y45868D01*
X629981Y45436D01*
X630000Y45000D01*
X630000Y10000D01*
X630038Y9128D01*
X630152Y8264D01*
X630341Y7412D01*
X630603Y6580D01*
X630937Y5774D01*
X631340Y5000D01*
X631808Y4264D01*
X632340Y3572D01*
X632929Y2929D01*
X633572Y2340D01*
X634264Y1808D01*
X635000Y1340D01*
X635774Y937D01*
X636580Y603D01*
X637412Y341D01*
X638264Y152D01*
X639128Y38D01*
X640000Y0D01*
X800000Y0D01*
X802615Y114D01*
X805209Y456D01*
X807765Y1022D01*
X810261Y1809D01*
X812679Y2811D01*
X815000Y4019D01*
X817207Y5425D01*
X819284Y7019D01*
X821213Y8787D01*
X822981Y10716D01*
X824575Y12793D01*
X825981Y15000D01*
X827189Y17321D01*
X828191Y19739D01*
X828978Y22235D01*
X829544Y24791D01*
X829886Y27385D01*
X830000Y30000D01*
X830000Y260000D01*
X829962Y260872D01*
X829848Y261736D01*
X829659Y262588D01*
X829397Y263420D01*
X829063Y264226D01*
X828660Y265000D01*
X828192Y265736D01*
X827660Y266428D01*
X827071Y267071D01*
X826428Y267660D01*
X825736Y268192D01*
X825000Y268660D01*
X824226Y269063D01*
X823420Y269397D01*
X822588Y269659D01*
X821736Y269848D01*
X820872Y269962D01*
X820000Y270000D01*
X660000Y270000D01*
X657385Y269886D01*
X654791Y269544D01*
X652235Y268978D01*
X649739Y268191D01*
X647321Y267189D01*
X645000Y265981D01*
X642793Y264575D01*
X640716Y262981D01*
X638787Y261213D01*
X637019Y259284D01*
X635425Y257207D01*
X634019Y255000D01*
X632811Y252679D01*
X631809Y250261D01*
X631022Y247765D01*
X630456Y245209D01*
X630114Y242615D01*
X630000Y240000D01*
X630000Y225000D01*
X629981Y224564D01*
X629924Y224132D01*
X629830Y223706D01*
X629698Y223290D01*
X629532Y222887D01*
X629330Y222500D01*
X629096Y222132D01*
X628830Y221786D01*
X628536Y221464D01*
X628214Y221170D01*
X627868Y220904D01*
X627500Y220670D01*
X627113Y220468D01*
X626710Y220302D01*
X626294Y220170D01*
X625868Y220076D01*
X625436Y220019D01*
X625000Y220000D01*
X624564Y220019D01*
X624132Y220076D01*
X623706Y220170D01*
X623290Y220302D01*
X622887Y220468D01*
X622500Y220670D01*
X622132Y220904D01*
X621786Y221170D01*
X621464Y221464D01*
X621170Y221786D01*
X620904Y222132D01*
X620670Y222500D01*
X620468Y222887D01*
X620302Y223290D01*
X620170Y223706D01*
X620076Y224132D01*
X620019Y224564D01*
X620000Y225000D01*
X620000Y260000D01*
X619962Y260872D01*
X619848Y261736D01*
X619659Y262588D01*
X619397Y263420D01*
X619063Y264226D01*
X618660Y265000D01*
X618192Y265736D01*
X617660Y266428D01*
X617071Y267071D01*
X616428Y267660D01*
X615736Y268192D01*
X615000Y268660D01*
X614226Y269063D01*
X613420Y269397D01*
X612588Y269659D01*
X611736Y269848D01*
X610872Y269962D01*
X610000Y270000D01*
X450000Y270000D01*
X447385Y269886D01*
X444791Y269544D01*
X442235Y268978D01*
X439739Y268191D01*
X437321Y267189D01*
X435000Y265981D01*
X432793Y264575D01*
X430716Y262981D01*
X428787Y261213D01*
X427019Y259284D01*
X425425Y257207D01*
X424019Y255000D01*
X422811Y252679D01*
X421809Y250261D01*
X421022Y247765D01*
X420456Y245209D01*
X420114Y242615D01*
X420000Y240000D01*
X420000Y225000D01*
X419981Y224564D01*
X419924Y224132D01*
X419830Y223706D01*
X419698Y223290D01*
X419532Y222887D01*
X419330Y222500D01*
X419096Y222132D01*
X418830Y221786D01*
X418536Y221464D01*
X418214Y221170D01*
X417868Y220904D01*
X417500Y220670D01*
X417113Y220468D01*
X416710Y220302D01*
X416294Y220170D01*
X415868Y220076D01*
X415436Y220019D01*
X415000Y220000D01*
X414564Y220019D01*
X414132Y220076D01*
X413706Y220170D01*
X413290Y220302D01*
X412887Y220468D01*
X412500Y220670D01*
X412132Y220904D01*
X411786Y221170D01*
X411464Y221464D01*
X411170Y221786D01*
X410904Y222132D01*
X410670Y222500D01*
X410468Y222887D01*
X410302Y223290D01*
X410170Y223706D01*
X410076Y224132D01*
X410019Y224564D01*
X410000Y225000D01*
X410000Y260000D01*
X409962Y260872D01*
X409848Y261736D01*
X409659Y262588D01*
X409397Y263420D01*
X409063Y264226D01*
X408660Y265000D01*
X408192Y265736D01*
X407660Y266428D01*
X407071Y267071D01*
X406428Y267660D01*
X405736Y268192D01*
X405000Y268660D01*
X404226Y269063D01*
X403420Y269397D01*
X402588Y269659D01*
X401736Y269848D01*
X400872Y269962D01*
X400000Y270000D01*
X240000Y270000D01*
X237385Y269886D01*
X234791Y269544D01*
X232235Y268978D01*
X229739Y268191D01*
X227321Y267189D01*
X225000Y265981D01*
X222793Y264575D01*
X220716Y262981D01*
X218787Y261213D01*
X217019Y259284D01*
X215425Y257207D01*
X214019Y255000D01*
X212811Y252679D01*
X211809Y250261D01*
X211022Y247765D01*
X210456Y245209D01*
X210114Y242615D01*
X210000Y240000D01*
X210000Y225000D01*
X209981Y224564D01*
X209924Y224132D01*
X209830Y223706D01*
X209698Y223290D01*
X209532Y222887D01*
X209330Y222500D01*
X209096Y222132D01*
X208830Y221786D01*
X208536Y221464D01*
X208214Y221170D01*
X207868Y220904D01*
X207500Y220670D01*
X207113Y220468D01*
X206710Y220302D01*
X206294Y220170D01*
X205868Y220076D01*
X205436Y220019D01*
X205000Y220000D01*
X204564Y220019D01*
X204132Y220076D01*
X203706Y220170D01*
X203290Y220302D01*
X202887Y220468D01*
X202500Y220670D01*
X202132Y220904D01*
X201786Y221170D01*
X201464Y221464D01*
X201170Y221786D01*
X200904Y222132D01*
X200670Y222500D01*
X200468Y222887D01*
X200302Y223290D01*
X200170Y223706D01*
X200076Y224132D01*
X200019Y224564D01*
X200000Y225000D01*
X200000Y260000D01*
X199962Y260872D01*
X199848Y261736D01*
X199659Y262588D01*
X199397Y263420D01*
X199063Y264226D01*
X198660Y265000D01*
X198192Y265736D01*
X197660Y266428D01*
X197071Y267071D01*
X196428Y267660D01*
X195736Y268192D01*
X195000Y268660D01*
X194226Y269063D01*
X193420Y269397D01*
X192588Y269659D01*
X191736Y269848D01*
X190872Y269962D01*
X190000Y270000D01*
X30000Y270000D01*
X27385Y269886D01*
X24791Y269544D01*
X22235Y268978D01*
X19739Y268191D01*
X17321Y267189D01*
X15000Y265981D01*
X12793Y264575D01*
X10716Y262981D01*
X8787Y261213D01*
X7019Y259284D01*
X5425Y257207D01*
X4019Y255000D01*
X2811Y252679D01*
X1809Y250261D01*
X1022Y247765D01*
X456Y245209D01*
X114Y242615D01*
X0Y240000D01*
X0Y10000D01*
X620000Y95000D02*
X620019Y94564D01*
X620076Y94132D01*
X620170Y93706D01*
X620302Y93290D01*
X620468Y92887D01*
X620670Y92500D01*
X620904Y92132D01*
X621170Y91786D01*
X621464Y91464D01*
X621786Y91170D01*
X622132Y90904D01*
X622500Y90670D01*
X622887Y90468D01*
X623290Y90302D01*
X623706Y90170D01*
X624132Y90076D01*
X624564Y90019D01*
X625000Y90000D01*
X625436Y90019D01*
X625868Y90076D01*
X626294Y90170D01*
X626710Y90302D01*
X627113Y90468D01*
X627500Y90670D01*
X627868Y90904D01*
X628214Y91170D01*
X628536Y91464D01*
X628830Y91786D01*
X629096Y92132D01*
X629330Y92500D01*
X629532Y92887D01*
X629698Y93290D01*
X629830Y93706D01*
X629924Y94132D01*
X629981Y94564D01*
X630000Y95000D01*
X630000Y115000D01*
X629981Y115436D01*
X629924Y115868D01*
X629830Y116294D01*
X629698Y116710D01*
X629532Y117113D01*
X629330Y117500D01*
X629096Y117868D01*
X628830Y118214D01*
X628536Y118536D01*
X628214Y118830D01*
X627868Y119096D01*
X627500Y119330D01*
X627113Y119532D01*
X626710Y119698D01*
X626294Y119830D01*
X625868Y119924D01*
X625436Y119981D01*
X625000Y120000D01*
X624564Y119981D01*
X624132Y119924D01*
X623706Y119830D01*
X623290Y119698D01*
X622887Y119532D01*
X622500Y119330D01*
X622132Y119096D01*
X621786Y118830D01*
X621464Y118536D01*
X621170Y118214D01*
X620904Y117868D01*
X620670Y117500D01*
X620468Y117113D01*
X620302Y116710D01*
X620170Y116294D01*
X620076Y115868D01*
X620019Y115436D01*
X620000Y115000D01*
X620000Y95000D01*
X620000Y155000D02*
X620019Y154564D01*
X620076Y154132D01*
X620170Y153706D01*
X620302Y153290D01*
X620468Y152887D01*
X620670Y152500D01*
X620904Y152132D01*
X621170Y151786D01*
X621464Y151464D01*
X621786Y151170D01*
X622132Y150904D01*
X622500Y150670D01*
X622887Y150468D01*
X623290Y150302D01*
X623706Y150170D01*
X624132Y150076D01*
X624564Y150019D01*
X625000Y150000D01*
X625436Y150019D01*
X625868Y150076D01*
X626294Y150170D01*
X626710Y150302D01*
X627113Y150468D01*
X627500Y150670D01*
X627868Y150904D01*
X628214Y151170D01*
X628536Y151464D01*
X628830Y151786D01*
X629096Y152132D01*
X629330Y152500D01*
X629532Y152887D01*
X629698Y153290D01*
X629830Y153706D01*
X629924Y154132D01*
X629981Y154564D01*
X630000Y155000D01*
X630000Y175000D01*
X629981Y175436D01*
X629924Y175868D01*
X629830Y176294D01*
X629698Y176710D01*
X629532Y177113D01*
X629330Y177500D01*
X629096Y177868D01*
X628830Y178214D01*
X628536Y178536D01*
X628214Y178830D01*
X627868Y179096D01*
X627500Y179330D01*
X627113Y179532D01*
X626710Y179698D01*
X626294Y179830D01*
X625868Y179924D01*
X625436Y179981D01*
X625000Y180000D01*
X624564Y179981D01*
X624132Y179924D01*
X623706Y179830D01*
X623290Y179698D01*
X622887Y179532D01*
X622500Y179330D01*
X622132Y179096D01*
X621786Y178830D01*
X621464Y178536D01*
X621170Y178214D01*
X620904Y177868D01*
X620670Y177500D01*
X620468Y177113D01*
X620302Y176710D01*
X620170Y176294D01*
X620076Y175868D01*
X620019Y175436D01*
X620000Y175000D01*
X620000Y155000D01*
X410000Y95000D02*
X410019Y94564D01*
X410076Y94132D01*
X410170Y93706D01*
X410302Y93290D01*
X410468Y92887D01*
X410670Y92500D01*
X410904Y92132D01*
X411170Y91786D01*
X411464Y91464D01*
X411786Y91170D01*
X412132Y90904D01*
X412500Y90670D01*
X412887Y90468D01*
X413290Y90302D01*
X413706Y90170D01*
X414132Y90076D01*
X414564Y90019D01*
X415000Y90000D01*
X415436Y90019D01*
X415868Y90076D01*
X416294Y90170D01*
X416710Y90302D01*
X417113Y90468D01*
X417500Y90670D01*
X417868Y90904D01*
X418214Y91170D01*
X418536Y91464D01*
X418830Y91786D01*
X419096Y92132D01*
X419330Y92500D01*
X419532Y92887D01*
X419698Y93290D01*
X419830Y93706D01*
X419924Y94132D01*
X419981Y94564D01*
X420000Y95000D01*
X420000Y115000D01*
X419981Y115436D01*
X419924Y115868D01*
X419830Y116294D01*
X419698Y116710D01*
X419532Y117113D01*
X419330Y117500D01*
X419096Y117868D01*
X418830Y118214D01*
X418536Y118536D01*
X418214Y118830D01*
X417868Y119096D01*
X417500Y119330D01*
X417113Y119532D01*
X416710Y119698D01*
X416294Y119830D01*
X415868Y119924D01*
X415436Y119981D01*
X415000Y120000D01*
X414564Y119981D01*
X414132Y119924D01*
X413706Y119830D01*
X413290Y119698D01*
X412887Y119532D01*
X412500Y119330D01*
X412132Y119096D01*
X411786Y118830D01*
X411464Y118536D01*
X411170Y118214D01*
X410904Y117868D01*
X410670Y117500D01*
X410468Y117113D01*
X410302Y116710D01*
X410170Y116294D01*
X410076Y115868D01*
X410019Y115436D01*
X410000Y115000D01*
X410000Y95000D01*
X200000Y95000D02*
X200019Y94564D01*
X200076Y94132D01*
X200170Y93706D01*
X200302Y93290D01*
X200468Y92887D01*
X200670Y92500D01*
X200904Y92132D01*
X201170Y91786D01*
X201464Y91464D01*
X201786Y91170D01*
X202132Y90904D01*
X202500Y90670D01*
X202887Y90468D01*
X203290Y90302D01*
X203706Y90170D01*
X204132Y90076D01*
X204564Y90019D01*
X205000Y90000D01*
X205436Y90019D01*
X205868Y90076D01*
X206294Y90170D01*
X206710Y90302D01*
X207113Y90468D01*
X207500Y90670D01*
X207868Y90904D01*
X208214Y91170D01*
X208536Y91464D01*
X208830Y91786D01*
X209096Y92132D01*
X209330Y92500D01*
X209532Y92887D01*
X209698Y93290D01*
X209830Y93706D01*
X209924Y94132D01*
X209981Y94564D01*
X210000Y95000D01*
X210000Y115000D01*
X209981Y115436D01*
X209924Y115868D01*
X209830Y116294D01*
X209698Y116710D01*
X209532Y117113D01*
X209330Y117500D01*
X209096Y117868D01*
X208830Y118214D01*
X208536Y118536D01*
X208214Y118830D01*
X207868Y119096D01*
X207500Y119330D01*
X207113Y119532D01*
X206710Y119698D01*
X206294Y119830D01*
X205868Y119924D01*
X205436Y119981D01*
X205000Y120000D01*
X204564Y119981D01*
X204132Y119924D01*
X203706Y119830D01*
X203290Y119698D01*
X202887Y119532D01*
X202500Y119330D01*
X202132Y119096D01*
X201786Y118830D01*
X201464Y118536D01*
X201170Y118214D01*
X200904Y117868D01*
X200670Y117500D01*
X200468Y117113D01*
X200302Y116710D01*
X200170Y116294D01*
X200076Y115868D01*
X200019Y115436D01*
X200000Y115000D01*
X200000Y95000D01*
X200000Y155000D02*
X200019Y154564D01*
X200076Y154132D01*
X200170Y153706D01*
X200302Y153290D01*
X200468Y152887D01*
X200670Y152500D01*
X200904Y152132D01*
X201170Y151786D01*
X201464Y151464D01*
X201786Y151170D01*
X202132Y150904D01*
X202500Y150670D01*
X202887Y150468D01*
X203290Y150302D01*
X203706Y150170D01*
X204132Y150076D01*
X204564Y150019D01*
X205000Y150000D01*
X205436Y150019D01*
X205868Y150076D01*
X206294Y150170D01*
X206710Y150302D01*
X207113Y150468D01*
X207500Y150670D01*
X207868Y150904D01*
X208214Y151170D01*
X208536Y151464D01*
X208830Y151786D01*
X209096Y152132D01*
X209330Y152500D01*
X209532Y152887D01*
X209698Y153290D01*
X209830Y153706D01*
X209924Y154132D01*
X209981Y154564D01*
X210000Y155000D01*
X210000Y175000D01*
X209981Y175436D01*
X209924Y175868D01*
X209830Y176294D01*
X209698Y176710D01*
X209532Y177113D01*
X209330Y177500D01*
X209096Y177868D01*
X208830Y178214D01*
X208536Y178536D01*
X208214Y178830D01*
X207868Y179096D01*
X207500Y179330D01*
X207113Y179532D01*
X206710Y179698D01*
X206294Y179830D01*
X205868Y179924D01*
X205436Y179981D01*
X205000Y180000D01*
X204564Y179981D01*
X204132Y179924D01*
X203706Y179830D01*
X203290Y179698D01*
X202887Y179532D01*
X202500Y179330D01*
X202132Y179096D01*
X201786Y178830D01*
X201464Y178536D01*
X201170Y178214D01*
X200904Y177868D01*
X200670Y177500D01*
X200468Y177113D01*
X200302Y176710D01*
X200170Y176294D01*
X200076Y175868D01*
X200019Y175436D01*
X200000Y175000D01*
X200000Y155000D01*
X410000Y155000D02*
X410019Y154564D01*
X410076Y154132D01*
X410170Y153706D01*
X410302Y153290D01*
X410468Y152887D01*
X410670Y152500D01*
X410904Y152132D01*
X411170Y151786D01*
X411464Y151464D01*
X411786Y151170D01*
X412132Y150904D01*
X412500Y150670D01*
X412887Y150468D01*
X413290Y150302D01*
X413706Y150170D01*
X414132Y150076D01*
X414564Y150019D01*
X415000Y150000D01*
X415436Y150019D01*
X415868Y150076D01*
X416294Y150170D01*
X416710Y150302D01*
X417113Y150468D01*
X417500Y150670D01*
X417868Y150904D01*
X418214Y151170D01*
X418536Y151464D01*
X418830Y151786D01*
X419096Y152132D01*
X419330Y152500D01*
X419532Y152887D01*
X419698Y153290D01*
X419830Y153706D01*
X419924Y154132D01*
X419981Y154564D01*
X420000Y155000D01*
X420000Y175000D01*
X419981Y175436D01*
X419924Y175868D01*
X419830Y176294D01*
X419698Y176710D01*
X419532Y177113D01*
X419330Y177500D01*
X419096Y177868D01*
X418830Y178214D01*
X418536Y178536D01*
X418214Y178830D01*
X417868Y179096D01*
X417500Y179330D01*
X417113Y179532D01*
X416710Y179698D01*
X416294Y179830D01*
X415868Y179924D01*
X415436Y179981D01*
X415000Y180000D01*
X414564Y179981D01*
X414132Y179924D01*
X413706Y179830D01*
X413290Y179698D01*
X412887Y179532D01*
X412500Y179330D01*
X412132Y179096D01*
X411786Y178830D01*
X411464Y178536D01*
X411170Y178214D01*
X410904Y177868D01*
X410670Y177500D01*
X410468Y177113D01*
X410302Y176710D01*
X410170Y176294D01*
X410076Y175868D01*
X410019Y175436D01*
X410000Y175000D01*
X410000Y155000D01*
X185500Y29446D02*
X185421Y28342D01*
X185263Y27246D01*
X185028Y26164D01*
X184716Y25102D01*
X184329Y24065D01*
X183869Y23058D01*
X183339Y22086D01*
X182740Y21154D01*
X182077Y20268D01*
X181352Y19431D01*
X180569Y18648D01*
X179732Y17923D01*
X178846Y17260D01*
X177914Y16661D01*
X176943Y16131D01*
X175935Y15671D01*
X174898Y15284D01*
X173836Y14972D01*
X172754Y14737D01*
X171658Y14579D01*
X170554Y14500D01*
X169446Y14500D01*
X168342Y14579D01*
X167246Y14737D01*
X166164Y14972D01*
X165102Y15284D01*
X164065Y15671D01*
X163058Y16131D01*
X162086Y16661D01*
X161154Y17260D01*
X160268Y17923D01*
X159431Y18648D01*
X158648Y19431D01*
X157923Y20268D01*
X157260Y21154D01*
X156661Y22086D01*
X156131Y23058D01*
X155671Y24065D01*
X155284Y25102D01*
X154972Y26164D01*
X154737Y27246D01*
X154579Y28342D01*
X154500Y29446D01*
X154500Y30554D01*
X154579Y31658D01*
X154737Y32754D01*
X154972Y33836D01*
X155284Y34898D01*
X155671Y35935D01*
X156131Y36943D01*
X156661Y37914D01*
X157260Y38846D01*
X157923Y39732D01*
X158648Y40569D01*
X159431Y41352D01*
X160268Y42077D01*
X161154Y42740D01*
X162086Y43339D01*
X163058Y43869D01*
X164065Y44329D01*
X165102Y44716D01*
X166164Y45028D01*
X167246Y45263D01*
X168342Y45421D01*
X169446Y45500D01*
X170554Y45500D01*
X171658Y45421D01*
X172754Y45263D01*
X173836Y45028D01*
X174898Y44716D01*
X175935Y44329D01*
X176943Y43869D01*
X177914Y43339D01*
X178846Y42740D01*
X179732Y42077D01*
X180569Y41352D01*
X181352Y40569D01*
X182077Y39732D01*
X182740Y38846D01*
X183339Y37914D01*
X183869Y36943D01*
X184329Y35935D01*
X184716Y34898D01*
X185028Y33836D01*
X185263Y32754D01*
X185421Y31658D01*
X185500Y30554D01*
X185500Y29446D01*
X45000Y239464D02*
X44924Y238396D01*
X44771Y237335D01*
X44543Y236288D01*
X44241Y235260D01*
X43867Y234256D01*
X43422Y233281D01*
X42908Y232341D01*
X42329Y231440D01*
X41687Y230582D01*
X40985Y229772D01*
X40228Y229015D01*
X39418Y228313D01*
X38560Y227671D01*
X37659Y227092D01*
X36719Y226578D01*
X35744Y226133D01*
X34740Y225759D01*
X33712Y225457D01*
X32665Y225229D01*
X31604Y225076D01*
X30536Y225000D01*
X29464Y225000D01*
X28396Y225076D01*
X27335Y225229D01*
X26288Y225457D01*
X25260Y225759D01*
X24256Y226133D01*
X23281Y226578D01*
X22341Y227092D01*
X21440Y227671D01*
X20582Y228313D01*
X19772Y229015D01*
X19015Y229772D01*
X18313Y230582D01*
X17671Y231440D01*
X17092Y232341D01*
X16578Y233281D01*
X16133Y234256D01*
X15759Y235260D01*
X15457Y236288D01*
X15229Y237335D01*
X15076Y238396D01*
X15000Y239464D01*
X15000Y240536D01*
X15076Y241604D01*
X15229Y242665D01*
X15457Y243712D01*
X15759Y244740D01*
X16133Y245744D01*
X16578Y246719D01*
X17092Y247659D01*
X17671Y248560D01*
X18313Y249418D01*
X19015Y250228D01*
X19772Y250985D01*
X20582Y251687D01*
X21440Y252329D01*
X22341Y252908D01*
X23281Y253422D01*
X24256Y253867D01*
X25260Y254241D01*
X26288Y254543D01*
X27335Y254771D01*
X28396Y254924D01*
X29464Y255000D01*
X30536Y255000D01*
X31604Y254924D01*
X32665Y254771D01*
X33712Y254543D01*
X34740Y254241D01*
X35744Y253867D01*
X36719Y253422D01*
X37659Y252908D01*
X38560Y252329D01*
X39418Y251687D01*
X40228Y250985D01*
X40985Y250228D01*
X41687Y249418D01*
X42329Y248560D01*
X42908Y247659D01*
X43422Y246719D01*
X43867Y245744D01*
X44241Y244740D01*
X44543Y243712D01*
X44771Y242665D01*
X44924Y241604D01*
X45000Y240536D01*
X45000Y239464D01*
X395500Y29446D02*
X395421Y28342D01*
X395263Y27246D01*
X395028Y26164D01*
X394716Y25102D01*
X394329Y24065D01*
X393869Y23058D01*
X393339Y22086D01*
X392740Y21154D01*
X392077Y20268D01*
X391352Y19431D01*
X390569Y18648D01*
X389732Y17923D01*
X388846Y17260D01*
X387914Y16661D01*
X386943Y16131D01*
X385935Y15671D01*
X384898Y15284D01*
X383836Y14972D01*
X382754Y14737D01*
X381658Y14579D01*
X380554Y14500D01*
X379446Y14500D01*
X378342Y14579D01*
X377246Y14737D01*
X376164Y14972D01*
X375102Y15284D01*
X374065Y15671D01*
X373058Y16131D01*
X372086Y16661D01*
X371154Y17260D01*
X370268Y17923D01*
X369431Y18648D01*
X368648Y19431D01*
X367923Y20268D01*
X367260Y21154D01*
X366661Y22086D01*
X366131Y23058D01*
X365671Y24065D01*
X365284Y25102D01*
X364972Y26164D01*
X364737Y27246D01*
X364579Y28342D01*
X364500Y29446D01*
X364500Y30554D01*
X364579Y31658D01*
X364737Y32754D01*
X364972Y33836D01*
X365284Y34898D01*
X365671Y35935D01*
X366131Y36943D01*
X366661Y37914D01*
X367260Y38846D01*
X367923Y39732D01*
X368648Y40569D01*
X369431Y41352D01*
X370268Y42077D01*
X371154Y42740D01*
X372086Y43339D01*
X373058Y43869D01*
X374065Y44329D01*
X375102Y44716D01*
X376164Y45028D01*
X377246Y45263D01*
X378342Y45421D01*
X379446Y45500D01*
X380554Y45500D01*
X381658Y45421D01*
X382754Y45263D01*
X383836Y45028D01*
X384898Y44716D01*
X385935Y44329D01*
X386943Y43869D01*
X387914Y43339D01*
X388846Y42740D01*
X389732Y42077D01*
X390569Y41352D01*
X391352Y40569D01*
X392077Y39732D01*
X392740Y38846D01*
X393339Y37914D01*
X393869Y36943D01*
X394329Y35935D01*
X394716Y34898D01*
X395028Y33836D01*
X395263Y32754D01*
X395421Y31658D01*
X395500Y30554D01*
X395500Y29446D01*
X255000Y239464D02*
X254924Y238396D01*
X254771Y237335D01*
X254543Y236288D01*
X254241Y235260D01*
X253867Y234256D01*
X253422Y233281D01*
X252908Y232341D01*
X252329Y231440D01*
X251687Y230582D01*
X250985Y229772D01*
X250228Y229015D01*
X249418Y228313D01*
X248560Y227671D01*
X247659Y227092D01*
X246719Y226578D01*
X245744Y226133D01*
X244740Y225759D01*
X243712Y225457D01*
X242665Y225229D01*
X241604Y225076D01*
X240536Y225000D01*
X239464Y225000D01*
X238396Y225076D01*
X237335Y225229D01*
X236288Y225457D01*
X235260Y225759D01*
X234256Y226133D01*
X233281Y226578D01*
X232341Y227092D01*
X231440Y227671D01*
X230582Y228313D01*
X229772Y229015D01*
X229015Y229772D01*
X228313Y230582D01*
X227671Y231440D01*
X227092Y232341D01*
X226578Y233281D01*
X226133Y234256D01*
X225759Y235260D01*
X225457Y236288D01*
X225229Y237335D01*
X225076Y238396D01*
X225000Y239464D01*
X225000Y240536D01*
X225076Y241604D01*
X225229Y242665D01*
X225457Y243712D01*
X225759Y244740D01*
X226133Y245744D01*
X226578Y246719D01*
X227092Y247659D01*
X227671Y248560D01*
X228313Y249418D01*
X229015Y250228D01*
X229772Y250985D01*
X230582Y251687D01*
X231440Y252329D01*
X232341Y252908D01*
X233281Y253422D01*
X234256Y253867D01*
X235260Y254241D01*
X236288Y254543D01*
X237335Y254771D01*
X238396Y254924D01*
X239464Y255000D01*
X240536Y255000D01*
X241604Y254924D01*
X242665Y254771D01*
X243712Y254543D01*
X244740Y254241D01*
X245744Y253867D01*
X246719Y253422D01*
X247659Y252908D01*
X248560Y252329D01*
X249418Y251687D01*
X250228Y250985D01*
X250985Y250228D01*
X251687Y249418D01*
X252329Y248560D01*
X252908Y247659D01*
X253422Y246719D01*
X253867Y245744D01*
X254241Y244740D01*
X254543Y243712D01*
X254771Y242665D01*
X254924Y241604D01*
X255000Y240536D01*
X255000Y239464D01*
X605500Y29446D02*
X605421Y28342D01*
X605263Y27246D01*
X605028Y26164D01*
X604716Y25102D01*
X604329Y24065D01*
X603869Y23058D01*
X603339Y22086D01*
X602740Y21154D01*
X602077Y20268D01*
X601352Y19431D01*
X600569Y18648D01*
X599732Y17923D01*
X598846Y17260D01*
X597914Y16661D01*
X596943Y16131D01*
X595935Y15671D01*
X594898Y15284D01*
X593836Y14972D01*
X592754Y14737D01*
X591658Y14579D01*
X590554Y14500D01*
X589446Y14500D01*
X588342Y14579D01*
X587246Y14737D01*
X586164Y14972D01*
X585102Y15284D01*
X584065Y15671D01*
X583058Y16131D01*
X582086Y16661D01*
X581154Y17260D01*
X580268Y17923D01*
X579431Y18648D01*
X578648Y19431D01*
X577923Y20268D01*
X577260Y21154D01*
X576661Y22086D01*
X576131Y23058D01*
X575671Y24065D01*
X575284Y25102D01*
X574972Y26164D01*
X574737Y27246D01*
X574579Y28342D01*
X574500Y29446D01*
X574500Y30554D01*
X574579Y31658D01*
X574737Y32754D01*
X574972Y33836D01*
X575284Y34898D01*
X575671Y35935D01*
X576131Y36943D01*
X576661Y37914D01*
X577260Y38846D01*
X577923Y39732D01*
X578648Y40569D01*
X579431Y41352D01*
X580268Y42077D01*
X581154Y42740D01*
X582086Y43339D01*
X583058Y43869D01*
X584065Y44329D01*
X585102Y44716D01*
X586164Y45028D01*
X587246Y45263D01*
X588342Y45421D01*
X589446Y45500D01*
X590554Y45500D01*
X591658Y45421D01*
X592754Y45263D01*
X593836Y45028D01*
X594898Y44716D01*
X595935Y44329D01*
X596943Y43869D01*
X597914Y43339D01*
X598846Y42740D01*
X599732Y42077D01*
X600569Y41352D01*
X601352Y40569D01*
X602077Y39732D01*
X602740Y38846D01*
X603339Y37914D01*
X603869Y36943D01*
X604329Y35935D01*
X604716Y34898D01*
X605028Y33836D01*
X605263Y32754D01*
X605421Y31658D01*
X605500Y30554D01*
X605500Y29446D01*
X465000Y239464D02*
X464924Y238396D01*
X464771Y237335D01*
X464543Y236288D01*
X464241Y235260D01*
X463867Y234256D01*
X463422Y233281D01*
X462908Y232341D01*
X462329Y231440D01*
X461687Y230582D01*
X460985Y229772D01*
X460228Y229015D01*
X459418Y228313D01*
X458560Y227671D01*
X457659Y227092D01*
X456719Y226578D01*
X455744Y226133D01*
X454740Y225759D01*
X453712Y225457D01*
X452665Y225229D01*
X451604Y225076D01*
X450536Y225000D01*
X449464Y225000D01*
X448396Y225076D01*
X447335Y225229D01*
X446288Y225457D01*
X445260Y225759D01*
X444256Y226133D01*
X443281Y226578D01*
X442341Y227092D01*
X441440Y227671D01*
X440582Y228313D01*
X439772Y229015D01*
X439015Y229772D01*
X438313Y230582D01*
X437671Y231440D01*
X437092Y232341D01*
X436578Y233281D01*
X436133Y234256D01*
X435759Y235260D01*
X435457Y236288D01*
X435229Y237335D01*
X435076Y238396D01*
X435000Y239464D01*
X435000Y240536D01*
X435076Y241604D01*
X435229Y242665D01*
X435457Y243712D01*
X435759Y244740D01*
X436133Y245744D01*
X436578Y246719D01*
X437092Y247659D01*
X437671Y248560D01*
X438313Y249418D01*
X439015Y250228D01*
X439772Y250985D01*
X440582Y251687D01*
X441440Y252329D01*
X442341Y252908D01*
X443281Y253422D01*
X444256Y253867D01*
X445260Y254241D01*
X446288Y254543D01*
X447335Y254771D01*
X448396Y254924D01*
X449464Y255000D01*
X450536Y255000D01*
X451604Y254924D01*
X452665Y254771D01*
X453712Y254543D01*
X454740Y254241D01*
X455744Y253867D01*
X456719Y253422D01*
X457659Y252908D01*
X458560Y252329D01*
X459418Y251687D01*
X460228Y250985D01*
X460985Y250228D01*
X461687Y249418D01*
X462329Y248560D01*
X462908Y247659D01*
X463422Y246719D01*
X463867Y245744D01*
X464241Y244740D01*
X464543Y243712D01*
X464771Y242665D01*
X464924Y241604D01*
X465000Y240536D01*
X465000Y239464D01*
X815500Y29446D02*
X815421Y28342D01*
X815263Y27246D01*
X815028Y26164D01*
X814716Y25102D01*
X814329Y24065D01*
X813869Y23058D01*
X813339Y22086D01*
X812740Y21154D01*
X812077Y20268D01*
X811352Y19431D01*
X810569Y18648D01*
X809732Y17923D01*
X808846Y17260D01*
X807914Y16661D01*
X806943Y16131D01*
X805935Y15671D01*
X804898Y15284D01*
X803836Y14972D01*
X802754Y14737D01*
X801658Y14579D01*
X800554Y14500D01*
X799446Y14500D01*
X798342Y14579D01*
X797246Y14737D01*
X796164Y14972D01*
X795102Y15284D01*
X794065Y15671D01*
X793058Y16131D01*
X792086Y16661D01*
X791154Y17260D01*
X790268Y17923D01*
X789431Y18648D01*
X788648Y19431D01*
X787923Y20268D01*
X787260Y21154D01*
X786661Y22086D01*
X786131Y23058D01*
X785671Y24065D01*
X785284Y25102D01*
X784972Y26164D01*
X784737Y27246D01*
X784579Y28342D01*
X784500Y29446D01*
X784500Y30554D01*
X784579Y31658D01*
X784737Y32754D01*
X784972Y33836D01*
X785284Y34898D01*
X785671Y35935D01*
X786131Y36943D01*
X786661Y37914D01*
X787260Y38846D01*
X787923Y39732D01*
X788648Y40569D01*
X789431Y41352D01*
X790268Y42077D01*
X791154Y42740D01*
X792086Y43339D01*
X793058Y43869D01*
X794065Y44329D01*
X795102Y44716D01*
X796164Y45028D01*
X797246Y45263D01*
X798342Y45421D01*
X799446Y45500D01*
X800554Y45500D01*
X801658Y45421D01*
X802754Y45263D01*
X803836Y45028D01*
X804898Y44716D01*
X805935Y44329D01*
X806943Y43869D01*
X807914Y43339D01*
X808846Y42740D01*
X809732Y42077D01*
X810569Y41352D01*
X811352Y40569D01*
X812077Y39732D01*
X812740Y38846D01*
X813339Y37914D01*
X813869Y36943D01*
X814329Y35935D01*
X814716Y34898D01*
X815028Y33836D01*
X815263Y32754D01*
X815421Y31658D01*
X815500Y30554D01*
X815500Y29446D01*
X675000Y239464D02*
X674924Y238396D01*
X674771Y237335D01*
X674543Y236288D01*
X674241Y235260D01*
X673867Y234256D01*
X673422Y233281D01*
X672908Y232341D01*
X672329Y231440D01*
X671687Y230582D01*
X670985Y229772D01*
X670228Y229015D01*
X669418Y228313D01*
X668560Y227671D01*
X667659Y227092D01*
X666719Y226578D01*
X665744Y226133D01*
X664740Y225759D01*
X663712Y225457D01*
X662665Y225229D01*
X661604Y225076D01*
X660536Y225000D01*
X659464Y225000D01*
X658396Y225076D01*
X657335Y225229D01*
X656288Y225457D01*
X655260Y225759D01*
X654256Y226133D01*
X653281Y226578D01*
X652341Y227092D01*
X651440Y227671D01*
X650582Y228313D01*
X649772Y229015D01*
X649015Y229772D01*
X648313Y230582D01*
X647671Y231440D01*
X647092Y232341D01*
X646578Y233281D01*
X646133Y234256D01*
X645759Y235260D01*
X645457Y236288D01*
X645229Y237335D01*
X645076Y238396D01*
X645000Y239464D01*
X645000Y240536D01*
X645076Y241604D01*
X645229Y242665D01*
X645457Y243712D01*
X645759Y244740D01*
X646133Y245744D01*
X646578Y246719D01*
X647092Y247659D01*
X647671Y248560D01*
X648313Y249418D01*
X649015Y250228D01*
X649772Y250985D01*
X650582Y251687D01*
X651440Y252329D01*
X652341Y252908D01*
X653281Y253422D01*
X654256Y253867D01*
X655260Y254241D01*
X656288Y254543D01*
X657335Y254771D01*
X658396Y254924D01*
X659464Y255000D01*
X660536Y255000D01*
X661604Y254924D01*
X662665Y254771D01*
X663712Y254543D01*
X664740Y254241D01*
X665744Y253867D01*
X666719Y253422D01*
X667659Y252908D01*
X668560Y252329D01*
X669418Y251687D01*
X670228Y250985D01*
X670985Y250228D01*
X671687Y249418D01*
X672329Y248560D01*
X672908Y247659D01*
X673422Y246719D01*
X673867Y245744D01*
X674241Y244740D01*
X674543Y243712D01*
X674771Y242665D01*
X674924Y241604D01*
X675000Y240536D01*
X675000Y239464D01*
X201000Y213168D02*
X200932Y212914D01*
X200800Y212686D01*
X200614Y212500D01*
X200386Y212368D01*
X200132Y212300D01*
X199868Y212300D01*
X199614Y212368D01*
X199386Y212500D01*
X199200Y212686D01*
X199068Y212914D01*
X199000Y213168D01*
X199000Y213432D01*
X199068Y213686D01*
X199200Y213914D01*
X199386Y214100D01*
X199614Y214232D01*
X199868Y214300D01*
X200132Y214300D01*
X200386Y214232D01*
X200614Y214100D01*
X200800Y213914D01*
X200932Y213686D01*
X201000Y213432D01*
X201000Y213168D01*
X201000Y216468D02*
X200932Y216214D01*
X200800Y215986D01*
X200614Y215800D01*
X200386Y215668D01*
X200132Y215600D01*
X199868Y215600D01*
X199614Y215668D01*
X199386Y215800D01*
X199200Y215986D01*
X199068Y216214D01*
X199000Y216468D01*
X199000Y216732D01*
X199068Y216986D01*
X199200Y217214D01*
X199386Y217400D01*
X199614Y217532D01*
X199868Y217600D01*
X200132Y217600D01*
X200386Y217532D01*
X200614Y217400D01*
X200800Y217214D01*
X200932Y216986D01*
X201000Y216732D01*
X201000Y216468D01*
X201000Y219868D02*
X200932Y219614D01*
X200800Y219386D01*
X200614Y219200D01*
X200386Y219068D01*
X200132Y219000D01*
X199868Y219000D01*
X199614Y219068D01*
X199386Y219200D01*
X199200Y219386D01*
X199068Y219614D01*
X199000Y219868D01*
X199000Y220132D01*
X199068Y220386D01*
X199200Y220614D01*
X199386Y220800D01*
X199614Y220932D01*
X199868Y221000D01*
X200132Y221000D01*
X200386Y220932D01*
X200614Y220800D01*
X200800Y220614D01*
X200932Y220386D01*
X201000Y220132D01*
X201000Y219868D01*
X201000Y209868D02*
X200932Y209614D01*
X200800Y209386D01*
X200614Y209200D01*
X200386Y209068D01*
X200132Y209000D01*
X199868Y209000D01*
X199614Y209068D01*
X199386Y209200D01*
X199200Y209386D01*
X199068Y209614D01*
X199000Y209868D01*
X199000Y210132D01*
X199068Y210386D01*
X199200Y210614D01*
X199386Y210800D01*
X199614Y210932D01*
X199868Y211000D01*
X200132Y211000D01*
X200386Y210932D01*
X200614Y210800D01*
X200800Y210614D01*
X200932Y210386D01*
X201000Y210132D01*
X201000Y209868D01*
X211000Y216568D02*
X210932Y216314D01*
X210800Y216086D01*
X210614Y215900D01*
X210386Y215768D01*
X210132Y215700D01*
X209868Y215700D01*
X209614Y215768D01*
X209386Y215900D01*
X209200Y216086D01*
X209068Y216314D01*
X209000Y216568D01*
X209000Y216832D01*
X209068Y217086D01*
X209200Y217314D01*
X209386Y217500D01*
X209614Y217632D01*
X209868Y217700D01*
X210132Y217700D01*
X210386Y217632D01*
X210614Y217500D01*
X210800Y217314D01*
X210932Y217086D01*
X211000Y216832D01*
X211000Y216568D01*
X211000Y213268D02*
X210932Y213014D01*
X210800Y212786D01*
X210614Y212600D01*
X210386Y212468D01*
X210132Y212400D01*
X209868Y212400D01*
X209614Y212468D01*
X209386Y212600D01*
X209200Y212786D01*
X209068Y213014D01*
X209000Y213268D01*
X209000Y213532D01*
X209068Y213786D01*
X209200Y214014D01*
X209386Y214200D01*
X209614Y214332D01*
X209868Y214400D01*
X210132Y214400D01*
X210386Y214332D01*
X210614Y214200D01*
X210800Y214014D01*
X210932Y213786D01*
X211000Y213532D01*
X211000Y213268D01*
X211000Y209868D02*
X210932Y209614D01*
X210800Y209386D01*
X210614Y209200D01*
X210386Y209068D01*
X210132Y209000D01*
X209868Y209000D01*
X209614Y209068D01*
X209386Y209200D01*
X209200Y209386D01*
X209068Y209614D01*
X209000Y209868D01*
X209000Y210132D01*
X209068Y210386D01*
X209200Y210614D01*
X209386Y210800D01*
X209614Y210932D01*
X209868Y211000D01*
X210132Y211000D01*
X210386Y210932D01*
X210614Y210800D01*
X210800Y210614D01*
X210932Y210386D01*
X211000Y210132D01*
X211000Y209868D01*
X211000Y219868D02*
X210932Y219614D01*
X210800Y219386D01*
X210614Y219200D01*
X210386Y219068D01*
X210132Y219000D01*
X209868Y219000D01*
X209614Y219068D01*
X209386Y219200D01*
X209200Y219386D01*
X209068Y219614D01*
X209000Y219868D01*
X209000Y220132D01*
X209068Y220386D01*
X209200Y220614D01*
X209386Y220800D01*
X209614Y220932D01*
X209868Y221000D01*
X210132Y221000D01*
X210386Y220932D01*
X210614Y220800D01*
X210800Y220614D01*
X210932Y220386D01*
X211000Y220132D01*
X211000Y219868D01*
X201000Y183168D02*
X200932Y182914D01*
X200800Y182686D01*
X200614Y182500D01*
X200386Y182368D01*
X200132Y182300D01*
X199868Y182300D01*
X199614Y182368D01*
X199386Y182500D01*
X199200Y182686D01*
X199068Y182914D01*
X199000Y183168D01*
X199000Y183432D01*
X199068Y183686D01*
X199200Y183914D01*
X199386Y184100D01*
X199614Y184232D01*
X199868Y184300D01*
X200132Y184300D01*
X200386Y184232D01*
X200614Y184100D01*
X200800Y183914D01*
X200932Y183686D01*
X201000Y183432D01*
X201000Y183168D01*
X201000Y186468D02*
X200932Y186214D01*
X200800Y185986D01*
X200614Y185800D01*
X200386Y185668D01*
X200132Y185600D01*
X199868Y185600D01*
X199614Y185668D01*
X199386Y185800D01*
X199200Y185986D01*
X199068Y186214D01*
X199000Y186468D01*
X199000Y186732D01*
X199068Y186986D01*
X199200Y187214D01*
X199386Y187400D01*
X199614Y187532D01*
X199868Y187600D01*
X200132Y187600D01*
X200386Y187532D01*
X200614Y187400D01*
X200800Y187214D01*
X200932Y186986D01*
X201000Y186732D01*
X201000Y186468D01*
X201000Y189868D02*
X200932Y189614D01*
X200800Y189386D01*
X200614Y189200D01*
X200386Y189068D01*
X200132Y189000D01*
X199868Y189000D01*
X199614Y189068D01*
X199386Y189200D01*
X199200Y189386D01*
X199068Y189614D01*
X199000Y189868D01*
X199000Y190132D01*
X199068Y190386D01*
X199200Y190614D01*
X199386Y190800D01*
X199614Y190932D01*
X199868Y191000D01*
X200132Y191000D01*
X200386Y190932D01*
X200614Y190800D01*
X200800Y190614D01*
X200932Y190386D01*
X201000Y190132D01*
X201000Y189868D01*
X201000Y179868D02*
X200932Y179614D01*
X200800Y179386D01*
X200614Y179200D01*
X200386Y179068D01*
X200132Y179000D01*
X199868Y179000D01*
X199614Y179068D01*
X199386Y179200D01*
X199200Y179386D01*
X199068Y179614D01*
X199000Y179868D01*
X199000Y180132D01*
X199068Y180386D01*
X199200Y180614D01*
X199386Y180800D01*
X199614Y180932D01*
X199868Y181000D01*
X200132Y181000D01*
X200386Y180932D01*
X200614Y180800D01*
X200800Y180614D01*
X200932Y180386D01*
X201000Y180132D01*
X201000Y179868D01*
X211000Y186568D02*
X210932Y186314D01*
X210800Y186086D01*
X210614Y185900D01*
X210386Y185768D01*
X210132Y185700D01*
X209868Y185700D01*
X209614Y185768D01*
X209386Y185900D01*
X209200Y186086D01*
X209068Y186314D01*
X209000Y186568D01*
X209000Y186832D01*
X209068Y187086D01*
X209200Y187314D01*
X209386Y187500D01*
X209614Y187632D01*
X209868Y187700D01*
X210132Y187700D01*
X210386Y187632D01*
X210614Y187500D01*
X210800Y187314D01*
X210932Y187086D01*
X211000Y186832D01*
X211000Y186568D01*
X211000Y183268D02*
X210932Y183014D01*
X210800Y182786D01*
X210614Y182600D01*
X210386Y182468D01*
X210132Y182400D01*
X209868Y182400D01*
X209614Y182468D01*
X209386Y182600D01*
X209200Y182786D01*
X209068Y183014D01*
X209000Y183268D01*
X209000Y183532D01*
X209068Y183786D01*
X209200Y184014D01*
X209386Y184200D01*
X209614Y184332D01*
X209868Y184400D01*
X210132Y184400D01*
X210386Y184332D01*
X210614Y184200D01*
X210800Y184014D01*
X210932Y183786D01*
X211000Y183532D01*
X211000Y183268D01*
X211000Y179868D02*
X210932Y179614D01*
X210800Y179386D01*
X210614Y179200D01*
X210386Y179068D01*
X210132Y179000D01*
X209868Y179000D01*
X209614Y179068D01*
X209386Y179200D01*
X209200Y179386D01*
X209068Y179614D01*
X209000Y179868D01*
X209000Y180132D01*
X209068Y180386D01*
X209200Y180614D01*
X209386Y180800D01*
X209614Y180932D01*
X209868Y181000D01*
X210132Y181000D01*
X210386Y180932D01*
X210614Y180800D01*
X210800Y180614D01*
X210932Y180386D01*
X211000Y180132D01*
X211000Y179868D01*
X211000Y189868D02*
X210932Y189614D01*
X210800Y189386D01*
X210614Y189200D01*
X210386Y189068D01*
X210132Y189000D01*
X209868Y189000D01*
X209614Y189068D01*
X209386Y189200D01*
X209200Y189386D01*
X209068Y189614D01*
X209000Y189868D01*
X209000Y190132D01*
X209068Y190386D01*
X209200Y190614D01*
X209386Y190800D01*
X209614Y190932D01*
X209868Y191000D01*
X210132Y191000D01*
X210386Y190932D01*
X210614Y190800D01*
X210800Y190614D01*
X210932Y190386D01*
X211000Y190132D01*
X211000Y189868D01*
X201000Y198168D02*
X200932Y197914D01*
X200800Y197686D01*
X200614Y197500D01*
X200386Y197368D01*
X200132Y197300D01*
X199868Y197300D01*
X199614Y197368D01*
X199386Y197500D01*
X199200Y197686D01*
X199068Y197914D01*
X199000Y198168D01*
X199000Y198432D01*
X199068Y198686D01*
X199200Y198914D01*
X199386Y199100D01*
X199614Y199232D01*
X199868Y199300D01*
X200132Y199300D01*
X200386Y199232D01*
X200614Y199100D01*
X200800Y198914D01*
X200932Y198686D01*
X201000Y198432D01*
X201000Y198168D01*
X201000Y201468D02*
X200932Y201214D01*
X200800Y200986D01*
X200614Y200800D01*
X200386Y200668D01*
X200132Y200600D01*
X199868Y200600D01*
X199614Y200668D01*
X199386Y200800D01*
X199200Y200986D01*
X199068Y201214D01*
X199000Y201468D01*
X199000Y201732D01*
X199068Y201986D01*
X199200Y202214D01*
X199386Y202400D01*
X199614Y202532D01*
X199868Y202600D01*
X200132Y202600D01*
X200386Y202532D01*
X200614Y202400D01*
X200800Y202214D01*
X200932Y201986D01*
X201000Y201732D01*
X201000Y201468D01*
X201000Y204868D02*
X200932Y204614D01*
X200800Y204386D01*
X200614Y204200D01*
X200386Y204068D01*
X200132Y204000D01*
X199868Y204000D01*
X199614Y204068D01*
X199386Y204200D01*
X199200Y204386D01*
X199068Y204614D01*
X199000Y204868D01*
X199000Y205132D01*
X199068Y205386D01*
X199200Y205614D01*
X199386Y205800D01*
X199614Y205932D01*
X199868Y206000D01*
X200132Y206000D01*
X200386Y205932D01*
X200614Y205800D01*
X200800Y205614D01*
X200932Y205386D01*
X201000Y205132D01*
X201000Y204868D01*
X201000Y194868D02*
X200932Y194614D01*
X200800Y194386D01*
X200614Y194200D01*
X200386Y194068D01*
X200132Y194000D01*
X199868Y194000D01*
X199614Y194068D01*
X199386Y194200D01*
X199200Y194386D01*
X199068Y194614D01*
X199000Y194868D01*
X199000Y195132D01*
X199068Y195386D01*
X199200Y195614D01*
X199386Y195800D01*
X199614Y195932D01*
X199868Y196000D01*
X200132Y196000D01*
X200386Y195932D01*
X200614Y195800D01*
X200800Y195614D01*
X200932Y195386D01*
X201000Y195132D01*
X201000Y194868D01*
X211000Y201568D02*
X210932Y201314D01*
X210800Y201086D01*
X210614Y200900D01*
X210386Y200768D01*
X210132Y200700D01*
X209868Y200700D01*
X209614Y200768D01*
X209386Y200900D01*
X209200Y201086D01*
X209068Y201314D01*
X209000Y201568D01*
X209000Y201832D01*
X209068Y202086D01*
X209200Y202314D01*
X209386Y202500D01*
X209614Y202632D01*
X209868Y202700D01*
X210132Y202700D01*
X210386Y202632D01*
X210614Y202500D01*
X210800Y202314D01*
X210932Y202086D01*
X211000Y201832D01*
X211000Y201568D01*
X211000Y198268D02*
X210932Y198014D01*
X210800Y197786D01*
X210614Y197600D01*
X210386Y197468D01*
X210132Y197400D01*
X209868Y197400D01*
X209614Y197468D01*
X209386Y197600D01*
X209200Y197786D01*
X209068Y198014D01*
X209000Y198268D01*
X209000Y198532D01*
X209068Y198786D01*
X209200Y199014D01*
X209386Y199200D01*
X209614Y199332D01*
X209868Y199400D01*
X210132Y199400D01*
X210386Y199332D01*
X210614Y199200D01*
X210800Y199014D01*
X210932Y198786D01*
X211000Y198532D01*
X211000Y198268D01*
X211000Y194868D02*
X210932Y194614D01*
X210800Y194386D01*
X210614Y194200D01*
X210386Y194068D01*
X210132Y194000D01*
X209868Y194000D01*
X209614Y194068D01*
X209386Y194200D01*
X209200Y194386D01*
X209068Y194614D01*
X209000Y194868D01*
X209000Y195132D01*
X209068Y195386D01*
X209200Y195614D01*
X209386Y195800D01*
X209614Y195932D01*
X209868Y196000D01*
X210132Y196000D01*
X210386Y195932D01*
X210614Y195800D01*
X210800Y195614D01*
X210932Y195386D01*
X211000Y195132D01*
X211000Y194868D01*
X211000Y204868D02*
X210932Y204614D01*
X210800Y204386D01*
X210614Y204200D01*
X210386Y204068D01*
X210132Y204000D01*
X209868Y204000D01*
X209614Y204068D01*
X209386Y204200D01*
X209200Y204386D01*
X209068Y204614D01*
X209000Y204868D01*
X209000Y205132D01*
X209068Y205386D01*
X209200Y205614D01*
X209386Y205800D01*
X209614Y205932D01*
X209868Y206000D01*
X210132Y206000D01*
X210386Y205932D01*
X210614Y205800D01*
X210800Y205614D01*
X210932Y205386D01*
X211000Y205132D01*
X211000Y204868D01*
X201000Y143168D02*
X200932Y142914D01*
X200800Y142686D01*
X200614Y142500D01*
X200386Y142368D01*
X200132Y142300D01*
X199868Y142300D01*
X199614Y142368D01*
X199386Y142500D01*
X199200Y142686D01*
X199068Y142914D01*
X199000Y143168D01*
X199000Y143432D01*
X199068Y143686D01*
X199200Y143914D01*
X199386Y144100D01*
X199614Y144232D01*
X199868Y144300D01*
X200132Y144300D01*
X200386Y144232D01*
X200614Y144100D01*
X200800Y143914D01*
X200932Y143686D01*
X201000Y143432D01*
X201000Y143168D01*
X201000Y146468D02*
X200932Y146214D01*
X200800Y145986D01*
X200614Y145800D01*
X200386Y145668D01*
X200132Y145600D01*
X199868Y145600D01*
X199614Y145668D01*
X199386Y145800D01*
X199200Y145986D01*
X199068Y146214D01*
X199000Y146468D01*
X199000Y146732D01*
X199068Y146986D01*
X199200Y147214D01*
X199386Y147400D01*
X199614Y147532D01*
X199868Y147600D01*
X200132Y147600D01*
X200386Y147532D01*
X200614Y147400D01*
X200800Y147214D01*
X200932Y146986D01*
X201000Y146732D01*
X201000Y146468D01*
X201000Y149868D02*
X200932Y149614D01*
X200800Y149386D01*
X200614Y149200D01*
X200386Y149068D01*
X200132Y149000D01*
X199868Y149000D01*
X199614Y149068D01*
X199386Y149200D01*
X199200Y149386D01*
X199068Y149614D01*
X199000Y149868D01*
X199000Y150132D01*
X199068Y150386D01*
X199200Y150614D01*
X199386Y150800D01*
X199614Y150932D01*
X199868Y151000D01*
X200132Y151000D01*
X200386Y150932D01*
X200614Y150800D01*
X200800Y150614D01*
X200932Y150386D01*
X201000Y150132D01*
X201000Y149868D01*
X201000Y139868D02*
X200932Y139614D01*
X200800Y139386D01*
X200614Y139200D01*
X200386Y139068D01*
X200132Y139000D01*
X199868Y139000D01*
X199614Y139068D01*
X199386Y139200D01*
X199200Y139386D01*
X199068Y139614D01*
X199000Y139868D01*
X199000Y140132D01*
X199068Y140386D01*
X199200Y140614D01*
X199386Y140800D01*
X199614Y140932D01*
X199868Y141000D01*
X200132Y141000D01*
X200386Y140932D01*
X200614Y140800D01*
X200800Y140614D01*
X200932Y140386D01*
X201000Y140132D01*
X201000Y139868D01*
X211000Y146568D02*
X210932Y146314D01*
X210800Y146086D01*
X210614Y145900D01*
X210386Y145768D01*
X210132Y145700D01*
X209868Y145700D01*
X209614Y145768D01*
X209386Y145900D01*
X209200Y146086D01*
X209068Y146314D01*
X209000Y146568D01*
X209000Y146832D01*
X209068Y147086D01*
X209200Y147314D01*
X209386Y147500D01*
X209614Y147632D01*
X209868Y147700D01*
X210132Y147700D01*
X210386Y147632D01*
X210614Y147500D01*
X210800Y147314D01*
X210932Y147086D01*
X211000Y146832D01*
X211000Y146568D01*
X211000Y143268D02*
X210932Y143014D01*
X210800Y142786D01*
X210614Y142600D01*
X210386Y142468D01*
X210132Y142400D01*
X209868Y142400D01*
X209614Y142468D01*
X209386Y142600D01*
X209200Y142786D01*
X209068Y143014D01*
X209000Y143268D01*
X209000Y143532D01*
X209068Y143786D01*
X209200Y144014D01*
X209386Y144200D01*
X209614Y144332D01*
X209868Y144400D01*
X210132Y144400D01*
X210386Y144332D01*
X210614Y144200D01*
X210800Y144014D01*
X210932Y143786D01*
X211000Y143532D01*
X211000Y143268D01*
X211000Y139868D02*
X210932Y139614D01*
X210800Y139386D01*
X210614Y139200D01*
X210386Y139068D01*
X210132Y139000D01*
X209868Y139000D01*
X209614Y139068D01*
X209386Y139200D01*
X209200Y139386D01*
X209068Y139614D01*
X209000Y139868D01*
X209000Y140132D01*
X209068Y140386D01*
X209200Y140614D01*
X209386Y140800D01*
X209614Y140932D01*
X209868Y141000D01*
X210132Y141000D01*
X210386Y140932D01*
X210614Y140800D01*
X210800Y140614D01*
X210932Y140386D01*
X211000Y140132D01*
X211000Y139868D01*
X211000Y149868D02*
X210932Y149614D01*
X210800Y149386D01*
X210614Y149200D01*
X210386Y149068D01*
X210132Y149000D01*
X209868Y149000D01*
X209614Y149068D01*
X209386Y149200D01*
X209200Y149386D01*
X209068Y149614D01*
X209000Y149868D01*
X209000Y150132D01*
X209068Y150386D01*
X209200Y150614D01*
X209386Y150800D01*
X209614Y150932D01*
X209868Y151000D01*
X210132Y151000D01*
X210386Y150932D01*
X210614Y150800D01*
X210800Y150614D01*
X210932Y150386D01*
X211000Y150132D01*
X211000Y149868D01*
X201000Y123168D02*
X200932Y122914D01*
X200800Y122686D01*
X200614Y122500D01*
X200386Y122368D01*
X200132Y122300D01*
X199868Y122300D01*
X199614Y122368D01*
X199386Y122500D01*
X199200Y122686D01*
X199068Y122914D01*
X199000Y123168D01*
X199000Y123432D01*
X199068Y123686D01*
X199200Y123914D01*
X199386Y124100D01*
X199614Y124232D01*
X199868Y124300D01*
X200132Y124300D01*
X200386Y124232D01*
X200614Y124100D01*
X200800Y123914D01*
X200932Y123686D01*
X201000Y123432D01*
X201000Y123168D01*
X201000Y126468D02*
X200932Y126214D01*
X200800Y125986D01*
X200614Y125800D01*
X200386Y125668D01*
X200132Y125600D01*
X199868Y125600D01*
X199614Y125668D01*
X199386Y125800D01*
X199200Y125986D01*
X199068Y126214D01*
X199000Y126468D01*
X199000Y126732D01*
X199068Y126986D01*
X199200Y127214D01*
X199386Y127400D01*
X199614Y127532D01*
X199868Y127600D01*
X200132Y127600D01*
X200386Y127532D01*
X200614Y127400D01*
X200800Y127214D01*
X200932Y126986D01*
X201000Y126732D01*
X201000Y126468D01*
X201000Y129868D02*
X200932Y129614D01*
X200800Y129386D01*
X200614Y129200D01*
X200386Y129068D01*
X200132Y129000D01*
X199868Y129000D01*
X199614Y129068D01*
X199386Y129200D01*
X199200Y129386D01*
X199068Y129614D01*
X199000Y129868D01*
X199000Y130132D01*
X199068Y130386D01*
X199200Y130614D01*
X199386Y130800D01*
X199614Y130932D01*
X199868Y131000D01*
X200132Y131000D01*
X200386Y130932D01*
X200614Y130800D01*
X200800Y130614D01*
X200932Y130386D01*
X201000Y130132D01*
X201000Y129868D01*
X201000Y119868D02*
X200932Y119614D01*
X200800Y119386D01*
X200614Y119200D01*
X200386Y119068D01*
X200132Y119000D01*
X199868Y119000D01*
X199614Y119068D01*
X199386Y119200D01*
X199200Y119386D01*
X199068Y119614D01*
X199000Y119868D01*
X199000Y120132D01*
X199068Y120386D01*
X199200Y120614D01*
X199386Y120800D01*
X199614Y120932D01*
X199868Y121000D01*
X200132Y121000D01*
X200386Y120932D01*
X200614Y120800D01*
X200800Y120614D01*
X200932Y120386D01*
X201000Y120132D01*
X201000Y119868D01*
X211000Y126568D02*
X210932Y126314D01*
X210800Y126086D01*
X210614Y125900D01*
X210386Y125768D01*
X210132Y125700D01*
X209868Y125700D01*
X209614Y125768D01*
X209386Y125900D01*
X209200Y126086D01*
X209068Y126314D01*
X209000Y126568D01*
X209000Y126832D01*
X209068Y127086D01*
X209200Y127314D01*
X209386Y127500D01*
X209614Y127632D01*
X209868Y127700D01*
X210132Y127700D01*
X210386Y127632D01*
X210614Y127500D01*
X210800Y127314D01*
X210932Y127086D01*
X211000Y126832D01*
X211000Y126568D01*
X211000Y123268D02*
X210932Y123014D01*
X210800Y122786D01*
X210614Y122600D01*
X210386Y122468D01*
X210132Y122400D01*
X209868Y122400D01*
X209614Y122468D01*
X209386Y122600D01*
X209200Y122786D01*
X209068Y123014D01*
X209000Y123268D01*
X209000Y123532D01*
X209068Y123786D01*
X209200Y124014D01*
X209386Y124200D01*
X209614Y124332D01*
X209868Y124400D01*
X210132Y124400D01*
X210386Y124332D01*
X210614Y124200D01*
X210800Y124014D01*
X210932Y123786D01*
X211000Y123532D01*
X211000Y123268D01*
X211000Y119868D02*
X210932Y119614D01*
X210800Y119386D01*
X210614Y119200D01*
X210386Y119068D01*
X210132Y119000D01*
X209868Y119000D01*
X209614Y119068D01*
X209386Y119200D01*
X209200Y119386D01*
X209068Y119614D01*
X209000Y119868D01*
X209000Y120132D01*
X209068Y120386D01*
X209200Y120614D01*
X209386Y120800D01*
X209614Y120932D01*
X209868Y121000D01*
X210132Y121000D01*
X210386Y120932D01*
X210614Y120800D01*
X210800Y120614D01*
X210932Y120386D01*
X211000Y120132D01*
X211000Y119868D01*
X211000Y129868D02*
X210932Y129614D01*
X210800Y129386D01*
X210614Y129200D01*
X210386Y129068D01*
X210132Y129000D01*
X209868Y129000D01*
X209614Y129068D01*
X209386Y129200D01*
X209200Y129386D01*
X209068Y129614D01*
X209000Y129868D01*
X209000Y130132D01*
X209068Y130386D01*
X209200Y130614D01*
X209386Y130800D01*
X209614Y130932D01*
X209868Y131000D01*
X210132Y131000D01*
X210386Y130932D01*
X210614Y130800D01*
X210800Y130614D01*
X210932Y130386D01*
X211000Y130132D01*
X211000Y129868D01*
X201000Y83168D02*
X200932Y82914D01*
X200800Y82686D01*
X200614Y82500D01*
X200386Y82368D01*
X200132Y82300D01*
X199868Y82300D01*
X199614Y82368D01*
X199386Y82500D01*
X199200Y82686D01*
X199068Y82914D01*
X199000Y83168D01*
X199000Y83432D01*
X199068Y83686D01*
X199200Y83914D01*
X199386Y84100D01*
X199614Y84232D01*
X199868Y84300D01*
X200132Y84300D01*
X200386Y84232D01*
X200614Y84100D01*
X200800Y83914D01*
X200932Y83686D01*
X201000Y83432D01*
X201000Y83168D01*
X201000Y86468D02*
X200932Y86214D01*
X200800Y85986D01*
X200614Y85800D01*
X200386Y85668D01*
X200132Y85600D01*
X199868Y85600D01*
X199614Y85668D01*
X199386Y85800D01*
X199200Y85986D01*
X199068Y86214D01*
X199000Y86468D01*
X199000Y86732D01*
X199068Y86986D01*
X199200Y87214D01*
X199386Y87400D01*
X199614Y87532D01*
X199868Y87600D01*
X200132Y87600D01*
X200386Y87532D01*
X200614Y87400D01*
X200800Y87214D01*
X200932Y86986D01*
X201000Y86732D01*
X201000Y86468D01*
X201000Y89868D02*
X200932Y89614D01*
X200800Y89386D01*
X200614Y89200D01*
X200386Y89068D01*
X200132Y89000D01*
X199868Y89000D01*
X199614Y89068D01*
X199386Y89200D01*
X199200Y89386D01*
X199068Y89614D01*
X199000Y89868D01*
X199000Y90132D01*
X199068Y90386D01*
X199200Y90614D01*
X199386Y90800D01*
X199614Y90932D01*
X199868Y91000D01*
X200132Y91000D01*
X200386Y90932D01*
X200614Y90800D01*
X200800Y90614D01*
X200932Y90386D01*
X201000Y90132D01*
X201000Y89868D01*
X201000Y79868D02*
X200932Y79614D01*
X200800Y79386D01*
X200614Y79200D01*
X200386Y79068D01*
X200132Y79000D01*
X199868Y79000D01*
X199614Y79068D01*
X199386Y79200D01*
X199200Y79386D01*
X199068Y79614D01*
X199000Y79868D01*
X199000Y80132D01*
X199068Y80386D01*
X199200Y80614D01*
X199386Y80800D01*
X199614Y80932D01*
X199868Y81000D01*
X200132Y81000D01*
X200386Y80932D01*
X200614Y80800D01*
X200800Y80614D01*
X200932Y80386D01*
X201000Y80132D01*
X201000Y79868D01*
X211000Y86568D02*
X210932Y86314D01*
X210800Y86086D01*
X210614Y85900D01*
X210386Y85768D01*
X210132Y85700D01*
X209868Y85700D01*
X209614Y85768D01*
X209386Y85900D01*
X209200Y86086D01*
X209068Y86314D01*
X209000Y86568D01*
X209000Y86832D01*
X209068Y87086D01*
X209200Y87314D01*
X209386Y87500D01*
X209614Y87632D01*
X209868Y87700D01*
X210132Y87700D01*
X210386Y87632D01*
X210614Y87500D01*
X210800Y87314D01*
X210932Y87086D01*
X211000Y86832D01*
X211000Y86568D01*
X211000Y83268D02*
X210932Y83014D01*
X210800Y82786D01*
X210614Y82600D01*
X210386Y82468D01*
X210132Y82400D01*
X209868Y82400D01*
X209614Y82468D01*
X209386Y82600D01*
X209200Y82786D01*
X209068Y83014D01*
X209000Y83268D01*
X209000Y83532D01*
X209068Y83786D01*
X209200Y84014D01*
X209386Y84200D01*
X209614Y84332D01*
X209868Y84400D01*
X210132Y84400D01*
X210386Y84332D01*
X210614Y84200D01*
X210800Y84014D01*
X210932Y83786D01*
X211000Y83532D01*
X211000Y83268D01*
X211000Y79868D02*
X210932Y79614D01*
X210800Y79386D01*
X210614Y79200D01*
X210386Y79068D01*
X210132Y79000D01*
X209868Y79000D01*
X209614Y79068D01*
X209386Y79200D01*
X209200Y79386D01*
X209068Y79614D01*
X209000Y79868D01*
X209000Y80132D01*
X209068Y80386D01*
X209200Y80614D01*
X209386Y80800D01*
X209614Y80932D01*
X209868Y81000D01*
X210132Y81000D01*
X210386Y80932D01*
X210614Y80800D01*
X210800Y80614D01*
X210932Y80386D01*
X211000Y80132D01*
X211000Y79868D01*
X211000Y89868D02*
X210932Y89614D01*
X210800Y89386D01*
X210614Y89200D01*
X210386Y89068D01*
X210132Y89000D01*
X209868Y89000D01*
X209614Y89068D01*
X209386Y89200D01*
X209200Y89386D01*
X209068Y89614D01*
X209000Y89868D01*
X209000Y90132D01*
X209068Y90386D01*
X209200Y90614D01*
X209386Y90800D01*
X209614Y90932D01*
X209868Y91000D01*
X210132Y91000D01*
X210386Y90932D01*
X210614Y90800D01*
X210800Y90614D01*
X210932Y90386D01*
X211000Y90132D01*
X211000Y89868D01*
X201000Y53168D02*
X200932Y52914D01*
X200800Y52686D01*
X200614Y52500D01*
X200386Y52368D01*
X200132Y52300D01*
X199868Y52300D01*
X199614Y52368D01*
X199386Y52500D01*
X199200Y52686D01*
X199068Y52914D01*
X199000Y53168D01*
X199000Y53432D01*
X199068Y53686D01*
X199200Y53914D01*
X199386Y54100D01*
X199614Y54232D01*
X199868Y54300D01*
X200132Y54300D01*
X200386Y54232D01*
X200614Y54100D01*
X200800Y53914D01*
X200932Y53686D01*
X201000Y53432D01*
X201000Y53168D01*
X201000Y56468D02*
X200932Y56214D01*
X200800Y55986D01*
X200614Y55800D01*
X200386Y55668D01*
X200132Y55600D01*
X199868Y55600D01*
X199614Y55668D01*
X199386Y55800D01*
X199200Y55986D01*
X199068Y56214D01*
X199000Y56468D01*
X199000Y56732D01*
X199068Y56986D01*
X199200Y57214D01*
X199386Y57400D01*
X199614Y57532D01*
X199868Y57600D01*
X200132Y57600D01*
X200386Y57532D01*
X200614Y57400D01*
X200800Y57214D01*
X200932Y56986D01*
X201000Y56732D01*
X201000Y56468D01*
X201000Y59868D02*
X200932Y59614D01*
X200800Y59386D01*
X200614Y59200D01*
X200386Y59068D01*
X200132Y59000D01*
X199868Y59000D01*
X199614Y59068D01*
X199386Y59200D01*
X199200Y59386D01*
X199068Y59614D01*
X199000Y59868D01*
X199000Y60132D01*
X199068Y60386D01*
X199200Y60614D01*
X199386Y60800D01*
X199614Y60932D01*
X199868Y61000D01*
X200132Y61000D01*
X200386Y60932D01*
X200614Y60800D01*
X200800Y60614D01*
X200932Y60386D01*
X201000Y60132D01*
X201000Y59868D01*
X201000Y49868D02*
X200932Y49614D01*
X200800Y49386D01*
X200614Y49200D01*
X200386Y49068D01*
X200132Y49000D01*
X199868Y49000D01*
X199614Y49068D01*
X199386Y49200D01*
X199200Y49386D01*
X199068Y49614D01*
X199000Y49868D01*
X199000Y50132D01*
X199068Y50386D01*
X199200Y50614D01*
X199386Y50800D01*
X199614Y50932D01*
X199868Y51000D01*
X200132Y51000D01*
X200386Y50932D01*
X200614Y50800D01*
X200800Y50614D01*
X200932Y50386D01*
X201000Y50132D01*
X201000Y49868D01*
X211000Y56568D02*
X210932Y56314D01*
X210800Y56086D01*
X210614Y55900D01*
X210386Y55768D01*
X210132Y55700D01*
X209868Y55700D01*
X209614Y55768D01*
X209386Y55900D01*
X209200Y56086D01*
X209068Y56314D01*
X209000Y56568D01*
X209000Y56832D01*
X209068Y57086D01*
X209200Y57314D01*
X209386Y57500D01*
X209614Y57632D01*
X209868Y57700D01*
X210132Y57700D01*
X210386Y57632D01*
X210614Y57500D01*
X210800Y57314D01*
X210932Y57086D01*
X211000Y56832D01*
X211000Y56568D01*
X211000Y53268D02*
X210932Y53014D01*
X210800Y52786D01*
X210614Y52600D01*
X210386Y52468D01*
X210132Y52400D01*
X209868Y52400D01*
X209614Y52468D01*
X209386Y52600D01*
X209200Y52786D01*
X209068Y53014D01*
X209000Y53268D01*
X209000Y53532D01*
X209068Y53786D01*
X209200Y54014D01*
X209386Y54200D01*
X209614Y54332D01*
X209868Y54400D01*
X210132Y54400D01*
X210386Y54332D01*
X210614Y54200D01*
X210800Y54014D01*
X210932Y53786D01*
X211000Y53532D01*
X211000Y53268D01*
X211000Y49868D02*
X210932Y49614D01*
X210800Y49386D01*
X210614Y49200D01*
X210386Y49068D01*
X210132Y49000D01*
X209868Y49000D01*
X209614Y49068D01*
X209386Y49200D01*
X209200Y49386D01*
X209068Y49614D01*
X209000Y49868D01*
X209000Y50132D01*
X209068Y50386D01*
X209200Y50614D01*
X209386Y50800D01*
X209614Y50932D01*
X209868Y51000D01*
X210132Y51000D01*
X210386Y50932D01*
X210614Y50800D01*
X210800Y50614D01*
X210932Y50386D01*
X211000Y50132D01*
X211000Y49868D01*
X211000Y59868D02*
X210932Y59614D01*
X210800Y59386D01*
X210614Y59200D01*
X210386Y59068D01*
X210132Y59000D01*
X209868Y59000D01*
X209614Y59068D01*
X209386Y59200D01*
X209200Y59386D01*
X209068Y59614D01*
X209000Y59868D01*
X209000Y60132D01*
X209068Y60386D01*
X209200Y60614D01*
X209386Y60800D01*
X209614Y60932D01*
X209868Y61000D01*
X210132Y61000D01*
X210386Y60932D01*
X210614Y60800D01*
X210800Y60614D01*
X210932Y60386D01*
X211000Y60132D01*
X211000Y59868D01*
X201000Y68168D02*
X200932Y67914D01*
X200800Y67686D01*
X200614Y67500D01*
X200386Y67368D01*
X200132Y67300D01*
X199868Y67300D01*
X199614Y67368D01*
X199386Y67500D01*
X199200Y67686D01*
X199068Y67914D01*
X199000Y68168D01*
X199000Y68432D01*
X199068Y68686D01*
X199200Y68914D01*
X199386Y69100D01*
X199614Y69232D01*
X199868Y69300D01*
X200132Y69300D01*
X200386Y69232D01*
X200614Y69100D01*
X200800Y68914D01*
X200932Y68686D01*
X201000Y68432D01*
X201000Y68168D01*
X201000Y71468D02*
X200932Y71214D01*
X200800Y70986D01*
X200614Y70800D01*
X200386Y70668D01*
X200132Y70600D01*
X199868Y70600D01*
X199614Y70668D01*
X199386Y70800D01*
X199200Y70986D01*
X199068Y71214D01*
X199000Y71468D01*
X199000Y71732D01*
X199068Y71986D01*
X199200Y72214D01*
X199386Y72400D01*
X199614Y72532D01*
X199868Y72600D01*
X200132Y72600D01*
X200386Y72532D01*
X200614Y72400D01*
X200800Y72214D01*
X200932Y71986D01*
X201000Y71732D01*
X201000Y71468D01*
X201000Y74868D02*
X200932Y74614D01*
X200800Y74386D01*
X200614Y74200D01*
X200386Y74068D01*
X200132Y74000D01*
X199868Y74000D01*
X199614Y74068D01*
X199386Y74200D01*
X199200Y74386D01*
X199068Y74614D01*
X199000Y74868D01*
X199000Y75132D01*
X199068Y75386D01*
X199200Y75614D01*
X199386Y75800D01*
X199614Y75932D01*
X199868Y76000D01*
X200132Y76000D01*
X200386Y75932D01*
X200614Y75800D01*
X200800Y75614D01*
X200932Y75386D01*
X201000Y75132D01*
X201000Y74868D01*
X201000Y64868D02*
X200932Y64614D01*
X200800Y64386D01*
X200614Y64200D01*
X200386Y64068D01*
X200132Y64000D01*
X199868Y64000D01*
X199614Y64068D01*
X199386Y64200D01*
X199200Y64386D01*
X199068Y64614D01*
X199000Y64868D01*
X199000Y65132D01*
X199068Y65386D01*
X199200Y65614D01*
X199386Y65800D01*
X199614Y65932D01*
X199868Y66000D01*
X200132Y66000D01*
X200386Y65932D01*
X200614Y65800D01*
X200800Y65614D01*
X200932Y65386D01*
X201000Y65132D01*
X201000Y64868D01*
X211000Y71568D02*
X210932Y71314D01*
X210800Y71086D01*
X210614Y70900D01*
X210386Y70768D01*
X210132Y70700D01*
X209868Y70700D01*
X209614Y70768D01*
X209386Y70900D01*
X209200Y71086D01*
X209068Y71314D01*
X209000Y71568D01*
X209000Y71832D01*
X209068Y72086D01*
X209200Y72314D01*
X209386Y72500D01*
X209614Y72632D01*
X209868Y72700D01*
X210132Y72700D01*
X210386Y72632D01*
X210614Y72500D01*
X210800Y72314D01*
X210932Y72086D01*
X211000Y71832D01*
X211000Y71568D01*
X211000Y68268D02*
X210932Y68014D01*
X210800Y67786D01*
X210614Y67600D01*
X210386Y67468D01*
X210132Y67400D01*
X209868Y67400D01*
X209614Y67468D01*
X209386Y67600D01*
X209200Y67786D01*
X209068Y68014D01*
X209000Y68268D01*
X209000Y68532D01*
X209068Y68786D01*
X209200Y69014D01*
X209386Y69200D01*
X209614Y69332D01*
X209868Y69400D01*
X210132Y69400D01*
X210386Y69332D01*
X210614Y69200D01*
X210800Y69014D01*
X210932Y68786D01*
X211000Y68532D01*
X211000Y68268D01*
X211000Y64868D02*
X210932Y64614D01*
X210800Y64386D01*
X210614Y64200D01*
X210386Y64068D01*
X210132Y64000D01*
X209868Y64000D01*
X209614Y64068D01*
X209386Y64200D01*
X209200Y64386D01*
X209068Y64614D01*
X209000Y64868D01*
X209000Y65132D01*
X209068Y65386D01*
X209200Y65614D01*
X209386Y65800D01*
X209614Y65932D01*
X209868Y66000D01*
X210132Y66000D01*
X210386Y65932D01*
X210614Y65800D01*
X210800Y65614D01*
X210932Y65386D01*
X211000Y65132D01*
X211000Y64868D01*
X211000Y74868D02*
X210932Y74614D01*
X210800Y74386D01*
X210614Y74200D01*
X210386Y74068D01*
X210132Y74000D01*
X209868Y74000D01*
X209614Y74068D01*
X209386Y74200D01*
X209200Y74386D01*
X209068Y74614D01*
X209000Y74868D01*
X209000Y75132D01*
X209068Y75386D01*
X209200Y75614D01*
X209386Y75800D01*
X209614Y75932D01*
X209868Y76000D01*
X210132Y76000D01*
X210386Y75932D01*
X210614Y75800D01*
X210800Y75614D01*
X210932Y75386D01*
X211000Y75132D01*
X211000Y74868D01*
X201000Y134868D02*
X200932Y134614D01*
X200800Y134386D01*
X200614Y134200D01*
X200386Y134068D01*
X200132Y134000D01*
X199868Y134000D01*
X199614Y134068D01*
X199386Y134200D01*
X199200Y134386D01*
X199068Y134614D01*
X199000Y134868D01*
X199000Y135132D01*
X199068Y135386D01*
X199200Y135614D01*
X199386Y135800D01*
X199614Y135932D01*
X199868Y136000D01*
X200132Y136000D01*
X200386Y135932D01*
X200614Y135800D01*
X200800Y135614D01*
X200932Y135386D01*
X201000Y135132D01*
X201000Y134868D01*
X211000Y134868D02*
X210932Y134614D01*
X210800Y134386D01*
X210614Y134200D01*
X210386Y134068D01*
X210132Y134000D01*
X209868Y134000D01*
X209614Y134068D01*
X209386Y134200D01*
X209200Y134386D01*
X209068Y134614D01*
X209000Y134868D01*
X209000Y135132D01*
X209068Y135386D01*
X209200Y135614D01*
X209386Y135800D01*
X209614Y135932D01*
X209868Y136000D01*
X210132Y136000D01*
X210386Y135932D01*
X210614Y135800D01*
X210800Y135614D01*
X210932Y135386D01*
X211000Y135132D01*
X211000Y134868D01*
X411000Y213168D02*
X410932Y212914D01*
X410800Y212686D01*
X410614Y212500D01*
X410386Y212368D01*
X410132Y212300D01*
X409868Y212300D01*
X409614Y212368D01*
X409386Y212500D01*
X409200Y212686D01*
X409068Y212914D01*
X409000Y213168D01*
X409000Y213432D01*
X409068Y213686D01*
X409200Y213914D01*
X409386Y214100D01*
X409614Y214232D01*
X409868Y214300D01*
X410132Y214300D01*
X410386Y214232D01*
X410614Y214100D01*
X410800Y213914D01*
X410932Y213686D01*
X411000Y213432D01*
X411000Y213168D01*
X411000Y216468D02*
X410932Y216214D01*
X410800Y215986D01*
X410614Y215800D01*
X410386Y215668D01*
X410132Y215600D01*
X409868Y215600D01*
X409614Y215668D01*
X409386Y215800D01*
X409200Y215986D01*
X409068Y216214D01*
X409000Y216468D01*
X409000Y216732D01*
X409068Y216986D01*
X409200Y217214D01*
X409386Y217400D01*
X409614Y217532D01*
X409868Y217600D01*
X410132Y217600D01*
X410386Y217532D01*
X410614Y217400D01*
X410800Y217214D01*
X410932Y216986D01*
X411000Y216732D01*
X411000Y216468D01*
X411000Y219868D02*
X410932Y219614D01*
X410800Y219386D01*
X410614Y219200D01*
X410386Y219068D01*
X410132Y219000D01*
X409868Y219000D01*
X409614Y219068D01*
X409386Y219200D01*
X409200Y219386D01*
X409068Y219614D01*
X409000Y219868D01*
X409000Y220132D01*
X409068Y220386D01*
X409200Y220614D01*
X409386Y220800D01*
X409614Y220932D01*
X409868Y221000D01*
X410132Y221000D01*
X410386Y220932D01*
X410614Y220800D01*
X410800Y220614D01*
X410932Y220386D01*
X411000Y220132D01*
X411000Y219868D01*
X411000Y209868D02*
X410932Y209614D01*
X410800Y209386D01*
X410614Y209200D01*
X410386Y209068D01*
X410132Y209000D01*
X409868Y209000D01*
X409614Y209068D01*
X409386Y209200D01*
X409200Y209386D01*
X409068Y209614D01*
X409000Y209868D01*
X409000Y210132D01*
X409068Y210386D01*
X409200Y210614D01*
X409386Y210800D01*
X409614Y210932D01*
X409868Y211000D01*
X410132Y211000D01*
X410386Y210932D01*
X410614Y210800D01*
X410800Y210614D01*
X410932Y210386D01*
X411000Y210132D01*
X411000Y209868D01*
X421000Y216568D02*
X420932Y216314D01*
X420800Y216086D01*
X420614Y215900D01*
X420386Y215768D01*
X420132Y215700D01*
X419868Y215700D01*
X419614Y215768D01*
X419386Y215900D01*
X419200Y216086D01*
X419068Y216314D01*
X419000Y216568D01*
X419000Y216832D01*
X419068Y217086D01*
X419200Y217314D01*
X419386Y217500D01*
X419614Y217632D01*
X419868Y217700D01*
X420132Y217700D01*
X420386Y217632D01*
X420614Y217500D01*
X420800Y217314D01*
X420932Y217086D01*
X421000Y216832D01*
X421000Y216568D01*
X421000Y213268D02*
X420932Y213014D01*
X420800Y212786D01*
X420614Y212600D01*
X420386Y212468D01*
X420132Y212400D01*
X419868Y212400D01*
X419614Y212468D01*
X419386Y212600D01*
X419200Y212786D01*
X419068Y213014D01*
X419000Y213268D01*
X419000Y213532D01*
X419068Y213786D01*
X419200Y214014D01*
X419386Y214200D01*
X419614Y214332D01*
X419868Y214400D01*
X420132Y214400D01*
X420386Y214332D01*
X420614Y214200D01*
X420800Y214014D01*
X420932Y213786D01*
X421000Y213532D01*
X421000Y213268D01*
X421000Y209868D02*
X420932Y209614D01*
X420800Y209386D01*
X420614Y209200D01*
X420386Y209068D01*
X420132Y209000D01*
X419868Y209000D01*
X419614Y209068D01*
X419386Y209200D01*
X419200Y209386D01*
X419068Y209614D01*
X419000Y209868D01*
X419000Y210132D01*
X419068Y210386D01*
X419200Y210614D01*
X419386Y210800D01*
X419614Y210932D01*
X419868Y211000D01*
X420132Y211000D01*
X420386Y210932D01*
X420614Y210800D01*
X420800Y210614D01*
X420932Y210386D01*
X421000Y210132D01*
X421000Y209868D01*
X421000Y219868D02*
X420932Y219614D01*
X420800Y219386D01*
X420614Y219200D01*
X420386Y219068D01*
X420132Y219000D01*
X419868Y219000D01*
X419614Y219068D01*
X419386Y219200D01*
X419200Y219386D01*
X419068Y219614D01*
X419000Y219868D01*
X419000Y220132D01*
X419068Y220386D01*
X419200Y220614D01*
X419386Y220800D01*
X419614Y220932D01*
X419868Y221000D01*
X420132Y221000D01*
X420386Y220932D01*
X420614Y220800D01*
X420800Y220614D01*
X420932Y220386D01*
X421000Y220132D01*
X421000Y219868D01*
X411000Y183168D02*
X410932Y182914D01*
X410800Y182686D01*
X410614Y182500D01*
X410386Y182368D01*
X410132Y182300D01*
X409868Y182300D01*
X409614Y182368D01*
X409386Y182500D01*
X409200Y182686D01*
X409068Y182914D01*
X409000Y183168D01*
X409000Y183432D01*
X409068Y183686D01*
X409200Y183914D01*
X409386Y184100D01*
X409614Y184232D01*
X409868Y184300D01*
X410132Y184300D01*
X410386Y184232D01*
X410614Y184100D01*
X410800Y183914D01*
X410932Y183686D01*
X411000Y183432D01*
X411000Y183168D01*
X411000Y186468D02*
X410932Y186214D01*
X410800Y185986D01*
X410614Y185800D01*
X410386Y185668D01*
X410132Y185600D01*
X409868Y185600D01*
X409614Y185668D01*
X409386Y185800D01*
X409200Y185986D01*
X409068Y186214D01*
X409000Y186468D01*
X409000Y186732D01*
X409068Y186986D01*
X409200Y187214D01*
X409386Y187400D01*
X409614Y187532D01*
X409868Y187600D01*
X410132Y187600D01*
X410386Y187532D01*
X410614Y187400D01*
X410800Y187214D01*
X410932Y186986D01*
X411000Y186732D01*
X411000Y186468D01*
X411000Y189868D02*
X410932Y189614D01*
X410800Y189386D01*
X410614Y189200D01*
X410386Y189068D01*
X410132Y189000D01*
X409868Y189000D01*
X409614Y189068D01*
X409386Y189200D01*
X409200Y189386D01*
X409068Y189614D01*
X409000Y189868D01*
X409000Y190132D01*
X409068Y190386D01*
X409200Y190614D01*
X409386Y190800D01*
X409614Y190932D01*
X409868Y191000D01*
X410132Y191000D01*
X410386Y190932D01*
X410614Y190800D01*
X410800Y190614D01*
X410932Y190386D01*
X411000Y190132D01*
X411000Y189868D01*
X411000Y179868D02*
X410932Y179614D01*
X410800Y179386D01*
X410614Y179200D01*
X410386Y179068D01*
X410132Y179000D01*
X409868Y179000D01*
X409614Y179068D01*
X409386Y179200D01*
X409200Y179386D01*
X409068Y179614D01*
X409000Y179868D01*
X409000Y180132D01*
X409068Y180386D01*
X409200Y180614D01*
X409386Y180800D01*
X409614Y180932D01*
X409868Y181000D01*
X410132Y181000D01*
X410386Y180932D01*
X410614Y180800D01*
X410800Y180614D01*
X410932Y180386D01*
X411000Y180132D01*
X411000Y179868D01*
X421000Y186568D02*
X420932Y186314D01*
X420800Y186086D01*
X420614Y185900D01*
X420386Y185768D01*
X420132Y185700D01*
X419868Y185700D01*
X419614Y185768D01*
X419386Y185900D01*
X419200Y186086D01*
X419068Y186314D01*
X419000Y186568D01*
X419000Y186832D01*
X419068Y187086D01*
X419200Y187314D01*
X419386Y187500D01*
X419614Y187632D01*
X419868Y187700D01*
X420132Y187700D01*
X420386Y187632D01*
X420614Y187500D01*
X420800Y187314D01*
X420932Y187086D01*
X421000Y186832D01*
X421000Y186568D01*
X421000Y183268D02*
X420932Y183014D01*
X420800Y182786D01*
X420614Y182600D01*
X420386Y182468D01*
X420132Y182400D01*
X419868Y182400D01*
X419614Y182468D01*
X419386Y182600D01*
X419200Y182786D01*
X419068Y183014D01*
X419000Y183268D01*
X419000Y183532D01*
X419068Y183786D01*
X419200Y184014D01*
X419386Y184200D01*
X419614Y184332D01*
X419868Y184400D01*
X420132Y184400D01*
X420386Y184332D01*
X420614Y184200D01*
X420800Y184014D01*
X420932Y183786D01*
X421000Y183532D01*
X421000Y183268D01*
X421000Y179868D02*
X420932Y179614D01*
X420800Y179386D01*
X420614Y179200D01*
X420386Y179068D01*
X420132Y179000D01*
X419868Y179000D01*
X419614Y179068D01*
X419386Y179200D01*
X419200Y179386D01*
X419068Y179614D01*
X419000Y179868D01*
X419000Y180132D01*
X419068Y180386D01*
X419200Y180614D01*
X419386Y180800D01*
X419614Y180932D01*
X419868Y181000D01*
X420132Y181000D01*
X420386Y180932D01*
X420614Y180800D01*
X420800Y180614D01*
X420932Y180386D01*
X421000Y180132D01*
X421000Y179868D01*
X421000Y189868D02*
X420932Y189614D01*
X420800Y189386D01*
X420614Y189200D01*
X420386Y189068D01*
X420132Y189000D01*
X419868Y189000D01*
X419614Y189068D01*
X419386Y189200D01*
X419200Y189386D01*
X419068Y189614D01*
X419000Y189868D01*
X419000Y190132D01*
X419068Y190386D01*
X419200Y190614D01*
X419386Y190800D01*
X419614Y190932D01*
X419868Y191000D01*
X420132Y191000D01*
X420386Y190932D01*
X420614Y190800D01*
X420800Y190614D01*
X420932Y190386D01*
X421000Y190132D01*
X421000Y189868D01*
X411000Y198168D02*
X410932Y197914D01*
X410800Y197686D01*
X410614Y197500D01*
X410386Y197368D01*
X410132Y197300D01*
X409868Y197300D01*
X409614Y197368D01*
X409386Y197500D01*
X409200Y197686D01*
X409068Y197914D01*
X409000Y198168D01*
X409000Y198432D01*
X409068Y198686D01*
X409200Y198914D01*
X409386Y199100D01*
X409614Y199232D01*
X409868Y199300D01*
X410132Y199300D01*
X410386Y199232D01*
X410614Y199100D01*
X410800Y198914D01*
X410932Y198686D01*
X411000Y198432D01*
X411000Y198168D01*
X411000Y201468D02*
X410932Y201214D01*
X410800Y200986D01*
X410614Y200800D01*
X410386Y200668D01*
X410132Y200600D01*
X409868Y200600D01*
X409614Y200668D01*
X409386Y200800D01*
X409200Y200986D01*
X409068Y201214D01*
X409000Y201468D01*
X409000Y201732D01*
X409068Y201986D01*
X409200Y202214D01*
X409386Y202400D01*
X409614Y202532D01*
X409868Y202600D01*
X410132Y202600D01*
X410386Y202532D01*
X410614Y202400D01*
X410800Y202214D01*
X410932Y201986D01*
X411000Y201732D01*
X411000Y201468D01*
X411000Y204868D02*
X410932Y204614D01*
X410800Y204386D01*
X410614Y204200D01*
X410386Y204068D01*
X410132Y204000D01*
X409868Y204000D01*
X409614Y204068D01*
X409386Y204200D01*
X409200Y204386D01*
X409068Y204614D01*
X409000Y204868D01*
X409000Y205132D01*
X409068Y205386D01*
X409200Y205614D01*
X409386Y205800D01*
X409614Y205932D01*
X409868Y206000D01*
X410132Y206000D01*
X410386Y205932D01*
X410614Y205800D01*
X410800Y205614D01*
X410932Y205386D01*
X411000Y205132D01*
X411000Y204868D01*
X411000Y194868D02*
X410932Y194614D01*
X410800Y194386D01*
X410614Y194200D01*
X410386Y194068D01*
X410132Y194000D01*
X409868Y194000D01*
X409614Y194068D01*
X409386Y194200D01*
X409200Y194386D01*
X409068Y194614D01*
X409000Y194868D01*
X409000Y195132D01*
X409068Y195386D01*
X409200Y195614D01*
X409386Y195800D01*
X409614Y195932D01*
X409868Y196000D01*
X410132Y196000D01*
X410386Y195932D01*
X410614Y195800D01*
X410800Y195614D01*
X410932Y195386D01*
X411000Y195132D01*
X411000Y194868D01*
X421000Y201568D02*
X420932Y201314D01*
X420800Y201086D01*
X420614Y200900D01*
X420386Y200768D01*
X420132Y200700D01*
X419868Y200700D01*
X419614Y200768D01*
X419386Y200900D01*
X419200Y201086D01*
X419068Y201314D01*
X419000Y201568D01*
X419000Y201832D01*
X419068Y202086D01*
X419200Y202314D01*
X419386Y202500D01*
X419614Y202632D01*
X419868Y202700D01*
X420132Y202700D01*
X420386Y202632D01*
X420614Y202500D01*
X420800Y202314D01*
X420932Y202086D01*
X421000Y201832D01*
X421000Y201568D01*
X421000Y198268D02*
X420932Y198014D01*
X420800Y197786D01*
X420614Y197600D01*
X420386Y197468D01*
X420132Y197400D01*
X419868Y197400D01*
X419614Y197468D01*
X419386Y197600D01*
X419200Y197786D01*
X419068Y198014D01*
X419000Y198268D01*
X419000Y198532D01*
X419068Y198786D01*
X419200Y199014D01*
X419386Y199200D01*
X419614Y199332D01*
X419868Y199400D01*
X420132Y199400D01*
X420386Y199332D01*
X420614Y199200D01*
X420800Y199014D01*
X420932Y198786D01*
X421000Y198532D01*
X421000Y198268D01*
X421000Y194868D02*
X420932Y194614D01*
X420800Y194386D01*
X420614Y194200D01*
X420386Y194068D01*
X420132Y194000D01*
X419868Y194000D01*
X419614Y194068D01*
X419386Y194200D01*
X419200Y194386D01*
X419068Y194614D01*
X419000Y194868D01*
X419000Y195132D01*
X419068Y195386D01*
X419200Y195614D01*
X419386Y195800D01*
X419614Y195932D01*
X419868Y196000D01*
X420132Y196000D01*
X420386Y195932D01*
X420614Y195800D01*
X420800Y195614D01*
X420932Y195386D01*
X421000Y195132D01*
X421000Y194868D01*
X421000Y204868D02*
X420932Y204614D01*
X420800Y204386D01*
X420614Y204200D01*
X420386Y204068D01*
X420132Y204000D01*
X419868Y204000D01*
X419614Y204068D01*
X419386Y204200D01*
X419200Y204386D01*
X419068Y204614D01*
X419000Y204868D01*
X419000Y205132D01*
X419068Y205386D01*
X419200Y205614D01*
X419386Y205800D01*
X419614Y205932D01*
X419868Y206000D01*
X420132Y206000D01*
X420386Y205932D01*
X420614Y205800D01*
X420800Y205614D01*
X420932Y205386D01*
X421000Y205132D01*
X421000Y204868D01*
X411000Y143168D02*
X410932Y142914D01*
X410800Y142686D01*
X410614Y142500D01*
X410386Y142368D01*
X410132Y142300D01*
X409868Y142300D01*
X409614Y142368D01*
X409386Y142500D01*
X409200Y142686D01*
X409068Y142914D01*
X409000Y143168D01*
X409000Y143432D01*
X409068Y143686D01*
X409200Y143914D01*
X409386Y144100D01*
X409614Y144232D01*
X409868Y144300D01*
X410132Y144300D01*
X410386Y144232D01*
X410614Y144100D01*
X410800Y143914D01*
X410932Y143686D01*
X411000Y143432D01*
X411000Y143168D01*
X411000Y146468D02*
X410932Y146214D01*
X410800Y145986D01*
X410614Y145800D01*
X410386Y145668D01*
X410132Y145600D01*
X409868Y145600D01*
X409614Y145668D01*
X409386Y145800D01*
X409200Y145986D01*
X409068Y146214D01*
X409000Y146468D01*
X409000Y146732D01*
X409068Y146986D01*
X409200Y147214D01*
X409386Y147400D01*
X409614Y147532D01*
X409868Y147600D01*
X410132Y147600D01*
X410386Y147532D01*
X410614Y147400D01*
X410800Y147214D01*
X410932Y146986D01*
X411000Y146732D01*
X411000Y146468D01*
X411000Y149868D02*
X410932Y149614D01*
X410800Y149386D01*
X410614Y149200D01*
X410386Y149068D01*
X410132Y149000D01*
X409868Y149000D01*
X409614Y149068D01*
X409386Y149200D01*
X409200Y149386D01*
X409068Y149614D01*
X409000Y149868D01*
X409000Y150132D01*
X409068Y150386D01*
X409200Y150614D01*
X409386Y150800D01*
X409614Y150932D01*
X409868Y151000D01*
X410132Y151000D01*
X410386Y150932D01*
X410614Y150800D01*
X410800Y150614D01*
X410932Y150386D01*
X411000Y150132D01*
X411000Y149868D01*
X411000Y139868D02*
X410932Y139614D01*
X410800Y139386D01*
X410614Y139200D01*
X410386Y139068D01*
X410132Y139000D01*
X409868Y139000D01*
X409614Y139068D01*
X409386Y139200D01*
X409200Y139386D01*
X409068Y139614D01*
X409000Y139868D01*
X409000Y140132D01*
X409068Y140386D01*
X409200Y140614D01*
X409386Y140800D01*
X409614Y140932D01*
X409868Y141000D01*
X410132Y141000D01*
X410386Y140932D01*
X410614Y140800D01*
X410800Y140614D01*
X410932Y140386D01*
X411000Y140132D01*
X411000Y139868D01*
X421000Y146568D02*
X420932Y146314D01*
X420800Y146086D01*
X420614Y145900D01*
X420386Y145768D01*
X420132Y145700D01*
X419868Y145700D01*
X419614Y145768D01*
X419386Y145900D01*
X419200Y146086D01*
X419068Y146314D01*
X419000Y146568D01*
X419000Y146832D01*
X419068Y147086D01*
X419200Y147314D01*
X419386Y147500D01*
X419614Y147632D01*
X419868Y147700D01*
X420132Y147700D01*
X420386Y147632D01*
X420614Y147500D01*
X420800Y147314D01*
X420932Y147086D01*
X421000Y146832D01*
X421000Y146568D01*
X421000Y143268D02*
X420932Y143014D01*
X420800Y142786D01*
X420614Y142600D01*
X420386Y142468D01*
X420132Y142400D01*
X419868Y142400D01*
X419614Y142468D01*
X419386Y142600D01*
X419200Y142786D01*
X419068Y143014D01*
X419000Y143268D01*
X419000Y143532D01*
X419068Y143786D01*
X419200Y144014D01*
X419386Y144200D01*
X419614Y144332D01*
X419868Y144400D01*
X420132Y144400D01*
X420386Y144332D01*
X420614Y144200D01*
X420800Y144014D01*
X420932Y143786D01*
X421000Y143532D01*
X421000Y143268D01*
X421000Y139868D02*
X420932Y139614D01*
X420800Y139386D01*
X420614Y139200D01*
X420386Y139068D01*
X420132Y139000D01*
X419868Y139000D01*
X419614Y139068D01*
X419386Y139200D01*
X419200Y139386D01*
X419068Y139614D01*
X419000Y139868D01*
X419000Y140132D01*
X419068Y140386D01*
X419200Y140614D01*
X419386Y140800D01*
X419614Y140932D01*
X419868Y141000D01*
X420132Y141000D01*
X420386Y140932D01*
X420614Y140800D01*
X420800Y140614D01*
X420932Y140386D01*
X421000Y140132D01*
X421000Y139868D01*
X421000Y149868D02*
X420932Y149614D01*
X420800Y149386D01*
X420614Y149200D01*
X420386Y149068D01*
X420132Y149000D01*
X419868Y149000D01*
X419614Y149068D01*
X419386Y149200D01*
X419200Y149386D01*
X419068Y149614D01*
X419000Y149868D01*
X419000Y150132D01*
X419068Y150386D01*
X419200Y150614D01*
X419386Y150800D01*
X419614Y150932D01*
X419868Y151000D01*
X420132Y151000D01*
X420386Y150932D01*
X420614Y150800D01*
X420800Y150614D01*
X420932Y150386D01*
X421000Y150132D01*
X421000Y149868D01*
X411000Y123168D02*
X410932Y122914D01*
X410800Y122686D01*
X410614Y122500D01*
X410386Y122368D01*
X410132Y122300D01*
X409868Y122300D01*
X409614Y122368D01*
X409386Y122500D01*
X409200Y122686D01*
X409068Y122914D01*
X409000Y123168D01*
X409000Y123432D01*
X409068Y123686D01*
X409200Y123914D01*
X409386Y124100D01*
X409614Y124232D01*
X409868Y124300D01*
X410132Y124300D01*
X410386Y124232D01*
X410614Y124100D01*
X410800Y123914D01*
X410932Y123686D01*
X411000Y123432D01*
X411000Y123168D01*
X411000Y126468D02*
X410932Y126214D01*
X410800Y125986D01*
X410614Y125800D01*
X410386Y125668D01*
X410132Y125600D01*
X409868Y125600D01*
X409614Y125668D01*
X409386Y125800D01*
X409200Y125986D01*
X409068Y126214D01*
X409000Y126468D01*
X409000Y126732D01*
X409068Y126986D01*
X409200Y127214D01*
X409386Y127400D01*
X409614Y127532D01*
X409868Y127600D01*
X410132Y127600D01*
X410386Y127532D01*
X410614Y127400D01*
X410800Y127214D01*
X410932Y126986D01*
X411000Y126732D01*
X411000Y126468D01*
X411000Y129868D02*
X410932Y129614D01*
X410800Y129386D01*
X410614Y129200D01*
X410386Y129068D01*
X410132Y129000D01*
X409868Y129000D01*
X409614Y129068D01*
X409386Y129200D01*
X409200Y129386D01*
X409068Y129614D01*
X409000Y129868D01*
X409000Y130132D01*
X409068Y130386D01*
X409200Y130614D01*
X409386Y130800D01*
X409614Y130932D01*
X409868Y131000D01*
X410132Y131000D01*
X410386Y130932D01*
X410614Y130800D01*
X410800Y130614D01*
X410932Y130386D01*
X411000Y130132D01*
X411000Y129868D01*
X411000Y119868D02*
X410932Y119614D01*
X410800Y119386D01*
X410614Y119200D01*
X410386Y119068D01*
X410132Y119000D01*
X409868Y119000D01*
X409614Y119068D01*
X409386Y119200D01*
X409200Y119386D01*
X409068Y119614D01*
X409000Y119868D01*
X409000Y120132D01*
X409068Y120386D01*
X409200Y120614D01*
X409386Y120800D01*
X409614Y120932D01*
X409868Y121000D01*
X410132Y121000D01*
X410386Y120932D01*
X410614Y120800D01*
X410800Y120614D01*
X410932Y120386D01*
X411000Y120132D01*
X411000Y119868D01*
X421000Y126568D02*
X420932Y126314D01*
X420800Y126086D01*
X420614Y125900D01*
X420386Y125768D01*
X420132Y125700D01*
X419868Y125700D01*
X419614Y125768D01*
X419386Y125900D01*
X419200Y126086D01*
X419068Y126314D01*
X419000Y126568D01*
X419000Y126832D01*
X419068Y127086D01*
X419200Y127314D01*
X419386Y127500D01*
X419614Y127632D01*
X419868Y127700D01*
X420132Y127700D01*
X420386Y127632D01*
X420614Y127500D01*
X420800Y127314D01*
X420932Y127086D01*
X421000Y126832D01*
X421000Y126568D01*
X421000Y123268D02*
X420932Y123014D01*
X420800Y122786D01*
X420614Y122600D01*
X420386Y122468D01*
X420132Y122400D01*
X419868Y122400D01*
X419614Y122468D01*
X419386Y122600D01*
X419200Y122786D01*
X419068Y123014D01*
X419000Y123268D01*
X419000Y123532D01*
X419068Y123786D01*
X419200Y124014D01*
X419386Y124200D01*
X419614Y124332D01*
X419868Y124400D01*
X420132Y124400D01*
X420386Y124332D01*
X420614Y124200D01*
X420800Y124014D01*
X420932Y123786D01*
X421000Y123532D01*
X421000Y123268D01*
X421000Y119868D02*
X420932Y119614D01*
X420800Y119386D01*
X420614Y119200D01*
X420386Y119068D01*
X420132Y119000D01*
X419868Y119000D01*
X419614Y119068D01*
X419386Y119200D01*
X419200Y119386D01*
X419068Y119614D01*
X419000Y119868D01*
X419000Y120132D01*
X419068Y120386D01*
X419200Y120614D01*
X419386Y120800D01*
X419614Y120932D01*
X419868Y121000D01*
X420132Y121000D01*
X420386Y120932D01*
X420614Y120800D01*
X420800Y120614D01*
X420932Y120386D01*
X421000Y120132D01*
X421000Y119868D01*
X421000Y129868D02*
X420932Y129614D01*
X420800Y129386D01*
X420614Y129200D01*
X420386Y129068D01*
X420132Y129000D01*
X419868Y129000D01*
X419614Y129068D01*
X419386Y129200D01*
X419200Y129386D01*
X419068Y129614D01*
X419000Y129868D01*
X419000Y130132D01*
X419068Y130386D01*
X419200Y130614D01*
X419386Y130800D01*
X419614Y130932D01*
X419868Y131000D01*
X420132Y131000D01*
X420386Y130932D01*
X420614Y130800D01*
X420800Y130614D01*
X420932Y130386D01*
X421000Y130132D01*
X421000Y129868D01*
X411000Y83168D02*
X410932Y82914D01*
X410800Y82686D01*
X410614Y82500D01*
X410386Y82368D01*
X410132Y82300D01*
X409868Y82300D01*
X409614Y82368D01*
X409386Y82500D01*
X409200Y82686D01*
X409068Y82914D01*
X409000Y83168D01*
X409000Y83432D01*
X409068Y83686D01*
X409200Y83914D01*
X409386Y84100D01*
X409614Y84232D01*
X409868Y84300D01*
X410132Y84300D01*
X410386Y84232D01*
X410614Y84100D01*
X410800Y83914D01*
X410932Y83686D01*
X411000Y83432D01*
X411000Y83168D01*
X411000Y86468D02*
X410932Y86214D01*
X410800Y85986D01*
X410614Y85800D01*
X410386Y85668D01*
X410132Y85600D01*
X409868Y85600D01*
X409614Y85668D01*
X409386Y85800D01*
X409200Y85986D01*
X409068Y86214D01*
X409000Y86468D01*
X409000Y86732D01*
X409068Y86986D01*
X409200Y87214D01*
X409386Y87400D01*
X409614Y87532D01*
X409868Y87600D01*
X410132Y87600D01*
X410386Y87532D01*
X410614Y87400D01*
X410800Y87214D01*
X410932Y86986D01*
X411000Y86732D01*
X411000Y86468D01*
X411000Y89868D02*
X410932Y89614D01*
X410800Y89386D01*
X410614Y89200D01*
X410386Y89068D01*
X410132Y89000D01*
X409868Y89000D01*
X409614Y89068D01*
X409386Y89200D01*
X409200Y89386D01*
X409068Y89614D01*
X409000Y89868D01*
X409000Y90132D01*
X409068Y90386D01*
X409200Y90614D01*
X409386Y90800D01*
X409614Y90932D01*
X409868Y91000D01*
X410132Y91000D01*
X410386Y90932D01*
X410614Y90800D01*
X410800Y90614D01*
X410932Y90386D01*
X411000Y90132D01*
X411000Y89868D01*
X411000Y79868D02*
X410932Y79614D01*
X410800Y79386D01*
X410614Y79200D01*
X410386Y79068D01*
X410132Y79000D01*
X409868Y79000D01*
X409614Y79068D01*
X409386Y79200D01*
X409200Y79386D01*
X409068Y79614D01*
X409000Y79868D01*
X409000Y80132D01*
X409068Y80386D01*
X409200Y80614D01*
X409386Y80800D01*
X409614Y80932D01*
X409868Y81000D01*
X410132Y81000D01*
X410386Y80932D01*
X410614Y80800D01*
X410800Y80614D01*
X410932Y80386D01*
X411000Y80132D01*
X411000Y79868D01*
X421000Y86568D02*
X420932Y86314D01*
X420800Y86086D01*
X420614Y85900D01*
X420386Y85768D01*
X420132Y85700D01*
X419868Y85700D01*
X419614Y85768D01*
X419386Y85900D01*
X419200Y86086D01*
X419068Y86314D01*
X419000Y86568D01*
X419000Y86832D01*
X419068Y87086D01*
X419200Y87314D01*
X419386Y87500D01*
X419614Y87632D01*
X419868Y87700D01*
X420132Y87700D01*
X420386Y87632D01*
X420614Y87500D01*
X420800Y87314D01*
X420932Y87086D01*
X421000Y86832D01*
X421000Y86568D01*
X421000Y83268D02*
X420932Y83014D01*
X420800Y82786D01*
X420614Y82600D01*
X420386Y82468D01*
X420132Y82400D01*
X419868Y82400D01*
X419614Y82468D01*
X419386Y82600D01*
X419200Y82786D01*
X419068Y83014D01*
X419000Y83268D01*
X419000Y83532D01*
X419068Y83786D01*
X419200Y84014D01*
X419386Y84200D01*
X419614Y84332D01*
X419868Y84400D01*
X420132Y84400D01*
X420386Y84332D01*
X420614Y84200D01*
X420800Y84014D01*
X420932Y83786D01*
X421000Y83532D01*
X421000Y83268D01*
X421000Y79868D02*
X420932Y79614D01*
X420800Y79386D01*
X420614Y79200D01*
X420386Y79068D01*
X420132Y79000D01*
X419868Y79000D01*
X419614Y79068D01*
X419386Y79200D01*
X419200Y79386D01*
X419068Y79614D01*
X419000Y79868D01*
X419000Y80132D01*
X419068Y80386D01*
X419200Y80614D01*
X419386Y80800D01*
X419614Y80932D01*
X419868Y81000D01*
X420132Y81000D01*
X420386Y80932D01*
X420614Y80800D01*
X420800Y80614D01*
X420932Y80386D01*
X421000Y80132D01*
X421000Y79868D01*
X421000Y89868D02*
X420932Y89614D01*
X420800Y89386D01*
X420614Y89200D01*
X420386Y89068D01*
X420132Y89000D01*
X419868Y89000D01*
X419614Y89068D01*
X419386Y89200D01*
X419200Y89386D01*
X419068Y89614D01*
X419000Y89868D01*
X419000Y90132D01*
X419068Y90386D01*
X419200Y90614D01*
X419386Y90800D01*
X419614Y90932D01*
X419868Y91000D01*
X420132Y91000D01*
X420386Y90932D01*
X420614Y90800D01*
X420800Y90614D01*
X420932Y90386D01*
X421000Y90132D01*
X421000Y89868D01*
X411000Y53168D02*
X410932Y52914D01*
X410800Y52686D01*
X410614Y52500D01*
X410386Y52368D01*
X410132Y52300D01*
X409868Y52300D01*
X409614Y52368D01*
X409386Y52500D01*
X409200Y52686D01*
X409068Y52914D01*
X409000Y53168D01*
X409000Y53432D01*
X409068Y53686D01*
X409200Y53914D01*
X409386Y54100D01*
X409614Y54232D01*
X409868Y54300D01*
X410132Y54300D01*
X410386Y54232D01*
X410614Y54100D01*
X410800Y53914D01*
X410932Y53686D01*
X411000Y53432D01*
X411000Y53168D01*
X411000Y56468D02*
X410932Y56214D01*
X410800Y55986D01*
X410614Y55800D01*
X410386Y55668D01*
X410132Y55600D01*
X409868Y55600D01*
X409614Y55668D01*
X409386Y55800D01*
X409200Y55986D01*
X409068Y56214D01*
X409000Y56468D01*
X409000Y56732D01*
X409068Y56986D01*
X409200Y57214D01*
X409386Y57400D01*
X409614Y57532D01*
X409868Y57600D01*
X410132Y57600D01*
X410386Y57532D01*
X410614Y57400D01*
X410800Y57214D01*
X410932Y56986D01*
X411000Y56732D01*
X411000Y56468D01*
X411000Y59868D02*
X410932Y59614D01*
X410800Y59386D01*
X410614Y59200D01*
X410386Y59068D01*
X410132Y59000D01*
X409868Y59000D01*
X409614Y59068D01*
X409386Y59200D01*
X409200Y59386D01*
X409068Y59614D01*
X409000Y59868D01*
X409000Y60132D01*
X409068Y60386D01*
X409200Y60614D01*
X409386Y60800D01*
X409614Y60932D01*
X409868Y61000D01*
X410132Y61000D01*
X410386Y60932D01*
X410614Y60800D01*
X410800Y60614D01*
X410932Y60386D01*
X411000Y60132D01*
X411000Y59868D01*
X411000Y49868D02*
X410932Y49614D01*
X410800Y49386D01*
X410614Y49200D01*
X410386Y49068D01*
X410132Y49000D01*
X409868Y49000D01*
X409614Y49068D01*
X409386Y49200D01*
X409200Y49386D01*
X409068Y49614D01*
X409000Y49868D01*
X409000Y50132D01*
X409068Y50386D01*
X409200Y50614D01*
X409386Y50800D01*
X409614Y50932D01*
X409868Y51000D01*
X410132Y51000D01*
X410386Y50932D01*
X410614Y50800D01*
X410800Y50614D01*
X410932Y50386D01*
X411000Y50132D01*
X411000Y49868D01*
X421000Y56568D02*
X420932Y56314D01*
X420800Y56086D01*
X420614Y55900D01*
X420386Y55768D01*
X420132Y55700D01*
X419868Y55700D01*
X419614Y55768D01*
X419386Y55900D01*
X419200Y56086D01*
X419068Y56314D01*
X419000Y56568D01*
X419000Y56832D01*
X419068Y57086D01*
X419200Y57314D01*
X419386Y57500D01*
X419614Y57632D01*
X419868Y57700D01*
X420132Y57700D01*
X420386Y57632D01*
X420614Y57500D01*
X420800Y57314D01*
X420932Y57086D01*
X421000Y56832D01*
X421000Y56568D01*
X421000Y53268D02*
X420932Y53014D01*
X420800Y52786D01*
X420614Y52600D01*
X420386Y52468D01*
X420132Y52400D01*
X419868Y52400D01*
X419614Y52468D01*
X419386Y52600D01*
X419200Y52786D01*
X419068Y53014D01*
X419000Y53268D01*
X419000Y53532D01*
X419068Y53786D01*
X419200Y54014D01*
X419386Y54200D01*
X419614Y54332D01*
X419868Y54400D01*
X420132Y54400D01*
X420386Y54332D01*
X420614Y54200D01*
X420800Y54014D01*
X420932Y53786D01*
X421000Y53532D01*
X421000Y53268D01*
X421000Y49868D02*
X420932Y49614D01*
X420800Y49386D01*
X420614Y49200D01*
X420386Y49068D01*
X420132Y49000D01*
X419868Y49000D01*
X419614Y49068D01*
X419386Y49200D01*
X419200Y49386D01*
X419068Y49614D01*
X419000Y49868D01*
X419000Y50132D01*
X419068Y50386D01*
X419200Y50614D01*
X419386Y50800D01*
X419614Y50932D01*
X419868Y51000D01*
X420132Y51000D01*
X420386Y50932D01*
X420614Y50800D01*
X420800Y50614D01*
X420932Y50386D01*
X421000Y50132D01*
X421000Y49868D01*
X421000Y59868D02*
X420932Y59614D01*
X420800Y59386D01*
X420614Y59200D01*
X420386Y59068D01*
X420132Y59000D01*
X419868Y59000D01*
X419614Y59068D01*
X419386Y59200D01*
X419200Y59386D01*
X419068Y59614D01*
X419000Y59868D01*
X419000Y60132D01*
X419068Y60386D01*
X419200Y60614D01*
X419386Y60800D01*
X419614Y60932D01*
X419868Y61000D01*
X420132Y61000D01*
X420386Y60932D01*
X420614Y60800D01*
X420800Y60614D01*
X420932Y60386D01*
X421000Y60132D01*
X421000Y59868D01*
X411000Y68168D02*
X410932Y67914D01*
X410800Y67686D01*
X410614Y67500D01*
X410386Y67368D01*
X410132Y67300D01*
X409868Y67300D01*
X409614Y67368D01*
X409386Y67500D01*
X409200Y67686D01*
X409068Y67914D01*
X409000Y68168D01*
X409000Y68432D01*
X409068Y68686D01*
X409200Y68914D01*
X409386Y69100D01*
X409614Y69232D01*
X409868Y69300D01*
X410132Y69300D01*
X410386Y69232D01*
X410614Y69100D01*
X410800Y68914D01*
X410932Y68686D01*
X411000Y68432D01*
X411000Y68168D01*
X411000Y71468D02*
X410932Y71214D01*
X410800Y70986D01*
X410614Y70800D01*
X410386Y70668D01*
X410132Y70600D01*
X409868Y70600D01*
X409614Y70668D01*
X409386Y70800D01*
X409200Y70986D01*
X409068Y71214D01*
X409000Y71468D01*
X409000Y71732D01*
X409068Y71986D01*
X409200Y72214D01*
X409386Y72400D01*
X409614Y72532D01*
X409868Y72600D01*
X410132Y72600D01*
X410386Y72532D01*
X410614Y72400D01*
X410800Y72214D01*
X410932Y71986D01*
X411000Y71732D01*
X411000Y71468D01*
X411000Y74868D02*
X410932Y74614D01*
X410800Y74386D01*
X410614Y74200D01*
X410386Y74068D01*
X410132Y74000D01*
X409868Y74000D01*
X409614Y74068D01*
X409386Y74200D01*
X409200Y74386D01*
X409068Y74614D01*
X409000Y74868D01*
X409000Y75132D01*
X409068Y75386D01*
X409200Y75614D01*
X409386Y75800D01*
X409614Y75932D01*
X409868Y76000D01*
X410132Y76000D01*
X410386Y75932D01*
X410614Y75800D01*
X410800Y75614D01*
X410932Y75386D01*
X411000Y75132D01*
X411000Y74868D01*
X411000Y64868D02*
X410932Y64614D01*
X410800Y64386D01*
X410614Y64200D01*
X410386Y64068D01*
X410132Y64000D01*
X409868Y64000D01*
X409614Y64068D01*
X409386Y64200D01*
X409200Y64386D01*
X409068Y64614D01*
X409000Y64868D01*
X409000Y65132D01*
X409068Y65386D01*
X409200Y65614D01*
X409386Y65800D01*
X409614Y65932D01*
X409868Y66000D01*
X410132Y66000D01*
X410386Y65932D01*
X410614Y65800D01*
X410800Y65614D01*
X410932Y65386D01*
X411000Y65132D01*
X411000Y64868D01*
X421000Y71568D02*
X420932Y71314D01*
X420800Y71086D01*
X420614Y70900D01*
X420386Y70768D01*
X420132Y70700D01*
X419868Y70700D01*
X419614Y70768D01*
X419386Y70900D01*
X419200Y71086D01*
X419068Y71314D01*
X419000Y71568D01*
X419000Y71832D01*
X419068Y72086D01*
X419200Y72314D01*
X419386Y72500D01*
X419614Y72632D01*
X419868Y72700D01*
X420132Y72700D01*
X420386Y72632D01*
X420614Y72500D01*
X420800Y72314D01*
X420932Y72086D01*
X421000Y71832D01*
X421000Y71568D01*
X421000Y68268D02*
X420932Y68014D01*
X420800Y67786D01*
X420614Y67600D01*
X420386Y67468D01*
X420132Y67400D01*
X419868Y67400D01*
X419614Y67468D01*
X419386Y67600D01*
X419200Y67786D01*
X419068Y68014D01*
X419000Y68268D01*
X419000Y68532D01*
X419068Y68786D01*
X419200Y69014D01*
X419386Y69200D01*
X419614Y69332D01*
X419868Y69400D01*
X420132Y69400D01*
X420386Y69332D01*
X420614Y69200D01*
X420800Y69014D01*
X420932Y68786D01*
X421000Y68532D01*
X421000Y68268D01*
X421000Y64868D02*
X420932Y64614D01*
X420800Y64386D01*
X420614Y64200D01*
X420386Y64068D01*
X420132Y64000D01*
X419868Y64000D01*
X419614Y64068D01*
X419386Y64200D01*
X419200Y64386D01*
X419068Y64614D01*
X419000Y64868D01*
X419000Y65132D01*
X419068Y65386D01*
X419200Y65614D01*
X419386Y65800D01*
X419614Y65932D01*
X419868Y66000D01*
X420132Y66000D01*
X420386Y65932D01*
X420614Y65800D01*
X420800Y65614D01*
X420932Y65386D01*
X421000Y65132D01*
X421000Y64868D01*
X421000Y74868D02*
X420932Y74614D01*
X420800Y74386D01*
X420614Y74200D01*
X420386Y74068D01*
X420132Y74000D01*
X419868Y74000D01*
X419614Y74068D01*
X419386Y74200D01*
X419200Y74386D01*
X419068Y74614D01*
X419000Y74868D01*
X419000Y75132D01*
X419068Y75386D01*
X419200Y75614D01*
X419386Y75800D01*
X419614Y75932D01*
X419868Y76000D01*
X420132Y76000D01*
X420386Y75932D01*
X420614Y75800D01*
X420800Y75614D01*
X420932Y75386D01*
X421000Y75132D01*
X421000Y74868D01*
X411000Y134868D02*
X410932Y134614D01*
X410800Y134386D01*
X410614Y134200D01*
X410386Y134068D01*
X410132Y134000D01*
X409868Y134000D01*
X409614Y134068D01*
X409386Y134200D01*
X409200Y134386D01*
X409068Y134614D01*
X409000Y134868D01*
X409000Y135132D01*
X409068Y135386D01*
X409200Y135614D01*
X409386Y135800D01*
X409614Y135932D01*
X409868Y136000D01*
X410132Y136000D01*
X410386Y135932D01*
X410614Y135800D01*
X410800Y135614D01*
X410932Y135386D01*
X411000Y135132D01*
X411000Y134868D01*
X421000Y134868D02*
X420932Y134614D01*
X420800Y134386D01*
X420614Y134200D01*
X420386Y134068D01*
X420132Y134000D01*
X419868Y134000D01*
X419614Y134068D01*
X419386Y134200D01*
X419200Y134386D01*
X419068Y134614D01*
X419000Y134868D01*
X419000Y135132D01*
X419068Y135386D01*
X419200Y135614D01*
X419386Y135800D01*
X419614Y135932D01*
X419868Y136000D01*
X420132Y136000D01*
X420386Y135932D01*
X420614Y135800D01*
X420800Y135614D01*
X420932Y135386D01*
X421000Y135132D01*
X421000Y134868D01*
X621000Y213168D02*
X620932Y212914D01*
X620800Y212686D01*
X620614Y212500D01*
X620386Y212368D01*
X620132Y212300D01*
X619868Y212300D01*
X619614Y212368D01*
X619386Y212500D01*
X619200Y212686D01*
X619068Y212914D01*
X619000Y213168D01*
X619000Y213432D01*
X619068Y213686D01*
X619200Y213914D01*
X619386Y214100D01*
X619614Y214232D01*
X619868Y214300D01*
X620132Y214300D01*
X620386Y214232D01*
X620614Y214100D01*
X620800Y213914D01*
X620932Y213686D01*
X621000Y213432D01*
X621000Y213168D01*
X621000Y216468D02*
X620932Y216214D01*
X620800Y215986D01*
X620614Y215800D01*
X620386Y215668D01*
X620132Y215600D01*
X619868Y215600D01*
X619614Y215668D01*
X619386Y215800D01*
X619200Y215986D01*
X619068Y216214D01*
X619000Y216468D01*
X619000Y216732D01*
X619068Y216986D01*
X619200Y217214D01*
X619386Y217400D01*
X619614Y217532D01*
X619868Y217600D01*
X620132Y217600D01*
X620386Y217532D01*
X620614Y217400D01*
X620800Y217214D01*
X620932Y216986D01*
X621000Y216732D01*
X621000Y216468D01*
X621000Y219868D02*
X620932Y219614D01*
X620800Y219386D01*
X620614Y219200D01*
X620386Y219068D01*
X620132Y219000D01*
X619868Y219000D01*
X619614Y219068D01*
X619386Y219200D01*
X619200Y219386D01*
X619068Y219614D01*
X619000Y219868D01*
X619000Y220132D01*
X619068Y220386D01*
X619200Y220614D01*
X619386Y220800D01*
X619614Y220932D01*
X619868Y221000D01*
X620132Y221000D01*
X620386Y220932D01*
X620614Y220800D01*
X620800Y220614D01*
X620932Y220386D01*
X621000Y220132D01*
X621000Y219868D01*
X621000Y209868D02*
X620932Y209614D01*
X620800Y209386D01*
X620614Y209200D01*
X620386Y209068D01*
X620132Y209000D01*
X619868Y209000D01*
X619614Y209068D01*
X619386Y209200D01*
X619200Y209386D01*
X619068Y209614D01*
X619000Y209868D01*
X619000Y210132D01*
X619068Y210386D01*
X619200Y210614D01*
X619386Y210800D01*
X619614Y210932D01*
X619868Y211000D01*
X620132Y211000D01*
X620386Y210932D01*
X620614Y210800D01*
X620800Y210614D01*
X620932Y210386D01*
X621000Y210132D01*
X621000Y209868D01*
X631000Y216568D02*
X630932Y216314D01*
X630800Y216086D01*
X630614Y215900D01*
X630386Y215768D01*
X630132Y215700D01*
X629868Y215700D01*
X629614Y215768D01*
X629386Y215900D01*
X629200Y216086D01*
X629068Y216314D01*
X629000Y216568D01*
X629000Y216832D01*
X629068Y217086D01*
X629200Y217314D01*
X629386Y217500D01*
X629614Y217632D01*
X629868Y217700D01*
X630132Y217700D01*
X630386Y217632D01*
X630614Y217500D01*
X630800Y217314D01*
X630932Y217086D01*
X631000Y216832D01*
X631000Y216568D01*
X631000Y213268D02*
X630932Y213014D01*
X630800Y212786D01*
X630614Y212600D01*
X630386Y212468D01*
X630132Y212400D01*
X629868Y212400D01*
X629614Y212468D01*
X629386Y212600D01*
X629200Y212786D01*
X629068Y213014D01*
X629000Y213268D01*
X629000Y213532D01*
X629068Y213786D01*
X629200Y214014D01*
X629386Y214200D01*
X629614Y214332D01*
X629868Y214400D01*
X630132Y214400D01*
X630386Y214332D01*
X630614Y214200D01*
X630800Y214014D01*
X630932Y213786D01*
X631000Y213532D01*
X631000Y213268D01*
X631000Y209868D02*
X630932Y209614D01*
X630800Y209386D01*
X630614Y209200D01*
X630386Y209068D01*
X630132Y209000D01*
X629868Y209000D01*
X629614Y209068D01*
X629386Y209200D01*
X629200Y209386D01*
X629068Y209614D01*
X629000Y209868D01*
X629000Y210132D01*
X629068Y210386D01*
X629200Y210614D01*
X629386Y210800D01*
X629614Y210932D01*
X629868Y211000D01*
X630132Y211000D01*
X630386Y210932D01*
X630614Y210800D01*
X630800Y210614D01*
X630932Y210386D01*
X631000Y210132D01*
X631000Y209868D01*
X631000Y219868D02*
X630932Y219614D01*
X630800Y219386D01*
X630614Y219200D01*
X630386Y219068D01*
X630132Y219000D01*
X629868Y219000D01*
X629614Y219068D01*
X629386Y219200D01*
X629200Y219386D01*
X629068Y219614D01*
X629000Y219868D01*
X629000Y220132D01*
X629068Y220386D01*
X629200Y220614D01*
X629386Y220800D01*
X629614Y220932D01*
X629868Y221000D01*
X630132Y221000D01*
X630386Y220932D01*
X630614Y220800D01*
X630800Y220614D01*
X630932Y220386D01*
X631000Y220132D01*
X631000Y219868D01*
X621000Y183168D02*
X620932Y182914D01*
X620800Y182686D01*
X620614Y182500D01*
X620386Y182368D01*
X620132Y182300D01*
X619868Y182300D01*
X619614Y182368D01*
X619386Y182500D01*
X619200Y182686D01*
X619068Y182914D01*
X619000Y183168D01*
X619000Y183432D01*
X619068Y183686D01*
X619200Y183914D01*
X619386Y184100D01*
X619614Y184232D01*
X619868Y184300D01*
X620132Y184300D01*
X620386Y184232D01*
X620614Y184100D01*
X620800Y183914D01*
X620932Y183686D01*
X621000Y183432D01*
X621000Y183168D01*
X621000Y186468D02*
X620932Y186214D01*
X620800Y185986D01*
X620614Y185800D01*
X620386Y185668D01*
X620132Y185600D01*
X619868Y185600D01*
X619614Y185668D01*
X619386Y185800D01*
X619200Y185986D01*
X619068Y186214D01*
X619000Y186468D01*
X619000Y186732D01*
X619068Y186986D01*
X619200Y187214D01*
X619386Y187400D01*
X619614Y187532D01*
X619868Y187600D01*
X620132Y187600D01*
X620386Y187532D01*
X620614Y187400D01*
X620800Y187214D01*
X620932Y186986D01*
X621000Y186732D01*
X621000Y186468D01*
X621000Y189868D02*
X620932Y189614D01*
X620800Y189386D01*
X620614Y189200D01*
X620386Y189068D01*
X620132Y189000D01*
X619868Y189000D01*
X619614Y189068D01*
X619386Y189200D01*
X619200Y189386D01*
X619068Y189614D01*
X619000Y189868D01*
X619000Y190132D01*
X619068Y190386D01*
X619200Y190614D01*
X619386Y190800D01*
X619614Y190932D01*
X619868Y191000D01*
X620132Y191000D01*
X620386Y190932D01*
X620614Y190800D01*
X620800Y190614D01*
X620932Y190386D01*
X621000Y190132D01*
X621000Y189868D01*
X621000Y179868D02*
X620932Y179614D01*
X620800Y179386D01*
X620614Y179200D01*
X620386Y179068D01*
X620132Y179000D01*
X619868Y179000D01*
X619614Y179068D01*
X619386Y179200D01*
X619200Y179386D01*
X619068Y179614D01*
X619000Y179868D01*
X619000Y180132D01*
X619068Y180386D01*
X619200Y180614D01*
X619386Y180800D01*
X619614Y180932D01*
X619868Y181000D01*
X620132Y181000D01*
X620386Y180932D01*
X620614Y180800D01*
X620800Y180614D01*
X620932Y180386D01*
X621000Y180132D01*
X621000Y179868D01*
X631000Y186568D02*
X630932Y186314D01*
X630800Y186086D01*
X630614Y185900D01*
X630386Y185768D01*
X630132Y185700D01*
X629868Y185700D01*
X629614Y185768D01*
X629386Y185900D01*
X629200Y186086D01*
X629068Y186314D01*
X629000Y186568D01*
X629000Y186832D01*
X629068Y187086D01*
X629200Y187314D01*
X629386Y187500D01*
X629614Y187632D01*
X629868Y187700D01*
X630132Y187700D01*
X630386Y187632D01*
X630614Y187500D01*
X630800Y187314D01*
X630932Y187086D01*
X631000Y186832D01*
X631000Y186568D01*
X631000Y183268D02*
X630932Y183014D01*
X630800Y182786D01*
X630614Y182600D01*
X630386Y182468D01*
X630132Y182400D01*
X629868Y182400D01*
X629614Y182468D01*
X629386Y182600D01*
X629200Y182786D01*
X629068Y183014D01*
X629000Y183268D01*
X629000Y183532D01*
X629068Y183786D01*
X629200Y184014D01*
X629386Y184200D01*
X629614Y184332D01*
X629868Y184400D01*
X630132Y184400D01*
X630386Y184332D01*
X630614Y184200D01*
X630800Y184014D01*
X630932Y183786D01*
X631000Y183532D01*
X631000Y183268D01*
X631000Y179868D02*
X630932Y179614D01*
X630800Y179386D01*
X630614Y179200D01*
X630386Y179068D01*
X630132Y179000D01*
X629868Y179000D01*
X629614Y179068D01*
X629386Y179200D01*
X629200Y179386D01*
X629068Y179614D01*
X629000Y179868D01*
X629000Y180132D01*
X629068Y180386D01*
X629200Y180614D01*
X629386Y180800D01*
X629614Y180932D01*
X629868Y181000D01*
X630132Y181000D01*
X630386Y180932D01*
X630614Y180800D01*
X630800Y180614D01*
X630932Y180386D01*
X631000Y180132D01*
X631000Y179868D01*
X631000Y189868D02*
X630932Y189614D01*
X630800Y189386D01*
X630614Y189200D01*
X630386Y189068D01*
X630132Y189000D01*
X629868Y189000D01*
X629614Y189068D01*
X629386Y189200D01*
X629200Y189386D01*
X629068Y189614D01*
X629000Y189868D01*
X629000Y190132D01*
X629068Y190386D01*
X629200Y190614D01*
X629386Y190800D01*
X629614Y190932D01*
X629868Y191000D01*
X630132Y191000D01*
X630386Y190932D01*
X630614Y190800D01*
X630800Y190614D01*
X630932Y190386D01*
X631000Y190132D01*
X631000Y189868D01*
X621000Y198168D02*
X620932Y197914D01*
X620800Y197686D01*
X620614Y197500D01*
X620386Y197368D01*
X620132Y197300D01*
X619868Y197300D01*
X619614Y197368D01*
X619386Y197500D01*
X619200Y197686D01*
X619068Y197914D01*
X619000Y198168D01*
X619000Y198432D01*
X619068Y198686D01*
X619200Y198914D01*
X619386Y199100D01*
X619614Y199232D01*
X619868Y199300D01*
X620132Y199300D01*
X620386Y199232D01*
X620614Y199100D01*
X620800Y198914D01*
X620932Y198686D01*
X621000Y198432D01*
X621000Y198168D01*
X621000Y201468D02*
X620932Y201214D01*
X620800Y200986D01*
X620614Y200800D01*
X620386Y200668D01*
X620132Y200600D01*
X619868Y200600D01*
X619614Y200668D01*
X619386Y200800D01*
X619200Y200986D01*
X619068Y201214D01*
X619000Y201468D01*
X619000Y201732D01*
X619068Y201986D01*
X619200Y202214D01*
X619386Y202400D01*
X619614Y202532D01*
X619868Y202600D01*
X620132Y202600D01*
X620386Y202532D01*
X620614Y202400D01*
X620800Y202214D01*
X620932Y201986D01*
X621000Y201732D01*
X621000Y201468D01*
X621000Y204868D02*
X620932Y204614D01*
X620800Y204386D01*
X620614Y204200D01*
X620386Y204068D01*
X620132Y204000D01*
X619868Y204000D01*
X619614Y204068D01*
X619386Y204200D01*
X619200Y204386D01*
X619068Y204614D01*
X619000Y204868D01*
X619000Y205132D01*
X619068Y205386D01*
X619200Y205614D01*
X619386Y205800D01*
X619614Y205932D01*
X619868Y206000D01*
X620132Y206000D01*
X620386Y205932D01*
X620614Y205800D01*
X620800Y205614D01*
X620932Y205386D01*
X621000Y205132D01*
X621000Y204868D01*
X621000Y194868D02*
X620932Y194614D01*
X620800Y194386D01*
X620614Y194200D01*
X620386Y194068D01*
X620132Y194000D01*
X619868Y194000D01*
X619614Y194068D01*
X619386Y194200D01*
X619200Y194386D01*
X619068Y194614D01*
X619000Y194868D01*
X619000Y195132D01*
X619068Y195386D01*
X619200Y195614D01*
X619386Y195800D01*
X619614Y195932D01*
X619868Y196000D01*
X620132Y196000D01*
X620386Y195932D01*
X620614Y195800D01*
X620800Y195614D01*
X620932Y195386D01*
X621000Y195132D01*
X621000Y194868D01*
X631000Y201568D02*
X630932Y201314D01*
X630800Y201086D01*
X630614Y200900D01*
X630386Y200768D01*
X630132Y200700D01*
X629868Y200700D01*
X629614Y200768D01*
X629386Y200900D01*
X629200Y201086D01*
X629068Y201314D01*
X629000Y201568D01*
X629000Y201832D01*
X629068Y202086D01*
X629200Y202314D01*
X629386Y202500D01*
X629614Y202632D01*
X629868Y202700D01*
X630132Y202700D01*
X630386Y202632D01*
X630614Y202500D01*
X630800Y202314D01*
X630932Y202086D01*
X631000Y201832D01*
X631000Y201568D01*
X631000Y198268D02*
X630932Y198014D01*
X630800Y197786D01*
X630614Y197600D01*
X630386Y197468D01*
X630132Y197400D01*
X629868Y197400D01*
X629614Y197468D01*
X629386Y197600D01*
X629200Y197786D01*
X629068Y198014D01*
X629000Y198268D01*
X629000Y198532D01*
X629068Y198786D01*
X629200Y199014D01*
X629386Y199200D01*
X629614Y199332D01*
X629868Y199400D01*
X630132Y199400D01*
X630386Y199332D01*
X630614Y199200D01*
X630800Y199014D01*
X630932Y198786D01*
X631000Y198532D01*
X631000Y198268D01*
X631000Y194868D02*
X630932Y194614D01*
X630800Y194386D01*
X630614Y194200D01*
X630386Y194068D01*
X630132Y194000D01*
X629868Y194000D01*
X629614Y194068D01*
X629386Y194200D01*
X629200Y194386D01*
X629068Y194614D01*
X629000Y194868D01*
X629000Y195132D01*
X629068Y195386D01*
X629200Y195614D01*
X629386Y195800D01*
X629614Y195932D01*
X629868Y196000D01*
X630132Y196000D01*
X630386Y195932D01*
X630614Y195800D01*
X630800Y195614D01*
X630932Y195386D01*
X631000Y195132D01*
X631000Y194868D01*
X631000Y204868D02*
X630932Y204614D01*
X630800Y204386D01*
X630614Y204200D01*
X630386Y204068D01*
X630132Y204000D01*
X629868Y204000D01*
X629614Y204068D01*
X629386Y204200D01*
X629200Y204386D01*
X629068Y204614D01*
X629000Y204868D01*
X629000Y205132D01*
X629068Y205386D01*
X629200Y205614D01*
X629386Y205800D01*
X629614Y205932D01*
X629868Y206000D01*
X630132Y206000D01*
X630386Y205932D01*
X630614Y205800D01*
X630800Y205614D01*
X630932Y205386D01*
X631000Y205132D01*
X631000Y204868D01*
X621000Y143168D02*
X620932Y142914D01*
X620800Y142686D01*
X620614Y142500D01*
X620386Y142368D01*
X620132Y142300D01*
X619868Y142300D01*
X619614Y142368D01*
X619386Y142500D01*
X619200Y142686D01*
X619068Y142914D01*
X619000Y143168D01*
X619000Y143432D01*
X619068Y143686D01*
X619200Y143914D01*
X619386Y144100D01*
X619614Y144232D01*
X619868Y144300D01*
X620132Y144300D01*
X620386Y144232D01*
X620614Y144100D01*
X620800Y143914D01*
X620932Y143686D01*
X621000Y143432D01*
X621000Y143168D01*
X621000Y146468D02*
X620932Y146214D01*
X620800Y145986D01*
X620614Y145800D01*
X620386Y145668D01*
X620132Y145600D01*
X619868Y145600D01*
X619614Y145668D01*
X619386Y145800D01*
X619200Y145986D01*
X619068Y146214D01*
X619000Y146468D01*
X619000Y146732D01*
X619068Y146986D01*
X619200Y147214D01*
X619386Y147400D01*
X619614Y147532D01*
X619868Y147600D01*
X620132Y147600D01*
X620386Y147532D01*
X620614Y147400D01*
X620800Y147214D01*
X620932Y146986D01*
X621000Y146732D01*
X621000Y146468D01*
X621000Y149868D02*
X620932Y149614D01*
X620800Y149386D01*
X620614Y149200D01*
X620386Y149068D01*
X620132Y149000D01*
X619868Y149000D01*
X619614Y149068D01*
X619386Y149200D01*
X619200Y149386D01*
X619068Y149614D01*
X619000Y149868D01*
X619000Y150132D01*
X619068Y150386D01*
X619200Y150614D01*
X619386Y150800D01*
X619614Y150932D01*
X619868Y151000D01*
X620132Y151000D01*
X620386Y150932D01*
X620614Y150800D01*
X620800Y150614D01*
X620932Y150386D01*
X621000Y150132D01*
X621000Y149868D01*
X621000Y139868D02*
X620932Y139614D01*
X620800Y139386D01*
X620614Y139200D01*
X620386Y139068D01*
X620132Y139000D01*
X619868Y139000D01*
X619614Y139068D01*
X619386Y139200D01*
X619200Y139386D01*
X619068Y139614D01*
X619000Y139868D01*
X619000Y140132D01*
X619068Y140386D01*
X619200Y140614D01*
X619386Y140800D01*
X619614Y140932D01*
X619868Y141000D01*
X620132Y141000D01*
X620386Y140932D01*
X620614Y140800D01*
X620800Y140614D01*
X620932Y140386D01*
X621000Y140132D01*
X621000Y139868D01*
X631000Y146568D02*
X630932Y146314D01*
X630800Y146086D01*
X630614Y145900D01*
X630386Y145768D01*
X630132Y145700D01*
X629868Y145700D01*
X629614Y145768D01*
X629386Y145900D01*
X629200Y146086D01*
X629068Y146314D01*
X629000Y146568D01*
X629000Y146832D01*
X629068Y147086D01*
X629200Y147314D01*
X629386Y147500D01*
X629614Y147632D01*
X629868Y147700D01*
X630132Y147700D01*
X630386Y147632D01*
X630614Y147500D01*
X630800Y147314D01*
X630932Y147086D01*
X631000Y146832D01*
X631000Y146568D01*
X631000Y143268D02*
X630932Y143014D01*
X630800Y142786D01*
X630614Y142600D01*
X630386Y142468D01*
X630132Y142400D01*
X629868Y142400D01*
X629614Y142468D01*
X629386Y142600D01*
X629200Y142786D01*
X629068Y143014D01*
X629000Y143268D01*
X629000Y143532D01*
X629068Y143786D01*
X629200Y144014D01*
X629386Y144200D01*
X629614Y144332D01*
X629868Y144400D01*
X630132Y144400D01*
X630386Y144332D01*
X630614Y144200D01*
X630800Y144014D01*
X630932Y143786D01*
X631000Y143532D01*
X631000Y143268D01*
X631000Y139868D02*
X630932Y139614D01*
X630800Y139386D01*
X630614Y139200D01*
X630386Y139068D01*
X630132Y139000D01*
X629868Y139000D01*
X629614Y139068D01*
X629386Y139200D01*
X629200Y139386D01*
X629068Y139614D01*
X629000Y139868D01*
X629000Y140132D01*
X629068Y140386D01*
X629200Y140614D01*
X629386Y140800D01*
X629614Y140932D01*
X629868Y141000D01*
X630132Y141000D01*
X630386Y140932D01*
X630614Y140800D01*
X630800Y140614D01*
X630932Y140386D01*
X631000Y140132D01*
X631000Y139868D01*
X631000Y149868D02*
X630932Y149614D01*
X630800Y149386D01*
X630614Y149200D01*
X630386Y149068D01*
X630132Y149000D01*
X629868Y149000D01*
X629614Y149068D01*
X629386Y149200D01*
X629200Y149386D01*
X629068Y149614D01*
X629000Y149868D01*
X629000Y150132D01*
X629068Y150386D01*
X629200Y150614D01*
X629386Y150800D01*
X629614Y150932D01*
X629868Y151000D01*
X630132Y151000D01*
X630386Y150932D01*
X630614Y150800D01*
X630800Y150614D01*
X630932Y150386D01*
X631000Y150132D01*
X631000Y149868D01*
X621000Y123168D02*
X620932Y122914D01*
X620800Y122686D01*
X620614Y122500D01*
X620386Y122368D01*
X620132Y122300D01*
X619868Y122300D01*
X619614Y122368D01*
X619386Y122500D01*
X619200Y122686D01*
X619068Y122914D01*
X619000Y123168D01*
X619000Y123432D01*
X619068Y123686D01*
X619200Y123914D01*
X619386Y124100D01*
X619614Y124232D01*
X619868Y124300D01*
X620132Y124300D01*
X620386Y124232D01*
X620614Y124100D01*
X620800Y123914D01*
X620932Y123686D01*
X621000Y123432D01*
X621000Y123168D01*
X621000Y126468D02*
X620932Y126214D01*
X620800Y125986D01*
X620614Y125800D01*
X620386Y125668D01*
X620132Y125600D01*
X619868Y125600D01*
X619614Y125668D01*
X619386Y125800D01*
X619200Y125986D01*
X619068Y126214D01*
X619000Y126468D01*
X619000Y126732D01*
X619068Y126986D01*
X619200Y127214D01*
X619386Y127400D01*
X619614Y127532D01*
X619868Y127600D01*
X620132Y127600D01*
X620386Y127532D01*
X620614Y127400D01*
X620800Y127214D01*
X620932Y126986D01*
X621000Y126732D01*
X621000Y126468D01*
X621000Y129868D02*
X620932Y129614D01*
X620800Y129386D01*
X620614Y129200D01*
X620386Y129068D01*
X620132Y129000D01*
X619868Y129000D01*
X619614Y129068D01*
X619386Y129200D01*
X619200Y129386D01*
X619068Y129614D01*
X619000Y129868D01*
X619000Y130132D01*
X619068Y130386D01*
X619200Y130614D01*
X619386Y130800D01*
X619614Y130932D01*
X619868Y131000D01*
X620132Y131000D01*
X620386Y130932D01*
X620614Y130800D01*
X620800Y130614D01*
X620932Y130386D01*
X621000Y130132D01*
X621000Y129868D01*
X621000Y119868D02*
X620932Y119614D01*
X620800Y119386D01*
X620614Y119200D01*
X620386Y119068D01*
X620132Y119000D01*
X619868Y119000D01*
X619614Y119068D01*
X619386Y119200D01*
X619200Y119386D01*
X619068Y119614D01*
X619000Y119868D01*
X619000Y120132D01*
X619068Y120386D01*
X619200Y120614D01*
X619386Y120800D01*
X619614Y120932D01*
X619868Y121000D01*
X620132Y121000D01*
X620386Y120932D01*
X620614Y120800D01*
X620800Y120614D01*
X620932Y120386D01*
X621000Y120132D01*
X621000Y119868D01*
X631000Y126568D02*
X630932Y126314D01*
X630800Y126086D01*
X630614Y125900D01*
X630386Y125768D01*
X630132Y125700D01*
X629868Y125700D01*
X629614Y125768D01*
X629386Y125900D01*
X629200Y126086D01*
X629068Y126314D01*
X629000Y126568D01*
X629000Y126832D01*
X629068Y127086D01*
X629200Y127314D01*
X629386Y127500D01*
X629614Y127632D01*
X629868Y127700D01*
X630132Y127700D01*
X630386Y127632D01*
X630614Y127500D01*
X630800Y127314D01*
X630932Y127086D01*
X631000Y126832D01*
X631000Y126568D01*
X631000Y123268D02*
X630932Y123014D01*
X630800Y122786D01*
X630614Y122600D01*
X630386Y122468D01*
X630132Y122400D01*
X629868Y122400D01*
X629614Y122468D01*
X629386Y122600D01*
X629200Y122786D01*
X629068Y123014D01*
X629000Y123268D01*
X629000Y123532D01*
X629068Y123786D01*
X629200Y124014D01*
X629386Y124200D01*
X629614Y124332D01*
X629868Y124400D01*
X630132Y124400D01*
X630386Y124332D01*
X630614Y124200D01*
X630800Y124014D01*
X630932Y123786D01*
X631000Y123532D01*
X631000Y123268D01*
X631000Y119868D02*
X630932Y119614D01*
X630800Y119386D01*
X630614Y119200D01*
X630386Y119068D01*
X630132Y119000D01*
X629868Y119000D01*
X629614Y119068D01*
X629386Y119200D01*
X629200Y119386D01*
X629068Y119614D01*
X629000Y119868D01*
X629000Y120132D01*
X629068Y120386D01*
X629200Y120614D01*
X629386Y120800D01*
X629614Y120932D01*
X629868Y121000D01*
X630132Y121000D01*
X630386Y120932D01*
X630614Y120800D01*
X630800Y120614D01*
X630932Y120386D01*
X631000Y120132D01*
X631000Y119868D01*
X631000Y129868D02*
X630932Y129614D01*
X630800Y129386D01*
X630614Y129200D01*
X630386Y129068D01*
X630132Y129000D01*
X629868Y129000D01*
X629614Y129068D01*
X629386Y129200D01*
X629200Y129386D01*
X629068Y129614D01*
X629000Y129868D01*
X629000Y130132D01*
X629068Y130386D01*
X629200Y130614D01*
X629386Y130800D01*
X629614Y130932D01*
X629868Y131000D01*
X630132Y131000D01*
X630386Y130932D01*
X630614Y130800D01*
X630800Y130614D01*
X630932Y130386D01*
X631000Y130132D01*
X631000Y129868D01*
X621000Y83168D02*
X620932Y82914D01*
X620800Y82686D01*
X620614Y82500D01*
X620386Y82368D01*
X620132Y82300D01*
X619868Y82300D01*
X619614Y82368D01*
X619386Y82500D01*
X619200Y82686D01*
X619068Y82914D01*
X619000Y83168D01*
X619000Y83432D01*
X619068Y83686D01*
X619200Y83914D01*
X619386Y84100D01*
X619614Y84232D01*
X619868Y84300D01*
X620132Y84300D01*
X620386Y84232D01*
X620614Y84100D01*
X620800Y83914D01*
X620932Y83686D01*
X621000Y83432D01*
X621000Y83168D01*
X621000Y86468D02*
X620932Y86214D01*
X620800Y85986D01*
X620614Y85800D01*
X620386Y85668D01*
X620132Y85600D01*
X619868Y85600D01*
X619614Y85668D01*
X619386Y85800D01*
X619200Y85986D01*
X619068Y86214D01*
X619000Y86468D01*
X619000Y86732D01*
X619068Y86986D01*
X619200Y87214D01*
X619386Y87400D01*
X619614Y87532D01*
X619868Y87600D01*
X620132Y87600D01*
X620386Y87532D01*
X620614Y87400D01*
X620800Y87214D01*
X620932Y86986D01*
X621000Y86732D01*
X621000Y86468D01*
X621000Y89868D02*
X620932Y89614D01*
X620800Y89386D01*
X620614Y89200D01*
X620386Y89068D01*
X620132Y89000D01*
X619868Y89000D01*
X619614Y89068D01*
X619386Y89200D01*
X619200Y89386D01*
X619068Y89614D01*
X619000Y89868D01*
X619000Y90132D01*
X619068Y90386D01*
X619200Y90614D01*
X619386Y90800D01*
X619614Y90932D01*
X619868Y91000D01*
X620132Y91000D01*
X620386Y90932D01*
X620614Y90800D01*
X620800Y90614D01*
X620932Y90386D01*
X621000Y90132D01*
X621000Y89868D01*
X621000Y79868D02*
X620932Y79614D01*
X620800Y79386D01*
X620614Y79200D01*
X620386Y79068D01*
X620132Y79000D01*
X619868Y79000D01*
X619614Y79068D01*
X619386Y79200D01*
X619200Y79386D01*
X619068Y79614D01*
X619000Y79868D01*
X619000Y80132D01*
X619068Y80386D01*
X619200Y80614D01*
X619386Y80800D01*
X619614Y80932D01*
X619868Y81000D01*
X620132Y81000D01*
X620386Y80932D01*
X620614Y80800D01*
X620800Y80614D01*
X620932Y80386D01*
X621000Y80132D01*
X621000Y79868D01*
X631000Y86568D02*
X630932Y86314D01*
X630800Y86086D01*
X630614Y85900D01*
X630386Y85768D01*
X630132Y85700D01*
X629868Y85700D01*
X629614Y85768D01*
X629386Y85900D01*
X629200Y86086D01*
X629068Y86314D01*
X629000Y86568D01*
X629000Y86832D01*
X629068Y87086D01*
X629200Y87314D01*
X629386Y87500D01*
X629614Y87632D01*
X629868Y87700D01*
X630132Y87700D01*
X630386Y87632D01*
X630614Y87500D01*
X630800Y87314D01*
X630932Y87086D01*
X631000Y86832D01*
X631000Y86568D01*
X631000Y83268D02*
X630932Y83014D01*
X630800Y82786D01*
X630614Y82600D01*
X630386Y82468D01*
X630132Y82400D01*
X629868Y82400D01*
X629614Y82468D01*
X629386Y82600D01*
X629200Y82786D01*
X629068Y83014D01*
X629000Y83268D01*
X629000Y83532D01*
X629068Y83786D01*
X629200Y84014D01*
X629386Y84200D01*
X629614Y84332D01*
X629868Y84400D01*
X630132Y84400D01*
X630386Y84332D01*
X630614Y84200D01*
X630800Y84014D01*
X630932Y83786D01*
X631000Y83532D01*
X631000Y83268D01*
X631000Y79868D02*
X630932Y79614D01*
X630800Y79386D01*
X630614Y79200D01*
X630386Y79068D01*
X630132Y79000D01*
X629868Y79000D01*
X629614Y79068D01*
X629386Y79200D01*
X629200Y79386D01*
X629068Y79614D01*
X629000Y79868D01*
X629000Y80132D01*
X629068Y80386D01*
X629200Y80614D01*
X629386Y80800D01*
X629614Y80932D01*
X629868Y81000D01*
X630132Y81000D01*
X630386Y80932D01*
X630614Y80800D01*
X630800Y80614D01*
X630932Y80386D01*
X631000Y80132D01*
X631000Y79868D01*
X631000Y89868D02*
X630932Y89614D01*
X630800Y89386D01*
X630614Y89200D01*
X630386Y89068D01*
X630132Y89000D01*
X629868Y89000D01*
X629614Y89068D01*
X629386Y89200D01*
X629200Y89386D01*
X629068Y89614D01*
X629000Y89868D01*
X629000Y90132D01*
X629068Y90386D01*
X629200Y90614D01*
X629386Y90800D01*
X629614Y90932D01*
X629868Y91000D01*
X630132Y91000D01*
X630386Y90932D01*
X630614Y90800D01*
X630800Y90614D01*
X630932Y90386D01*
X631000Y90132D01*
X631000Y89868D01*
X621000Y53168D02*
X620932Y52914D01*
X620800Y52686D01*
X620614Y52500D01*
X620386Y52368D01*
X620132Y52300D01*
X619868Y52300D01*
X619614Y52368D01*
X619386Y52500D01*
X619200Y52686D01*
X619068Y52914D01*
X619000Y53168D01*
X619000Y53432D01*
X619068Y53686D01*
X619200Y53914D01*
X619386Y54100D01*
X619614Y54232D01*
X619868Y54300D01*
X620132Y54300D01*
X620386Y54232D01*
X620614Y54100D01*
X620800Y53914D01*
X620932Y53686D01*
X621000Y53432D01*
X621000Y53168D01*
X621000Y56468D02*
X620932Y56214D01*
X620800Y55986D01*
X620614Y55800D01*
X620386Y55668D01*
X620132Y55600D01*
X619868Y55600D01*
X619614Y55668D01*
X619386Y55800D01*
X619200Y55986D01*
X619068Y56214D01*
X619000Y56468D01*
X619000Y56732D01*
X619068Y56986D01*
X619200Y57214D01*
X619386Y57400D01*
X619614Y57532D01*
X619868Y57600D01*
X620132Y57600D01*
X620386Y57532D01*
X620614Y57400D01*
X620800Y57214D01*
X620932Y56986D01*
X621000Y56732D01*
X621000Y56468D01*
X621000Y59868D02*
X620932Y59614D01*
X620800Y59386D01*
X620614Y59200D01*
X620386Y59068D01*
X620132Y59000D01*
X619868Y59000D01*
X619614Y59068D01*
X619386Y59200D01*
X619200Y59386D01*
X619068Y59614D01*
X619000Y59868D01*
X619000Y60132D01*
X619068Y60386D01*
X619200Y60614D01*
X619386Y60800D01*
X619614Y60932D01*
X619868Y61000D01*
X620132Y61000D01*
X620386Y60932D01*
X620614Y60800D01*
X620800Y60614D01*
X620932Y60386D01*
X621000Y60132D01*
X621000Y59868D01*
X621000Y49868D02*
X620932Y49614D01*
X620800Y49386D01*
X620614Y49200D01*
X620386Y49068D01*
X620132Y49000D01*
X619868Y49000D01*
X619614Y49068D01*
X619386Y49200D01*
X619200Y49386D01*
X619068Y49614D01*
X619000Y49868D01*
X619000Y50132D01*
X619068Y50386D01*
X619200Y50614D01*
X619386Y50800D01*
X619614Y50932D01*
X619868Y51000D01*
X620132Y51000D01*
X620386Y50932D01*
X620614Y50800D01*
X620800Y50614D01*
X620932Y50386D01*
X621000Y50132D01*
X621000Y49868D01*
X631000Y56568D02*
X630932Y56314D01*
X630800Y56086D01*
X630614Y55900D01*
X630386Y55768D01*
X630132Y55700D01*
X629868Y55700D01*
X629614Y55768D01*
X629386Y55900D01*
X629200Y56086D01*
X629068Y56314D01*
X629000Y56568D01*
X629000Y56832D01*
X629068Y57086D01*
X629200Y57314D01*
X629386Y57500D01*
X629614Y57632D01*
X629868Y57700D01*
X630132Y57700D01*
X630386Y57632D01*
X630614Y57500D01*
X630800Y57314D01*
X630932Y57086D01*
X631000Y56832D01*
X631000Y56568D01*
X631000Y53268D02*
X630932Y53014D01*
X630800Y52786D01*
X630614Y52600D01*
X630386Y52468D01*
X630132Y52400D01*
X629868Y52400D01*
X629614Y52468D01*
X629386Y52600D01*
X629200Y52786D01*
X629068Y53014D01*
X629000Y53268D01*
X629000Y53532D01*
X629068Y53786D01*
X629200Y54014D01*
X629386Y54200D01*
X629614Y54332D01*
X629868Y54400D01*
X630132Y54400D01*
X630386Y54332D01*
X630614Y54200D01*
X630800Y54014D01*
X630932Y53786D01*
X631000Y53532D01*
X631000Y53268D01*
X631000Y49868D02*
X630932Y49614D01*
X630800Y49386D01*
X630614Y49200D01*
X630386Y49068D01*
X630132Y49000D01*
X629868Y49000D01*
X629614Y49068D01*
X629386Y49200D01*
X629200Y49386D01*
X629068Y49614D01*
X629000Y49868D01*
X629000Y50132D01*
X629068Y50386D01*
X629200Y50614D01*
X629386Y50800D01*
X629614Y50932D01*
X629868Y51000D01*
X630132Y51000D01*
X630386Y50932D01*
X630614Y50800D01*
X630800Y50614D01*
X630932Y50386D01*
X631000Y50132D01*
X631000Y49868D01*
X631000Y59868D02*
X630932Y59614D01*
X630800Y59386D01*
X630614Y59200D01*
X630386Y59068D01*
X630132Y59000D01*
X629868Y59000D01*
X629614Y59068D01*
X629386Y59200D01*
X629200Y59386D01*
X629068Y59614D01*
X629000Y59868D01*
X629000Y60132D01*
X629068Y60386D01*
X629200Y60614D01*
X629386Y60800D01*
X629614Y60932D01*
X629868Y61000D01*
X630132Y61000D01*
X630386Y60932D01*
X630614Y60800D01*
X630800Y60614D01*
X630932Y60386D01*
X631000Y60132D01*
X631000Y59868D01*
X621000Y68168D02*
X620932Y67914D01*
X620800Y67686D01*
X620614Y67500D01*
X620386Y67368D01*
X620132Y67300D01*
X619868Y67300D01*
X619614Y67368D01*
X619386Y67500D01*
X619200Y67686D01*
X619068Y67914D01*
X619000Y68168D01*
X619000Y68432D01*
X619068Y68686D01*
X619200Y68914D01*
X619386Y69100D01*
X619614Y69232D01*
X619868Y69300D01*
X620132Y69300D01*
X620386Y69232D01*
X620614Y69100D01*
X620800Y68914D01*
X620932Y68686D01*
X621000Y68432D01*
X621000Y68168D01*
X621000Y71468D02*
X620932Y71214D01*
X620800Y70986D01*
X620614Y70800D01*
X620386Y70668D01*
X620132Y70600D01*
X619868Y70600D01*
X619614Y70668D01*
X619386Y70800D01*
X619200Y70986D01*
X619068Y71214D01*
X619000Y71468D01*
X619000Y71732D01*
X619068Y71986D01*
X619200Y72214D01*
X619386Y72400D01*
X619614Y72532D01*
X619868Y72600D01*
X620132Y72600D01*
X620386Y72532D01*
X620614Y72400D01*
X620800Y72214D01*
X620932Y71986D01*
X621000Y71732D01*
X621000Y71468D01*
X621000Y74868D02*
X620932Y74614D01*
X620800Y74386D01*
X620614Y74200D01*
X620386Y74068D01*
X620132Y74000D01*
X619868Y74000D01*
X619614Y74068D01*
X619386Y74200D01*
X619200Y74386D01*
X619068Y74614D01*
X619000Y74868D01*
X619000Y75132D01*
X619068Y75386D01*
X619200Y75614D01*
X619386Y75800D01*
X619614Y75932D01*
X619868Y76000D01*
X620132Y76000D01*
X620386Y75932D01*
X620614Y75800D01*
X620800Y75614D01*
X620932Y75386D01*
X621000Y75132D01*
X621000Y74868D01*
X621000Y64868D02*
X620932Y64614D01*
X620800Y64386D01*
X620614Y64200D01*
X620386Y64068D01*
X620132Y64000D01*
X619868Y64000D01*
X619614Y64068D01*
X619386Y64200D01*
X619200Y64386D01*
X619068Y64614D01*
X619000Y64868D01*
X619000Y65132D01*
X619068Y65386D01*
X619200Y65614D01*
X619386Y65800D01*
X619614Y65932D01*
X619868Y66000D01*
X620132Y66000D01*
X620386Y65932D01*
X620614Y65800D01*
X620800Y65614D01*
X620932Y65386D01*
X621000Y65132D01*
X621000Y64868D01*
X631000Y71568D02*
X630932Y71314D01*
X630800Y71086D01*
X630614Y70900D01*
X630386Y70768D01*
X630132Y70700D01*
X629868Y70700D01*
X629614Y70768D01*
X629386Y70900D01*
X629200Y71086D01*
X629068Y71314D01*
X629000Y71568D01*
X629000Y71832D01*
X629068Y72086D01*
X629200Y72314D01*
X629386Y72500D01*
X629614Y72632D01*
X629868Y72700D01*
X630132Y72700D01*
X630386Y72632D01*
X630614Y72500D01*
X630800Y72314D01*
X630932Y72086D01*
X631000Y71832D01*
X631000Y71568D01*
X631000Y68268D02*
X630932Y68014D01*
X630800Y67786D01*
X630614Y67600D01*
X630386Y67468D01*
X630132Y67400D01*
X629868Y67400D01*
X629614Y67468D01*
X629386Y67600D01*
X629200Y67786D01*
X629068Y68014D01*
X629000Y68268D01*
X629000Y68532D01*
X629068Y68786D01*
X629200Y69014D01*
X629386Y69200D01*
X629614Y69332D01*
X629868Y69400D01*
X630132Y69400D01*
X630386Y69332D01*
X630614Y69200D01*
X630800Y69014D01*
X630932Y68786D01*
X631000Y68532D01*
X631000Y68268D01*
X631000Y64868D02*
X630932Y64614D01*
X630800Y64386D01*
X630614Y64200D01*
X630386Y64068D01*
X630132Y64000D01*
X629868Y64000D01*
X629614Y64068D01*
X629386Y64200D01*
X629200Y64386D01*
X629068Y64614D01*
X629000Y64868D01*
X629000Y65132D01*
X629068Y65386D01*
X629200Y65614D01*
X629386Y65800D01*
X629614Y65932D01*
X629868Y66000D01*
X630132Y66000D01*
X630386Y65932D01*
X630614Y65800D01*
X630800Y65614D01*
X630932Y65386D01*
X631000Y65132D01*
X631000Y64868D01*
X631000Y74868D02*
X630932Y74614D01*
X630800Y74386D01*
X630614Y74200D01*
X630386Y74068D01*
X630132Y74000D01*
X629868Y74000D01*
X629614Y74068D01*
X629386Y74200D01*
X629200Y74386D01*
X629068Y74614D01*
X629000Y74868D01*
X629000Y75132D01*
X629068Y75386D01*
X629200Y75614D01*
X629386Y75800D01*
X629614Y75932D01*
X629868Y76000D01*
X630132Y76000D01*
X630386Y75932D01*
X630614Y75800D01*
X630800Y75614D01*
X630932Y75386D01*
X631000Y75132D01*
X631000Y74868D01*
X621000Y134868D02*
X620932Y134614D01*
X620800Y134386D01*
X620614Y134200D01*
X620386Y134068D01*
X620132Y134000D01*
X619868Y134000D01*
X619614Y134068D01*
X619386Y134200D01*
X619200Y134386D01*
X619068Y134614D01*
X619000Y134868D01*
X619000Y135132D01*
X619068Y135386D01*
X619200Y135614D01*
X619386Y135800D01*
X619614Y135932D01*
X619868Y136000D01*
X620132Y136000D01*
X620386Y135932D01*
X620614Y135800D01*
X620800Y135614D01*
X620932Y135386D01*
X621000Y135132D01*
X621000Y134868D01*
X631000Y134868D02*
X630932Y134614D01*
X630800Y134386D01*
X630614Y134200D01*
X630386Y134068D01*
X630132Y134000D01*
X629868Y134000D01*
X629614Y134068D01*
X629386Y134200D01*
X629200Y134386D01*
X629068Y134614D01*
X629000Y134868D01*
X629000Y135132D01*
X629068Y135386D01*
X629200Y135614D01*
X629386Y135800D01*
X629614Y135932D01*
X629868Y136000D01*
X630132Y136000D01*
X630386Y135932D01*
X630614Y135800D01*
X630800Y135614D01*
X630932Y135386D01*
X631000Y135132D01*
X631000Y134868D01*
M02*
