G04 EAGLE Gerber RS-274X export*
G75*
%MOMM*%
%FSLAX34Y34*%
%LPD*%
%INSoldermask Bottom*%
%IPPOS*%
%AMOC8*
5,1,8,0,0,1.08239X$1,22.5*%
G01*
%ADD10C,3.227000*%
%ADD11C,3.127000*%
%ADD12C,0.327000*%
%ADD13R,1.227000X1.127000*%
%ADD14C,2.070100*%
%ADD15R,1.027000X0.977000*%
%ADD16R,0.977000X1.027000*%
%ADD17R,0.897000X0.517000*%
%ADD18R,2.087000X2.827000*%
%ADD19R,0.707000X0.517000*%
%ADD20R,5.277000X5.277000*%
%ADD21R,0.967000X0.387000*%
%ADD22R,0.387000X0.967000*%
%ADD23R,1.127000X1.227000*%
%ADD24R,1.247000X1.847000*%
%ADD25R,0.577000X0.527000*%
%ADD26R,1.227000X0.727000*%
%ADD27R,0.627000X0.357000*%
%ADD28C,1.477000*%
%ADD29C,1.627000*%
%ADD30C,0.877000*%

G36*
X794550Y97131D02*
X794550Y97131D01*
X794601Y97133D01*
X794633Y97151D01*
X794669Y97159D01*
X794708Y97192D01*
X794753Y97216D01*
X794774Y97246D01*
X794802Y97269D01*
X794823Y97316D01*
X794853Y97358D01*
X794861Y97400D01*
X794873Y97428D01*
X794872Y97458D01*
X794880Y97500D01*
X794880Y106200D01*
X794869Y106250D01*
X794867Y106301D01*
X794849Y106333D01*
X794841Y106369D01*
X794808Y106408D01*
X794784Y106453D01*
X794754Y106474D01*
X794731Y106502D01*
X794684Y106523D01*
X794642Y106553D01*
X794600Y106561D01*
X794572Y106573D01*
X794542Y106572D01*
X794500Y106580D01*
X788500Y106580D01*
X788426Y106563D01*
X788351Y106550D01*
X788341Y106543D01*
X788331Y106541D01*
X788302Y106517D01*
X788231Y106469D01*
X785231Y103469D01*
X785218Y103448D01*
X785201Y103434D01*
X785182Y103392D01*
X785147Y103342D01*
X785145Y103330D01*
X785140Y103322D01*
X785137Y103290D01*
X785130Y103276D01*
X785131Y103259D01*
X785120Y103200D01*
X785120Y97500D01*
X785131Y97450D01*
X785133Y97399D01*
X785151Y97367D01*
X785159Y97331D01*
X785192Y97292D01*
X785216Y97247D01*
X785246Y97226D01*
X785269Y97198D01*
X785316Y97177D01*
X785358Y97147D01*
X785400Y97139D01*
X785428Y97127D01*
X785458Y97128D01*
X785500Y97120D01*
X794500Y97120D01*
X794550Y97131D01*
G37*
G36*
X584550Y97131D02*
X584550Y97131D01*
X584601Y97133D01*
X584633Y97151D01*
X584669Y97159D01*
X584708Y97192D01*
X584753Y97216D01*
X584774Y97246D01*
X584802Y97269D01*
X584823Y97316D01*
X584853Y97358D01*
X584861Y97400D01*
X584873Y97428D01*
X584872Y97458D01*
X584880Y97500D01*
X584880Y106200D01*
X584869Y106250D01*
X584867Y106301D01*
X584849Y106333D01*
X584841Y106369D01*
X584808Y106408D01*
X584784Y106453D01*
X584754Y106474D01*
X584731Y106502D01*
X584684Y106523D01*
X584642Y106553D01*
X584600Y106561D01*
X584572Y106573D01*
X584542Y106572D01*
X584500Y106580D01*
X578500Y106580D01*
X578426Y106563D01*
X578351Y106550D01*
X578341Y106543D01*
X578331Y106541D01*
X578302Y106517D01*
X578231Y106469D01*
X575231Y103469D01*
X575218Y103448D01*
X575201Y103434D01*
X575182Y103392D01*
X575147Y103342D01*
X575145Y103330D01*
X575140Y103322D01*
X575137Y103290D01*
X575130Y103276D01*
X575131Y103259D01*
X575120Y103200D01*
X575120Y97500D01*
X575131Y97450D01*
X575133Y97399D01*
X575151Y97367D01*
X575159Y97331D01*
X575192Y97292D01*
X575216Y97247D01*
X575246Y97226D01*
X575269Y97198D01*
X575316Y97177D01*
X575358Y97147D01*
X575400Y97139D01*
X575428Y97127D01*
X575458Y97128D01*
X575500Y97120D01*
X584500Y97120D01*
X584550Y97131D01*
G37*
G36*
X374550Y97131D02*
X374550Y97131D01*
X374601Y97133D01*
X374633Y97151D01*
X374669Y97159D01*
X374708Y97192D01*
X374753Y97216D01*
X374774Y97246D01*
X374802Y97269D01*
X374823Y97316D01*
X374853Y97358D01*
X374861Y97400D01*
X374873Y97428D01*
X374872Y97458D01*
X374880Y97500D01*
X374880Y106200D01*
X374869Y106250D01*
X374867Y106301D01*
X374849Y106333D01*
X374841Y106369D01*
X374808Y106408D01*
X374784Y106453D01*
X374754Y106474D01*
X374731Y106502D01*
X374684Y106523D01*
X374642Y106553D01*
X374600Y106561D01*
X374572Y106573D01*
X374542Y106572D01*
X374500Y106580D01*
X368500Y106580D01*
X368426Y106563D01*
X368351Y106550D01*
X368341Y106543D01*
X368331Y106541D01*
X368302Y106517D01*
X368231Y106469D01*
X365231Y103469D01*
X365218Y103448D01*
X365201Y103434D01*
X365182Y103392D01*
X365147Y103342D01*
X365145Y103330D01*
X365140Y103322D01*
X365137Y103290D01*
X365130Y103276D01*
X365131Y103259D01*
X365120Y103200D01*
X365120Y97500D01*
X365131Y97450D01*
X365133Y97399D01*
X365151Y97367D01*
X365159Y97331D01*
X365192Y97292D01*
X365216Y97247D01*
X365246Y97226D01*
X365269Y97198D01*
X365316Y97177D01*
X365358Y97147D01*
X365400Y97139D01*
X365428Y97127D01*
X365458Y97128D01*
X365500Y97120D01*
X374500Y97120D01*
X374550Y97131D01*
G37*
G36*
X164550Y97131D02*
X164550Y97131D01*
X164601Y97133D01*
X164633Y97151D01*
X164669Y97159D01*
X164708Y97192D01*
X164753Y97216D01*
X164774Y97246D01*
X164802Y97269D01*
X164823Y97316D01*
X164853Y97358D01*
X164861Y97400D01*
X164873Y97428D01*
X164872Y97458D01*
X164880Y97500D01*
X164880Y106200D01*
X164869Y106250D01*
X164867Y106301D01*
X164849Y106333D01*
X164841Y106369D01*
X164808Y106408D01*
X164784Y106453D01*
X164754Y106474D01*
X164731Y106502D01*
X164684Y106523D01*
X164642Y106553D01*
X164600Y106561D01*
X164572Y106573D01*
X164542Y106572D01*
X164500Y106580D01*
X158500Y106580D01*
X158426Y106563D01*
X158351Y106550D01*
X158341Y106543D01*
X158331Y106541D01*
X158302Y106517D01*
X158231Y106469D01*
X155231Y103469D01*
X155218Y103448D01*
X155201Y103434D01*
X155182Y103392D01*
X155147Y103342D01*
X155145Y103330D01*
X155140Y103322D01*
X155137Y103290D01*
X155130Y103276D01*
X155131Y103259D01*
X155120Y103200D01*
X155120Y97500D01*
X155131Y97450D01*
X155133Y97399D01*
X155151Y97367D01*
X155159Y97331D01*
X155192Y97292D01*
X155216Y97247D01*
X155246Y97226D01*
X155269Y97198D01*
X155316Y97177D01*
X155358Y97147D01*
X155400Y97139D01*
X155428Y97127D01*
X155458Y97128D01*
X155500Y97120D01*
X164500Y97120D01*
X164550Y97131D01*
G37*
G36*
X604550Y97131D02*
X604550Y97131D01*
X604601Y97133D01*
X604633Y97151D01*
X604669Y97159D01*
X604708Y97192D01*
X604753Y97216D01*
X604774Y97246D01*
X604802Y97269D01*
X604823Y97316D01*
X604853Y97358D01*
X604861Y97400D01*
X604873Y97428D01*
X604872Y97458D01*
X604880Y97500D01*
X604880Y103200D01*
X604864Y103268D01*
X604863Y103304D01*
X604855Y103319D01*
X604850Y103349D01*
X604843Y103359D01*
X604841Y103369D01*
X604817Y103398D01*
X604793Y103433D01*
X604780Y103457D01*
X604774Y103461D01*
X604769Y103469D01*
X601769Y106469D01*
X601704Y106509D01*
X601642Y106553D01*
X601630Y106555D01*
X601622Y106560D01*
X601585Y106564D01*
X601500Y106580D01*
X595500Y106580D01*
X595450Y106569D01*
X595399Y106567D01*
X595367Y106549D01*
X595331Y106541D01*
X595292Y106508D01*
X595247Y106484D01*
X595226Y106454D01*
X595198Y106431D01*
X595177Y106384D01*
X595147Y106342D01*
X595139Y106300D01*
X595127Y106272D01*
X595128Y106242D01*
X595120Y106200D01*
X595120Y97500D01*
X595131Y97450D01*
X595133Y97399D01*
X595151Y97367D01*
X595159Y97331D01*
X595192Y97292D01*
X595216Y97247D01*
X595246Y97226D01*
X595269Y97198D01*
X595316Y97177D01*
X595358Y97147D01*
X595400Y97139D01*
X595428Y97127D01*
X595458Y97128D01*
X595500Y97120D01*
X604500Y97120D01*
X604550Y97131D01*
G37*
G36*
X814550Y97131D02*
X814550Y97131D01*
X814601Y97133D01*
X814633Y97151D01*
X814669Y97159D01*
X814708Y97192D01*
X814753Y97216D01*
X814774Y97246D01*
X814802Y97269D01*
X814823Y97316D01*
X814853Y97358D01*
X814861Y97400D01*
X814873Y97428D01*
X814872Y97458D01*
X814880Y97500D01*
X814880Y103200D01*
X814864Y103268D01*
X814863Y103304D01*
X814855Y103319D01*
X814850Y103349D01*
X814843Y103359D01*
X814841Y103369D01*
X814817Y103398D01*
X814793Y103433D01*
X814780Y103457D01*
X814774Y103461D01*
X814769Y103469D01*
X811769Y106469D01*
X811704Y106509D01*
X811642Y106553D01*
X811630Y106555D01*
X811622Y106560D01*
X811585Y106564D01*
X811500Y106580D01*
X805500Y106580D01*
X805450Y106569D01*
X805399Y106567D01*
X805367Y106549D01*
X805331Y106541D01*
X805292Y106508D01*
X805247Y106484D01*
X805226Y106454D01*
X805198Y106431D01*
X805177Y106384D01*
X805147Y106342D01*
X805139Y106300D01*
X805127Y106272D01*
X805128Y106242D01*
X805120Y106200D01*
X805120Y97500D01*
X805131Y97450D01*
X805133Y97399D01*
X805151Y97367D01*
X805159Y97331D01*
X805192Y97292D01*
X805216Y97247D01*
X805246Y97226D01*
X805269Y97198D01*
X805316Y97177D01*
X805358Y97147D01*
X805400Y97139D01*
X805428Y97127D01*
X805458Y97128D01*
X805500Y97120D01*
X814500Y97120D01*
X814550Y97131D01*
G37*
G36*
X394550Y97131D02*
X394550Y97131D01*
X394601Y97133D01*
X394633Y97151D01*
X394669Y97159D01*
X394708Y97192D01*
X394753Y97216D01*
X394774Y97246D01*
X394802Y97269D01*
X394823Y97316D01*
X394853Y97358D01*
X394861Y97400D01*
X394873Y97428D01*
X394872Y97458D01*
X394880Y97500D01*
X394880Y103200D01*
X394864Y103268D01*
X394863Y103304D01*
X394855Y103319D01*
X394850Y103349D01*
X394843Y103359D01*
X394841Y103369D01*
X394817Y103398D01*
X394793Y103433D01*
X394780Y103457D01*
X394774Y103461D01*
X394769Y103469D01*
X391769Y106469D01*
X391704Y106509D01*
X391642Y106553D01*
X391630Y106555D01*
X391622Y106560D01*
X391585Y106564D01*
X391500Y106580D01*
X385500Y106580D01*
X385450Y106569D01*
X385399Y106567D01*
X385367Y106549D01*
X385331Y106541D01*
X385292Y106508D01*
X385247Y106484D01*
X385226Y106454D01*
X385198Y106431D01*
X385177Y106384D01*
X385147Y106342D01*
X385139Y106300D01*
X385127Y106272D01*
X385128Y106242D01*
X385120Y106200D01*
X385120Y97500D01*
X385131Y97450D01*
X385133Y97399D01*
X385151Y97367D01*
X385159Y97331D01*
X385192Y97292D01*
X385216Y97247D01*
X385246Y97226D01*
X385269Y97198D01*
X385316Y97177D01*
X385358Y97147D01*
X385400Y97139D01*
X385428Y97127D01*
X385458Y97128D01*
X385500Y97120D01*
X394500Y97120D01*
X394550Y97131D01*
G37*
G36*
X184550Y97131D02*
X184550Y97131D01*
X184601Y97133D01*
X184633Y97151D01*
X184669Y97159D01*
X184708Y97192D01*
X184753Y97216D01*
X184774Y97246D01*
X184802Y97269D01*
X184823Y97316D01*
X184853Y97358D01*
X184861Y97400D01*
X184873Y97428D01*
X184872Y97458D01*
X184880Y97500D01*
X184880Y103200D01*
X184864Y103268D01*
X184863Y103304D01*
X184855Y103319D01*
X184850Y103349D01*
X184843Y103359D01*
X184841Y103369D01*
X184817Y103398D01*
X184793Y103433D01*
X184780Y103457D01*
X184774Y103461D01*
X184769Y103469D01*
X181769Y106469D01*
X181704Y106509D01*
X181642Y106553D01*
X181630Y106555D01*
X181622Y106560D01*
X181585Y106564D01*
X181500Y106580D01*
X175500Y106580D01*
X175450Y106569D01*
X175399Y106567D01*
X175367Y106549D01*
X175331Y106541D01*
X175292Y106508D01*
X175247Y106484D01*
X175226Y106454D01*
X175198Y106431D01*
X175177Y106384D01*
X175147Y106342D01*
X175139Y106300D01*
X175127Y106272D01*
X175128Y106242D01*
X175120Y106200D01*
X175120Y97500D01*
X175131Y97450D01*
X175133Y97399D01*
X175151Y97367D01*
X175159Y97331D01*
X175192Y97292D01*
X175216Y97247D01*
X175246Y97226D01*
X175269Y97198D01*
X175316Y97177D01*
X175358Y97147D01*
X175400Y97139D01*
X175428Y97127D01*
X175458Y97128D01*
X175500Y97120D01*
X184500Y97120D01*
X184550Y97131D01*
G37*
G36*
X584550Y57131D02*
X584550Y57131D01*
X584601Y57133D01*
X584633Y57151D01*
X584669Y57159D01*
X584708Y57192D01*
X584753Y57216D01*
X584774Y57246D01*
X584802Y57269D01*
X584823Y57316D01*
X584853Y57358D01*
X584861Y57400D01*
X584873Y57428D01*
X584872Y57458D01*
X584880Y57500D01*
X584880Y66200D01*
X584869Y66250D01*
X584867Y66301D01*
X584849Y66333D01*
X584841Y66369D01*
X584808Y66408D01*
X584784Y66453D01*
X584754Y66474D01*
X584731Y66502D01*
X584684Y66523D01*
X584642Y66553D01*
X584600Y66561D01*
X584572Y66573D01*
X584542Y66572D01*
X584500Y66580D01*
X575500Y66580D01*
X575450Y66569D01*
X575399Y66567D01*
X575367Y66549D01*
X575331Y66541D01*
X575292Y66508D01*
X575247Y66484D01*
X575226Y66454D01*
X575198Y66431D01*
X575177Y66384D01*
X575147Y66342D01*
X575139Y66300D01*
X575127Y66272D01*
X575128Y66242D01*
X575120Y66200D01*
X575120Y60500D01*
X575133Y60442D01*
X575133Y60441D01*
X575134Y60441D01*
X575137Y60426D01*
X575150Y60351D01*
X575157Y60341D01*
X575159Y60331D01*
X575183Y60302D01*
X575231Y60231D01*
X578231Y57231D01*
X578296Y57191D01*
X578358Y57147D01*
X578370Y57145D01*
X578378Y57140D01*
X578415Y57136D01*
X578500Y57120D01*
X584500Y57120D01*
X584550Y57131D01*
G37*
G36*
X374550Y57131D02*
X374550Y57131D01*
X374601Y57133D01*
X374633Y57151D01*
X374669Y57159D01*
X374708Y57192D01*
X374753Y57216D01*
X374774Y57246D01*
X374802Y57269D01*
X374823Y57316D01*
X374853Y57358D01*
X374861Y57400D01*
X374873Y57428D01*
X374872Y57458D01*
X374880Y57500D01*
X374880Y66200D01*
X374869Y66250D01*
X374867Y66301D01*
X374849Y66333D01*
X374841Y66369D01*
X374808Y66408D01*
X374784Y66453D01*
X374754Y66474D01*
X374731Y66502D01*
X374684Y66523D01*
X374642Y66553D01*
X374600Y66561D01*
X374572Y66573D01*
X374542Y66572D01*
X374500Y66580D01*
X365500Y66580D01*
X365450Y66569D01*
X365399Y66567D01*
X365367Y66549D01*
X365331Y66541D01*
X365292Y66508D01*
X365247Y66484D01*
X365226Y66454D01*
X365198Y66431D01*
X365177Y66384D01*
X365147Y66342D01*
X365139Y66300D01*
X365127Y66272D01*
X365128Y66242D01*
X365120Y66200D01*
X365120Y60500D01*
X365133Y60442D01*
X365133Y60441D01*
X365134Y60441D01*
X365137Y60426D01*
X365150Y60351D01*
X365157Y60341D01*
X365159Y60331D01*
X365183Y60302D01*
X365231Y60231D01*
X368231Y57231D01*
X368296Y57191D01*
X368358Y57147D01*
X368370Y57145D01*
X368378Y57140D01*
X368415Y57136D01*
X368500Y57120D01*
X374500Y57120D01*
X374550Y57131D01*
G37*
G36*
X164550Y57131D02*
X164550Y57131D01*
X164601Y57133D01*
X164633Y57151D01*
X164669Y57159D01*
X164708Y57192D01*
X164753Y57216D01*
X164774Y57246D01*
X164802Y57269D01*
X164823Y57316D01*
X164853Y57358D01*
X164861Y57400D01*
X164873Y57428D01*
X164872Y57458D01*
X164880Y57500D01*
X164880Y66200D01*
X164869Y66250D01*
X164867Y66301D01*
X164849Y66333D01*
X164841Y66369D01*
X164808Y66408D01*
X164784Y66453D01*
X164754Y66474D01*
X164731Y66502D01*
X164684Y66523D01*
X164642Y66553D01*
X164600Y66561D01*
X164572Y66573D01*
X164542Y66572D01*
X164500Y66580D01*
X155500Y66580D01*
X155450Y66569D01*
X155399Y66567D01*
X155367Y66549D01*
X155331Y66541D01*
X155292Y66508D01*
X155247Y66484D01*
X155226Y66454D01*
X155198Y66431D01*
X155177Y66384D01*
X155147Y66342D01*
X155139Y66300D01*
X155127Y66272D01*
X155128Y66242D01*
X155120Y66200D01*
X155120Y60500D01*
X155133Y60442D01*
X155133Y60441D01*
X155134Y60441D01*
X155137Y60426D01*
X155150Y60351D01*
X155157Y60341D01*
X155159Y60331D01*
X155183Y60302D01*
X155231Y60231D01*
X158231Y57231D01*
X158296Y57191D01*
X158358Y57147D01*
X158370Y57145D01*
X158378Y57140D01*
X158415Y57136D01*
X158500Y57120D01*
X164500Y57120D01*
X164550Y57131D01*
G37*
G36*
X794550Y57131D02*
X794550Y57131D01*
X794601Y57133D01*
X794633Y57151D01*
X794669Y57159D01*
X794708Y57192D01*
X794753Y57216D01*
X794774Y57246D01*
X794802Y57269D01*
X794823Y57316D01*
X794853Y57358D01*
X794861Y57400D01*
X794873Y57428D01*
X794872Y57458D01*
X794880Y57500D01*
X794880Y66200D01*
X794869Y66250D01*
X794867Y66301D01*
X794849Y66333D01*
X794841Y66369D01*
X794808Y66408D01*
X794784Y66453D01*
X794754Y66474D01*
X794731Y66502D01*
X794684Y66523D01*
X794642Y66553D01*
X794600Y66561D01*
X794572Y66573D01*
X794542Y66572D01*
X794500Y66580D01*
X785500Y66580D01*
X785450Y66569D01*
X785399Y66567D01*
X785367Y66549D01*
X785331Y66541D01*
X785292Y66508D01*
X785247Y66484D01*
X785226Y66454D01*
X785198Y66431D01*
X785177Y66384D01*
X785147Y66342D01*
X785139Y66300D01*
X785127Y66272D01*
X785128Y66242D01*
X785120Y66200D01*
X785120Y60500D01*
X785133Y60442D01*
X785133Y60441D01*
X785134Y60441D01*
X785137Y60426D01*
X785150Y60351D01*
X785157Y60341D01*
X785159Y60331D01*
X785183Y60302D01*
X785231Y60231D01*
X788231Y57231D01*
X788296Y57191D01*
X788358Y57147D01*
X788370Y57145D01*
X788378Y57140D01*
X788415Y57136D01*
X788500Y57120D01*
X794500Y57120D01*
X794550Y57131D01*
G37*
G36*
X601574Y57137D02*
X601574Y57137D01*
X601649Y57150D01*
X601659Y57157D01*
X601669Y57159D01*
X601698Y57183D01*
X601769Y57231D01*
X604769Y60231D01*
X604809Y60296D01*
X604853Y60358D01*
X604855Y60370D01*
X604860Y60378D01*
X604864Y60415D01*
X604880Y60500D01*
X604880Y66200D01*
X604869Y66250D01*
X604867Y66301D01*
X604849Y66333D01*
X604841Y66369D01*
X604808Y66408D01*
X604784Y66453D01*
X604754Y66474D01*
X604731Y66502D01*
X604684Y66523D01*
X604642Y66553D01*
X604600Y66561D01*
X604572Y66573D01*
X604542Y66572D01*
X604500Y66580D01*
X595500Y66580D01*
X595450Y66569D01*
X595399Y66567D01*
X595367Y66549D01*
X595331Y66541D01*
X595292Y66508D01*
X595247Y66484D01*
X595226Y66454D01*
X595198Y66431D01*
X595177Y66384D01*
X595147Y66342D01*
X595139Y66300D01*
X595127Y66272D01*
X595128Y66242D01*
X595120Y66200D01*
X595120Y57500D01*
X595131Y57450D01*
X595133Y57399D01*
X595151Y57367D01*
X595159Y57331D01*
X595192Y57292D01*
X595216Y57247D01*
X595246Y57226D01*
X595269Y57198D01*
X595316Y57177D01*
X595358Y57147D01*
X595400Y57139D01*
X595428Y57127D01*
X595458Y57128D01*
X595500Y57120D01*
X601500Y57120D01*
X601574Y57137D01*
G37*
G36*
X391574Y57137D02*
X391574Y57137D01*
X391649Y57150D01*
X391659Y57157D01*
X391669Y57159D01*
X391698Y57183D01*
X391769Y57231D01*
X394769Y60231D01*
X394809Y60296D01*
X394853Y60358D01*
X394855Y60370D01*
X394860Y60378D01*
X394864Y60415D01*
X394880Y60500D01*
X394880Y66200D01*
X394869Y66250D01*
X394867Y66301D01*
X394849Y66333D01*
X394841Y66369D01*
X394808Y66408D01*
X394784Y66453D01*
X394754Y66474D01*
X394731Y66502D01*
X394684Y66523D01*
X394642Y66553D01*
X394600Y66561D01*
X394572Y66573D01*
X394542Y66572D01*
X394500Y66580D01*
X385500Y66580D01*
X385450Y66569D01*
X385399Y66567D01*
X385367Y66549D01*
X385331Y66541D01*
X385292Y66508D01*
X385247Y66484D01*
X385226Y66454D01*
X385198Y66431D01*
X385177Y66384D01*
X385147Y66342D01*
X385139Y66300D01*
X385127Y66272D01*
X385128Y66242D01*
X385120Y66200D01*
X385120Y57500D01*
X385131Y57450D01*
X385133Y57399D01*
X385151Y57367D01*
X385159Y57331D01*
X385192Y57292D01*
X385216Y57247D01*
X385246Y57226D01*
X385269Y57198D01*
X385316Y57177D01*
X385358Y57147D01*
X385400Y57139D01*
X385428Y57127D01*
X385458Y57128D01*
X385500Y57120D01*
X391500Y57120D01*
X391574Y57137D01*
G37*
G36*
X181574Y57137D02*
X181574Y57137D01*
X181649Y57150D01*
X181659Y57157D01*
X181669Y57159D01*
X181698Y57183D01*
X181769Y57231D01*
X184769Y60231D01*
X184809Y60296D01*
X184853Y60358D01*
X184855Y60370D01*
X184860Y60378D01*
X184864Y60415D01*
X184880Y60500D01*
X184880Y66200D01*
X184869Y66250D01*
X184867Y66301D01*
X184849Y66333D01*
X184841Y66369D01*
X184808Y66408D01*
X184784Y66453D01*
X184754Y66474D01*
X184731Y66502D01*
X184684Y66523D01*
X184642Y66553D01*
X184600Y66561D01*
X184572Y66573D01*
X184542Y66572D01*
X184500Y66580D01*
X175500Y66580D01*
X175450Y66569D01*
X175399Y66567D01*
X175367Y66549D01*
X175331Y66541D01*
X175292Y66508D01*
X175247Y66484D01*
X175226Y66454D01*
X175198Y66431D01*
X175177Y66384D01*
X175147Y66342D01*
X175139Y66300D01*
X175127Y66272D01*
X175128Y66242D01*
X175120Y66200D01*
X175120Y57500D01*
X175131Y57450D01*
X175133Y57399D01*
X175151Y57367D01*
X175159Y57331D01*
X175192Y57292D01*
X175216Y57247D01*
X175246Y57226D01*
X175269Y57198D01*
X175316Y57177D01*
X175358Y57147D01*
X175400Y57139D01*
X175428Y57127D01*
X175458Y57128D01*
X175500Y57120D01*
X181500Y57120D01*
X181574Y57137D01*
G37*
G36*
X811574Y57137D02*
X811574Y57137D01*
X811649Y57150D01*
X811659Y57157D01*
X811669Y57159D01*
X811698Y57183D01*
X811769Y57231D01*
X814769Y60231D01*
X814809Y60296D01*
X814853Y60358D01*
X814855Y60370D01*
X814860Y60378D01*
X814864Y60415D01*
X814880Y60500D01*
X814880Y66200D01*
X814869Y66250D01*
X814867Y66301D01*
X814849Y66333D01*
X814841Y66369D01*
X814808Y66408D01*
X814784Y66453D01*
X814754Y66474D01*
X814731Y66502D01*
X814684Y66523D01*
X814642Y66553D01*
X814600Y66561D01*
X814572Y66573D01*
X814542Y66572D01*
X814500Y66580D01*
X805500Y66580D01*
X805450Y66569D01*
X805399Y66567D01*
X805367Y66549D01*
X805331Y66541D01*
X805292Y66508D01*
X805247Y66484D01*
X805226Y66454D01*
X805198Y66431D01*
X805177Y66384D01*
X805147Y66342D01*
X805139Y66300D01*
X805127Y66272D01*
X805128Y66242D01*
X805120Y66200D01*
X805120Y57500D01*
X805131Y57450D01*
X805133Y57399D01*
X805151Y57367D01*
X805159Y57331D01*
X805192Y57292D01*
X805216Y57247D01*
X805246Y57226D01*
X805269Y57198D01*
X805316Y57177D01*
X805358Y57147D01*
X805400Y57139D01*
X805428Y57127D01*
X805458Y57128D01*
X805500Y57120D01*
X811500Y57120D01*
X811574Y57137D01*
G37*
D10*
X170000Y30000D03*
D11*
X30000Y240000D03*
D10*
X380000Y30000D03*
D11*
X240000Y240000D03*
D10*
X590000Y30000D03*
D11*
X450000Y240000D03*
D10*
X800000Y30000D03*
D11*
X660000Y240000D03*
D12*
X200000Y213300D03*
X200000Y216600D03*
X200000Y220000D03*
X200000Y210000D03*
X210000Y216700D03*
X210000Y213400D03*
X210000Y210000D03*
X210000Y220000D03*
X200000Y183300D03*
X200000Y186600D03*
X200000Y190000D03*
X200000Y180000D03*
X210000Y186700D03*
X210000Y183400D03*
X210000Y180000D03*
X210000Y190000D03*
X200000Y198300D03*
X200000Y201600D03*
X200000Y205000D03*
X200000Y195000D03*
X210000Y201700D03*
X210000Y198400D03*
X210000Y195000D03*
X210000Y205000D03*
X200000Y143300D03*
X200000Y146600D03*
X200000Y150000D03*
X200000Y140000D03*
X210000Y146700D03*
X210000Y143400D03*
X210000Y140000D03*
X210000Y150000D03*
X200000Y123300D03*
X200000Y126600D03*
X200000Y130000D03*
X200000Y120000D03*
X210000Y126700D03*
X210000Y123400D03*
X210000Y120000D03*
X210000Y130000D03*
X200000Y83300D03*
X200000Y86600D03*
X200000Y90000D03*
X200000Y80000D03*
X210000Y86700D03*
X210000Y83400D03*
X210000Y80000D03*
X210000Y90000D03*
X200000Y53300D03*
X200000Y56600D03*
X200000Y60000D03*
X200000Y50000D03*
X210000Y56700D03*
X210000Y53400D03*
X210000Y50000D03*
X210000Y60000D03*
X200000Y68300D03*
X200000Y71600D03*
X200000Y75000D03*
X200000Y65000D03*
X210000Y71700D03*
X210000Y68400D03*
X210000Y65000D03*
X210000Y75000D03*
X200000Y135000D03*
X210000Y135000D03*
X410000Y213300D03*
X410000Y216600D03*
X410000Y220000D03*
X410000Y210000D03*
X420000Y216700D03*
X420000Y213400D03*
X420000Y210000D03*
X420000Y220000D03*
X410000Y183300D03*
X410000Y186600D03*
X410000Y190000D03*
X410000Y180000D03*
X420000Y186700D03*
X420000Y183400D03*
X420000Y180000D03*
X420000Y190000D03*
X410000Y198300D03*
X410000Y201600D03*
X410000Y205000D03*
X410000Y195000D03*
X420000Y201700D03*
X420000Y198400D03*
X420000Y195000D03*
X420000Y205000D03*
X410000Y143300D03*
X410000Y146600D03*
X410000Y150000D03*
X410000Y140000D03*
X420000Y146700D03*
X420000Y143400D03*
X420000Y140000D03*
X420000Y150000D03*
X410000Y123300D03*
X410000Y126600D03*
X410000Y130000D03*
X410000Y120000D03*
X420000Y126700D03*
X420000Y123400D03*
X420000Y120000D03*
X420000Y130000D03*
X410000Y83300D03*
X410000Y86600D03*
X410000Y90000D03*
X410000Y80000D03*
X420000Y86700D03*
X420000Y83400D03*
X420000Y80000D03*
X420000Y90000D03*
X410000Y53300D03*
X410000Y56600D03*
X410000Y60000D03*
X410000Y50000D03*
X420000Y56700D03*
X420000Y53400D03*
X420000Y50000D03*
X420000Y60000D03*
X410000Y68300D03*
X410000Y71600D03*
X410000Y75000D03*
X410000Y65000D03*
X420000Y71700D03*
X420000Y68400D03*
X420000Y65000D03*
X420000Y75000D03*
X410000Y135000D03*
X420000Y135000D03*
X620000Y213300D03*
X620000Y216600D03*
X620000Y220000D03*
X620000Y210000D03*
X630000Y216700D03*
X630000Y213400D03*
X630000Y210000D03*
X630000Y220000D03*
X620000Y183300D03*
X620000Y186600D03*
X620000Y190000D03*
X620000Y180000D03*
X630000Y186700D03*
X630000Y183400D03*
X630000Y180000D03*
X630000Y190000D03*
X620000Y198300D03*
X620000Y201600D03*
X620000Y205000D03*
X620000Y195000D03*
X630000Y201700D03*
X630000Y198400D03*
X630000Y195000D03*
X630000Y205000D03*
X620000Y143300D03*
X620000Y146600D03*
X620000Y150000D03*
X620000Y140000D03*
X630000Y146700D03*
X630000Y143400D03*
X630000Y140000D03*
X630000Y150000D03*
X620000Y123300D03*
X620000Y126600D03*
X620000Y130000D03*
X620000Y120000D03*
X630000Y126700D03*
X630000Y123400D03*
X630000Y120000D03*
X630000Y130000D03*
X620000Y83300D03*
X620000Y86600D03*
X620000Y90000D03*
X620000Y80000D03*
X630000Y86700D03*
X630000Y83400D03*
X630000Y80000D03*
X630000Y90000D03*
X620000Y53300D03*
X620000Y56600D03*
X620000Y60000D03*
X620000Y50000D03*
X630000Y56700D03*
X630000Y53400D03*
X630000Y50000D03*
X630000Y60000D03*
X620000Y68300D03*
X620000Y71600D03*
X620000Y75000D03*
X620000Y65000D03*
X630000Y71700D03*
X630000Y68400D03*
X630000Y65000D03*
X630000Y75000D03*
X620000Y135000D03*
X630000Y135000D03*
D13*
X144500Y142000D03*
X161500Y142000D03*
X126500Y255000D03*
X143500Y255000D03*
D14*
X20000Y55000D03*
X45400Y55000D03*
X81000Y55000D03*
X106400Y55000D03*
D15*
X41000Y127800D03*
X41000Y116200D03*
D16*
X21800Y30000D03*
X10200Y30000D03*
X21800Y10000D03*
X10200Y10000D03*
D15*
X17000Y127800D03*
X17000Y116200D03*
D16*
X45200Y20000D03*
X56800Y20000D03*
D17*
X46000Y99750D03*
X46000Y93250D03*
X46000Y86750D03*
X46000Y80250D03*
D18*
X27000Y90000D03*
D19*
X14300Y80750D03*
X14300Y86750D03*
X14300Y93250D03*
X14300Y99250D03*
D20*
X150000Y190000D03*
D21*
X184350Y217500D03*
X184350Y212500D03*
X184350Y207500D03*
X184350Y202500D03*
X184350Y197500D03*
X184350Y192500D03*
X184350Y187500D03*
X184350Y182500D03*
X184350Y177500D03*
X184350Y172500D03*
X184350Y167500D03*
X184350Y162500D03*
D22*
X177500Y155650D03*
X172500Y155650D03*
X167500Y155650D03*
X162500Y155650D03*
X157500Y155650D03*
X152500Y155650D03*
X147500Y155650D03*
X142500Y155650D03*
X137500Y155650D03*
X132500Y155650D03*
X127500Y155650D03*
X122500Y155650D03*
D21*
X115650Y162500D03*
X115650Y167500D03*
X115650Y172500D03*
X115650Y177500D03*
X115650Y182500D03*
X115650Y187500D03*
X115650Y192500D03*
X115650Y197500D03*
X115650Y202500D03*
X115650Y207500D03*
X115650Y212500D03*
X115650Y217500D03*
D22*
X122500Y224350D03*
X127500Y224350D03*
X132500Y224350D03*
X137500Y224350D03*
X142500Y224350D03*
X147500Y224350D03*
X152500Y224350D03*
X157500Y224350D03*
X162500Y224350D03*
X167500Y224350D03*
X172500Y224350D03*
X177500Y224350D03*
D23*
X99000Y225500D03*
X99000Y242500D03*
D24*
X111000Y24000D03*
D25*
X120250Y30500D03*
X120250Y24000D03*
X120250Y17500D03*
X101750Y17500D03*
X101750Y24000D03*
X101750Y30500D03*
D15*
X131000Y18200D03*
X131000Y29800D03*
X81000Y29800D03*
X81000Y18200D03*
D26*
X83000Y248750D03*
X83000Y236250D03*
X83000Y223750D03*
X83000Y211250D03*
X61000Y211250D03*
X61000Y223750D03*
X61000Y236250D03*
X61000Y248750D03*
D27*
X182000Y92000D03*
X182000Y88000D03*
X182000Y84000D03*
X182000Y80000D03*
X182000Y76000D03*
X182000Y72000D03*
X158000Y72000D03*
X158000Y76000D03*
X158000Y80000D03*
X158000Y84000D03*
X158000Y88000D03*
X158000Y92000D03*
D15*
X97000Y85800D03*
X97000Y74200D03*
X81000Y85800D03*
X81000Y74200D03*
D28*
X86000Y158000D03*
X36000Y158000D03*
D16*
X103200Y108000D03*
X114800Y108000D03*
D13*
X354500Y142000D03*
X371500Y142000D03*
X336500Y255000D03*
X353500Y255000D03*
D14*
X230000Y55000D03*
X255400Y55000D03*
X291000Y55000D03*
X316400Y55000D03*
D15*
X251000Y127800D03*
X251000Y116200D03*
D16*
X231800Y30000D03*
X220200Y30000D03*
X231800Y10000D03*
X220200Y10000D03*
D15*
X227000Y127800D03*
X227000Y116200D03*
D16*
X255200Y20000D03*
X266800Y20000D03*
D17*
X256000Y99750D03*
X256000Y93250D03*
X256000Y86750D03*
X256000Y80250D03*
D18*
X237000Y90000D03*
D19*
X224300Y80750D03*
X224300Y86750D03*
X224300Y93250D03*
X224300Y99250D03*
D20*
X360000Y190000D03*
D21*
X394350Y217500D03*
X394350Y212500D03*
X394350Y207500D03*
X394350Y202500D03*
X394350Y197500D03*
X394350Y192500D03*
X394350Y187500D03*
X394350Y182500D03*
X394350Y177500D03*
X394350Y172500D03*
X394350Y167500D03*
X394350Y162500D03*
D22*
X387500Y155650D03*
X382500Y155650D03*
X377500Y155650D03*
X372500Y155650D03*
X367500Y155650D03*
X362500Y155650D03*
X357500Y155650D03*
X352500Y155650D03*
X347500Y155650D03*
X342500Y155650D03*
X337500Y155650D03*
X332500Y155650D03*
D21*
X325650Y162500D03*
X325650Y167500D03*
X325650Y172500D03*
X325650Y177500D03*
X325650Y182500D03*
X325650Y187500D03*
X325650Y192500D03*
X325650Y197500D03*
X325650Y202500D03*
X325650Y207500D03*
X325650Y212500D03*
X325650Y217500D03*
D22*
X332500Y224350D03*
X337500Y224350D03*
X342500Y224350D03*
X347500Y224350D03*
X352500Y224350D03*
X357500Y224350D03*
X362500Y224350D03*
X367500Y224350D03*
X372500Y224350D03*
X377500Y224350D03*
X382500Y224350D03*
X387500Y224350D03*
D23*
X309000Y225500D03*
X309000Y242500D03*
D24*
X321000Y24000D03*
D25*
X330250Y30500D03*
X330250Y24000D03*
X330250Y17500D03*
X311750Y17500D03*
X311750Y24000D03*
X311750Y30500D03*
D15*
X341000Y18200D03*
X341000Y29800D03*
X291000Y29800D03*
X291000Y18200D03*
D26*
X293000Y248750D03*
X293000Y236250D03*
X293000Y223750D03*
X293000Y211250D03*
X271000Y211250D03*
X271000Y223750D03*
X271000Y236250D03*
X271000Y248750D03*
D27*
X392000Y92000D03*
X392000Y88000D03*
X392000Y84000D03*
X392000Y80000D03*
X392000Y76000D03*
X392000Y72000D03*
X368000Y72000D03*
X368000Y76000D03*
X368000Y80000D03*
X368000Y84000D03*
X368000Y88000D03*
X368000Y92000D03*
D15*
X307000Y85800D03*
X307000Y74200D03*
X291000Y85800D03*
X291000Y74200D03*
D28*
X296000Y158000D03*
X246000Y158000D03*
D16*
X313200Y108000D03*
X324800Y108000D03*
D13*
X564500Y142000D03*
X581500Y142000D03*
X546500Y255000D03*
X563500Y255000D03*
D14*
X440000Y55000D03*
X465400Y55000D03*
X501000Y55000D03*
X526400Y55000D03*
D15*
X461000Y127800D03*
X461000Y116200D03*
D16*
X441800Y30000D03*
X430200Y30000D03*
X441800Y10000D03*
X430200Y10000D03*
D15*
X437000Y127800D03*
X437000Y116200D03*
D16*
X465200Y20000D03*
X476800Y20000D03*
D17*
X466000Y99750D03*
X466000Y93250D03*
X466000Y86750D03*
X466000Y80250D03*
D18*
X447000Y90000D03*
D19*
X434300Y80750D03*
X434300Y86750D03*
X434300Y93250D03*
X434300Y99250D03*
D20*
X570000Y190000D03*
D21*
X604350Y217500D03*
X604350Y212500D03*
X604350Y207500D03*
X604350Y202500D03*
X604350Y197500D03*
X604350Y192500D03*
X604350Y187500D03*
X604350Y182500D03*
X604350Y177500D03*
X604350Y172500D03*
X604350Y167500D03*
X604350Y162500D03*
D22*
X597500Y155650D03*
X592500Y155650D03*
X587500Y155650D03*
X582500Y155650D03*
X577500Y155650D03*
X572500Y155650D03*
X567500Y155650D03*
X562500Y155650D03*
X557500Y155650D03*
X552500Y155650D03*
X547500Y155650D03*
X542500Y155650D03*
D21*
X535650Y162500D03*
X535650Y167500D03*
X535650Y172500D03*
X535650Y177500D03*
X535650Y182500D03*
X535650Y187500D03*
X535650Y192500D03*
X535650Y197500D03*
X535650Y202500D03*
X535650Y207500D03*
X535650Y212500D03*
X535650Y217500D03*
D22*
X542500Y224350D03*
X547500Y224350D03*
X552500Y224350D03*
X557500Y224350D03*
X562500Y224350D03*
X567500Y224350D03*
X572500Y224350D03*
X577500Y224350D03*
X582500Y224350D03*
X587500Y224350D03*
X592500Y224350D03*
X597500Y224350D03*
D23*
X519000Y225500D03*
X519000Y242500D03*
D24*
X531000Y24000D03*
D25*
X540250Y30500D03*
X540250Y24000D03*
X540250Y17500D03*
X521750Y17500D03*
X521750Y24000D03*
X521750Y30500D03*
D15*
X551000Y18200D03*
X551000Y29800D03*
X501000Y29800D03*
X501000Y18200D03*
D26*
X503000Y248750D03*
X503000Y236250D03*
X503000Y223750D03*
X503000Y211250D03*
X481000Y211250D03*
X481000Y223750D03*
X481000Y236250D03*
X481000Y248750D03*
D27*
X602000Y92000D03*
X602000Y88000D03*
X602000Y84000D03*
X602000Y80000D03*
X602000Y76000D03*
X602000Y72000D03*
X578000Y72000D03*
X578000Y76000D03*
X578000Y80000D03*
X578000Y84000D03*
X578000Y88000D03*
X578000Y92000D03*
D15*
X517000Y85800D03*
X517000Y74200D03*
X501000Y85800D03*
X501000Y74200D03*
D28*
X506000Y158000D03*
X456000Y158000D03*
D16*
X523200Y108000D03*
X534800Y108000D03*
D13*
X774500Y142000D03*
X791500Y142000D03*
X756500Y255000D03*
X773500Y255000D03*
D14*
X650000Y55000D03*
X675400Y55000D03*
X711000Y55000D03*
X736400Y55000D03*
D15*
X671000Y127800D03*
X671000Y116200D03*
D16*
X651800Y30000D03*
X640200Y30000D03*
X651800Y10000D03*
X640200Y10000D03*
D15*
X647000Y127800D03*
X647000Y116200D03*
D16*
X675200Y20000D03*
X686800Y20000D03*
D17*
X676000Y99750D03*
X676000Y93250D03*
X676000Y86750D03*
X676000Y80250D03*
D18*
X657000Y90000D03*
D19*
X644300Y80750D03*
X644300Y86750D03*
X644300Y93250D03*
X644300Y99250D03*
D20*
X780000Y190000D03*
D21*
X814350Y217500D03*
X814350Y212500D03*
X814350Y207500D03*
X814350Y202500D03*
X814350Y197500D03*
X814350Y192500D03*
X814350Y187500D03*
X814350Y182500D03*
X814350Y177500D03*
X814350Y172500D03*
X814350Y167500D03*
X814350Y162500D03*
D22*
X807500Y155650D03*
X802500Y155650D03*
X797500Y155650D03*
X792500Y155650D03*
X787500Y155650D03*
X782500Y155650D03*
X777500Y155650D03*
X772500Y155650D03*
X767500Y155650D03*
X762500Y155650D03*
X757500Y155650D03*
X752500Y155650D03*
D21*
X745650Y162500D03*
X745650Y167500D03*
X745650Y172500D03*
X745650Y177500D03*
X745650Y182500D03*
X745650Y187500D03*
X745650Y192500D03*
X745650Y197500D03*
X745650Y202500D03*
X745650Y207500D03*
X745650Y212500D03*
X745650Y217500D03*
D22*
X752500Y224350D03*
X757500Y224350D03*
X762500Y224350D03*
X767500Y224350D03*
X772500Y224350D03*
X777500Y224350D03*
X782500Y224350D03*
X787500Y224350D03*
X792500Y224350D03*
X797500Y224350D03*
X802500Y224350D03*
X807500Y224350D03*
D23*
X729000Y225500D03*
X729000Y242500D03*
D24*
X741000Y24000D03*
D25*
X750250Y30500D03*
X750250Y24000D03*
X750250Y17500D03*
X731750Y17500D03*
X731750Y24000D03*
X731750Y30500D03*
D15*
X761000Y18200D03*
X761000Y29800D03*
X711000Y29800D03*
X711000Y18200D03*
D26*
X713000Y248750D03*
X713000Y236250D03*
X713000Y223750D03*
X713000Y211250D03*
X691000Y211250D03*
X691000Y223750D03*
X691000Y236250D03*
X691000Y248750D03*
D27*
X812000Y92000D03*
X812000Y88000D03*
X812000Y84000D03*
X812000Y80000D03*
X812000Y76000D03*
X812000Y72000D03*
X788000Y72000D03*
X788000Y76000D03*
X788000Y80000D03*
X788000Y84000D03*
X788000Y88000D03*
X788000Y92000D03*
D15*
X727000Y85800D03*
X727000Y74200D03*
X711000Y85800D03*
X711000Y74200D03*
D28*
X716000Y158000D03*
X666000Y158000D03*
D16*
X733200Y108000D03*
X744800Y108000D03*
D29*
X70000Y100000D03*
X280000Y100000D03*
X490000Y100000D03*
X700000Y100000D03*
D30*
X137500Y238900D03*
X347500Y238900D03*
X557500Y238900D03*
X767500Y238900D03*
D29*
X160000Y250000D03*
X370000Y250000D03*
X580000Y250000D03*
X790000Y250000D03*
X190000Y250000D03*
X400000Y250000D03*
X610000Y250000D03*
X820000Y250000D03*
D30*
X70000Y125000D03*
X280000Y125000D03*
X490000Y125000D03*
X700000Y125000D03*
M02*
