G04 EAGLE Gerber RS-274X export*
G75*
%MOMM*%
%FSLAX34Y34*%
%LPD*%
%INSolderpaste Bottom*%
%IPPOS*%
%AMOC8*
5,1,8,0,0,1.08239X$1,22.5*%
G01*
%ADD10R,1.100000X1.000000*%
%ADD11R,0.900000X0.850000*%
%ADD12R,0.850000X0.900000*%
%ADD13R,0.770000X0.390000*%
%ADD14R,1.960000X2.700000*%
%ADD15R,0.580000X0.390000*%
%ADD16R,1.823441X1.819413*%
%ADD17R,1.819384X1.819384*%
%ADD18R,1.822081X1.822081*%
%ADD19R,1.819922X1.820459*%
%ADD20R,0.840000X0.260000*%
%ADD21R,0.260000X0.840000*%
%ADD22R,1.000000X1.100000*%
%ADD23R,1.120000X1.720000*%
%ADD24R,0.450000X0.400000*%
%ADD25R,1.100000X0.600000*%
%ADD26R,0.500000X0.230000*%


D10*
X144500Y142000D03*
X161500Y142000D03*
X126500Y255000D03*
X143500Y255000D03*
D11*
X41000Y127800D03*
X41000Y116200D03*
D12*
X21800Y30000D03*
X10200Y30000D03*
X21800Y10000D03*
X10200Y10000D03*
D11*
X17000Y127800D03*
X17000Y116200D03*
D12*
X45200Y20000D03*
X56800Y20000D03*
D13*
X46000Y99750D03*
X46000Y93250D03*
X46000Y86750D03*
X46000Y80250D03*
D14*
X27000Y90000D03*
D15*
X14300Y80750D03*
X14300Y86750D03*
X14300Y93250D03*
X14300Y99250D03*
D16*
X162867Y202853D03*
D17*
X137147Y202853D03*
D18*
X162860Y177140D03*
D19*
X137150Y177148D03*
D20*
X184350Y217500D03*
X184350Y212500D03*
X184350Y207500D03*
X184350Y202500D03*
X184350Y197500D03*
X184350Y192500D03*
X184350Y187500D03*
X184350Y182500D03*
X184350Y177500D03*
X184350Y172500D03*
X184350Y167500D03*
X184350Y162500D03*
D21*
X177500Y155650D03*
X172500Y155650D03*
X167500Y155650D03*
X162500Y155650D03*
X157500Y155650D03*
X152500Y155650D03*
X147500Y155650D03*
X142500Y155650D03*
X137500Y155650D03*
X132500Y155650D03*
X127500Y155650D03*
X122500Y155650D03*
D20*
X115650Y162500D03*
X115650Y167500D03*
X115650Y172500D03*
X115650Y177500D03*
X115650Y182500D03*
X115650Y187500D03*
X115650Y192500D03*
X115650Y197500D03*
X115650Y202500D03*
X115650Y207500D03*
X115650Y212500D03*
X115650Y217500D03*
D21*
X122500Y224350D03*
X127500Y224350D03*
X132500Y224350D03*
X137500Y224350D03*
X142500Y224350D03*
X147500Y224350D03*
X152500Y224350D03*
X157500Y224350D03*
X162500Y224350D03*
X167500Y224350D03*
X172500Y224350D03*
X177500Y224350D03*
D22*
X99000Y225500D03*
X99000Y242500D03*
D23*
X111000Y24000D03*
D24*
X120250Y30500D03*
X120250Y24000D03*
X120250Y17500D03*
X101750Y17500D03*
X101750Y24000D03*
X101750Y30500D03*
D11*
X131000Y18200D03*
X131000Y29800D03*
X81000Y29800D03*
X81000Y18200D03*
D25*
X83000Y248750D03*
X83000Y236250D03*
X83000Y223750D03*
X83000Y211250D03*
X61000Y211250D03*
X61000Y223750D03*
X61000Y236250D03*
X61000Y248750D03*
D26*
X182000Y92000D03*
X182000Y88000D03*
X182000Y84000D03*
X182000Y80000D03*
X182000Y76000D03*
X182000Y72000D03*
X158000Y72000D03*
X158000Y76000D03*
X158000Y80000D03*
X158000Y84000D03*
X158000Y88000D03*
X158000Y92000D03*
D11*
X97000Y85800D03*
X97000Y74200D03*
X81000Y85800D03*
X81000Y74200D03*
D12*
X103200Y108000D03*
X114800Y108000D03*
D10*
X354500Y142000D03*
X371500Y142000D03*
X336500Y255000D03*
X353500Y255000D03*
D11*
X251000Y127800D03*
X251000Y116200D03*
D12*
X231800Y30000D03*
X220200Y30000D03*
X231800Y10000D03*
X220200Y10000D03*
D11*
X227000Y127800D03*
X227000Y116200D03*
D12*
X255200Y20000D03*
X266800Y20000D03*
D13*
X256000Y99750D03*
X256000Y93250D03*
X256000Y86750D03*
X256000Y80250D03*
D14*
X237000Y90000D03*
D15*
X224300Y80750D03*
X224300Y86750D03*
X224300Y93250D03*
X224300Y99250D03*
D16*
X372867Y202853D03*
D17*
X347147Y202853D03*
D18*
X372860Y177140D03*
D19*
X347150Y177148D03*
D20*
X394350Y217500D03*
X394350Y212500D03*
X394350Y207500D03*
X394350Y202500D03*
X394350Y197500D03*
X394350Y192500D03*
X394350Y187500D03*
X394350Y182500D03*
X394350Y177500D03*
X394350Y172500D03*
X394350Y167500D03*
X394350Y162500D03*
D21*
X387500Y155650D03*
X382500Y155650D03*
X377500Y155650D03*
X372500Y155650D03*
X367500Y155650D03*
X362500Y155650D03*
X357500Y155650D03*
X352500Y155650D03*
X347500Y155650D03*
X342500Y155650D03*
X337500Y155650D03*
X332500Y155650D03*
D20*
X325650Y162500D03*
X325650Y167500D03*
X325650Y172500D03*
X325650Y177500D03*
X325650Y182500D03*
X325650Y187500D03*
X325650Y192500D03*
X325650Y197500D03*
X325650Y202500D03*
X325650Y207500D03*
X325650Y212500D03*
X325650Y217500D03*
D21*
X332500Y224350D03*
X337500Y224350D03*
X342500Y224350D03*
X347500Y224350D03*
X352500Y224350D03*
X357500Y224350D03*
X362500Y224350D03*
X367500Y224350D03*
X372500Y224350D03*
X377500Y224350D03*
X382500Y224350D03*
X387500Y224350D03*
D22*
X309000Y225500D03*
X309000Y242500D03*
D23*
X321000Y24000D03*
D24*
X330250Y30500D03*
X330250Y24000D03*
X330250Y17500D03*
X311750Y17500D03*
X311750Y24000D03*
X311750Y30500D03*
D11*
X341000Y18200D03*
X341000Y29800D03*
X291000Y29800D03*
X291000Y18200D03*
D25*
X293000Y248750D03*
X293000Y236250D03*
X293000Y223750D03*
X293000Y211250D03*
X271000Y211250D03*
X271000Y223750D03*
X271000Y236250D03*
X271000Y248750D03*
D26*
X392000Y92000D03*
X392000Y88000D03*
X392000Y84000D03*
X392000Y80000D03*
X392000Y76000D03*
X392000Y72000D03*
X368000Y72000D03*
X368000Y76000D03*
X368000Y80000D03*
X368000Y84000D03*
X368000Y88000D03*
X368000Y92000D03*
D11*
X307000Y85800D03*
X307000Y74200D03*
X291000Y85800D03*
X291000Y74200D03*
D12*
X313200Y108000D03*
X324800Y108000D03*
D10*
X564500Y142000D03*
X581500Y142000D03*
X546500Y255000D03*
X563500Y255000D03*
D11*
X461000Y127800D03*
X461000Y116200D03*
D12*
X441800Y30000D03*
X430200Y30000D03*
X441800Y10000D03*
X430200Y10000D03*
D11*
X437000Y127800D03*
X437000Y116200D03*
D12*
X465200Y20000D03*
X476800Y20000D03*
D13*
X466000Y99750D03*
X466000Y93250D03*
X466000Y86750D03*
X466000Y80250D03*
D14*
X447000Y90000D03*
D15*
X434300Y80750D03*
X434300Y86750D03*
X434300Y93250D03*
X434300Y99250D03*
D16*
X582867Y202853D03*
D17*
X557147Y202853D03*
D18*
X582860Y177140D03*
D19*
X557150Y177148D03*
D20*
X604350Y217500D03*
X604350Y212500D03*
X604350Y207500D03*
X604350Y202500D03*
X604350Y197500D03*
X604350Y192500D03*
X604350Y187500D03*
X604350Y182500D03*
X604350Y177500D03*
X604350Y172500D03*
X604350Y167500D03*
X604350Y162500D03*
D21*
X597500Y155650D03*
X592500Y155650D03*
X587500Y155650D03*
X582500Y155650D03*
X577500Y155650D03*
X572500Y155650D03*
X567500Y155650D03*
X562500Y155650D03*
X557500Y155650D03*
X552500Y155650D03*
X547500Y155650D03*
X542500Y155650D03*
D20*
X535650Y162500D03*
X535650Y167500D03*
X535650Y172500D03*
X535650Y177500D03*
X535650Y182500D03*
X535650Y187500D03*
X535650Y192500D03*
X535650Y197500D03*
X535650Y202500D03*
X535650Y207500D03*
X535650Y212500D03*
X535650Y217500D03*
D21*
X542500Y224350D03*
X547500Y224350D03*
X552500Y224350D03*
X557500Y224350D03*
X562500Y224350D03*
X567500Y224350D03*
X572500Y224350D03*
X577500Y224350D03*
X582500Y224350D03*
X587500Y224350D03*
X592500Y224350D03*
X597500Y224350D03*
D22*
X519000Y225500D03*
X519000Y242500D03*
D23*
X531000Y24000D03*
D24*
X540250Y30500D03*
X540250Y24000D03*
X540250Y17500D03*
X521750Y17500D03*
X521750Y24000D03*
X521750Y30500D03*
D11*
X551000Y18200D03*
X551000Y29800D03*
X501000Y29800D03*
X501000Y18200D03*
D25*
X503000Y248750D03*
X503000Y236250D03*
X503000Y223750D03*
X503000Y211250D03*
X481000Y211250D03*
X481000Y223750D03*
X481000Y236250D03*
X481000Y248750D03*
D26*
X602000Y92000D03*
X602000Y88000D03*
X602000Y84000D03*
X602000Y80000D03*
X602000Y76000D03*
X602000Y72000D03*
X578000Y72000D03*
X578000Y76000D03*
X578000Y80000D03*
X578000Y84000D03*
X578000Y88000D03*
X578000Y92000D03*
D11*
X517000Y85800D03*
X517000Y74200D03*
X501000Y85800D03*
X501000Y74200D03*
D12*
X523200Y108000D03*
X534800Y108000D03*
D10*
X774500Y142000D03*
X791500Y142000D03*
X756500Y255000D03*
X773500Y255000D03*
D11*
X671000Y127800D03*
X671000Y116200D03*
D12*
X651800Y30000D03*
X640200Y30000D03*
X651800Y10000D03*
X640200Y10000D03*
D11*
X647000Y127800D03*
X647000Y116200D03*
D12*
X675200Y20000D03*
X686800Y20000D03*
D13*
X676000Y99750D03*
X676000Y93250D03*
X676000Y86750D03*
X676000Y80250D03*
D14*
X657000Y90000D03*
D15*
X644300Y80750D03*
X644300Y86750D03*
X644300Y93250D03*
X644300Y99250D03*
D16*
X792867Y202853D03*
D17*
X767147Y202853D03*
D18*
X792860Y177140D03*
D19*
X767150Y177148D03*
D20*
X814350Y217500D03*
X814350Y212500D03*
X814350Y207500D03*
X814350Y202500D03*
X814350Y197500D03*
X814350Y192500D03*
X814350Y187500D03*
X814350Y182500D03*
X814350Y177500D03*
X814350Y172500D03*
X814350Y167500D03*
X814350Y162500D03*
D21*
X807500Y155650D03*
X802500Y155650D03*
X797500Y155650D03*
X792500Y155650D03*
X787500Y155650D03*
X782500Y155650D03*
X777500Y155650D03*
X772500Y155650D03*
X767500Y155650D03*
X762500Y155650D03*
X757500Y155650D03*
X752500Y155650D03*
D20*
X745650Y162500D03*
X745650Y167500D03*
X745650Y172500D03*
X745650Y177500D03*
X745650Y182500D03*
X745650Y187500D03*
X745650Y192500D03*
X745650Y197500D03*
X745650Y202500D03*
X745650Y207500D03*
X745650Y212500D03*
X745650Y217500D03*
D21*
X752500Y224350D03*
X757500Y224350D03*
X762500Y224350D03*
X767500Y224350D03*
X772500Y224350D03*
X777500Y224350D03*
X782500Y224350D03*
X787500Y224350D03*
X792500Y224350D03*
X797500Y224350D03*
X802500Y224350D03*
X807500Y224350D03*
D22*
X729000Y225500D03*
X729000Y242500D03*
D23*
X741000Y24000D03*
D24*
X750250Y30500D03*
X750250Y24000D03*
X750250Y17500D03*
X731750Y17500D03*
X731750Y24000D03*
X731750Y30500D03*
D11*
X761000Y18200D03*
X761000Y29800D03*
X711000Y29800D03*
X711000Y18200D03*
D25*
X713000Y248750D03*
X713000Y236250D03*
X713000Y223750D03*
X713000Y211250D03*
X691000Y211250D03*
X691000Y223750D03*
X691000Y236250D03*
X691000Y248750D03*
D26*
X812000Y92000D03*
X812000Y88000D03*
X812000Y84000D03*
X812000Y80000D03*
X812000Y76000D03*
X812000Y72000D03*
X788000Y72000D03*
X788000Y76000D03*
X788000Y80000D03*
X788000Y84000D03*
X788000Y88000D03*
X788000Y92000D03*
D11*
X727000Y85800D03*
X727000Y74200D03*
X711000Y85800D03*
X711000Y74200D03*
D12*
X733200Y108000D03*
X744800Y108000D03*
M02*
