G04 EAGLE Gerber RS-274X export*
G75*
%MOMM*%
%FSLAX34Y34*%
%LPD*%
%INSolderpaste Top*%
%IPPOS*%
%AMOC8*
5,1,8,0,0,1.08239X$1,22.5*%
G01*
%ADD10R,1.000000X1.100000*%
%ADD11R,1.100000X1.000000*%
%ADD12R,0.850000X0.900000*%
%ADD13R,1.800000X1.000000*%
%ADD14R,0.700000X1.000000*%
%ADD15R,0.900000X0.850000*%


D10*
X121000Y196500D03*
X121000Y213500D03*
D11*
X126500Y255000D03*
X143500Y255000D03*
D10*
X184000Y123500D03*
X184000Y140500D03*
D12*
X158800Y144000D03*
X147200Y144000D03*
D13*
X145000Y180500D03*
X145000Y205500D03*
D10*
X83000Y231500D03*
X83000Y248500D03*
X61000Y230500D03*
X61000Y247500D03*
D12*
X139200Y168500D03*
X150800Y168500D03*
X139200Y217500D03*
X150800Y217500D03*
D14*
X165000Y165000D03*
X165000Y220000D03*
X186500Y165000D03*
X186500Y220000D03*
D15*
X125000Y238800D03*
X125000Y227200D03*
D10*
X331000Y196500D03*
X331000Y213500D03*
D11*
X336500Y255000D03*
X353500Y255000D03*
D10*
X394000Y123500D03*
X394000Y140500D03*
D12*
X368800Y144000D03*
X357200Y144000D03*
D13*
X355000Y180500D03*
X355000Y205500D03*
D10*
X293000Y231500D03*
X293000Y248500D03*
X271000Y230500D03*
X271000Y247500D03*
D12*
X349200Y168500D03*
X360800Y168500D03*
X349200Y217500D03*
X360800Y217500D03*
D14*
X375000Y165000D03*
X375000Y220000D03*
X396500Y165000D03*
X396500Y220000D03*
D15*
X335000Y238800D03*
X335000Y227200D03*
D10*
X541000Y196500D03*
X541000Y213500D03*
D11*
X546500Y255000D03*
X563500Y255000D03*
D10*
X604000Y123500D03*
X604000Y140500D03*
D12*
X578800Y144000D03*
X567200Y144000D03*
D13*
X565000Y180500D03*
X565000Y205500D03*
D10*
X503000Y231500D03*
X503000Y248500D03*
X481000Y230500D03*
X481000Y247500D03*
D12*
X559200Y168500D03*
X570800Y168500D03*
X559200Y217500D03*
X570800Y217500D03*
D14*
X585000Y165000D03*
X585000Y220000D03*
X606500Y165000D03*
X606500Y220000D03*
D15*
X545000Y238800D03*
X545000Y227200D03*
D10*
X751000Y196500D03*
X751000Y213500D03*
D11*
X756500Y255000D03*
X773500Y255000D03*
D10*
X814000Y123500D03*
X814000Y140500D03*
D12*
X788800Y144000D03*
X777200Y144000D03*
D13*
X775000Y180500D03*
X775000Y205500D03*
D10*
X713000Y231500D03*
X713000Y248500D03*
X691000Y230500D03*
X691000Y247500D03*
D12*
X769200Y168500D03*
X780800Y168500D03*
X769200Y217500D03*
X780800Y217500D03*
D14*
X795000Y165000D03*
X795000Y220000D03*
X816500Y165000D03*
X816500Y220000D03*
D15*
X755000Y238800D03*
X755000Y227200D03*
M02*
