M48
;GenerationSoftware,Autodesk,EAGLE,9.6.0*%
;CreationDate,2020-10-29T11:39:09Z*%
FMAT,2
ICI,OFF
METRIC,TZ,000.000
T8C0.200
T7C0.350
T6C0.500
T5C0.900
T4C1.000
T3C1.295
T2C3.000
T1C3.100
%
G90
M71
T1
X59000Y3000
X80000Y3000
X38000Y3000
X17000Y3000
T2
X24000Y24000
X66000Y24000
X45000Y24000
X3000Y24000
T3
X71100Y5500
X73640Y5500
X52640Y5500
X2000Y5500
X4540Y5500
X10640Y5500
X8100Y5500
X23000Y5500
X25540Y5500
X29100Y5500
X31640Y5500
X44000Y5500
X46540Y5500
X50100Y5500
X65000Y5500
X67540Y5500
T4
X7000Y10000
X61000Y25000
X82000Y25000
X28000Y10000
X16000Y25000
X37000Y25000
X49000Y10000
X79000Y25000
X19000Y25000
X40000Y25000
X70000Y10000
X58000Y25000
T5
X71600Y15800
X24600Y15800
X8600Y15800
X3600Y15800
X50600Y15800
X45600Y15800
X66600Y15800
X29600Y15800
T6
X13750Y23890
X34750Y23890
X55750Y23890
X76750Y23890
X7000Y12500
X49000Y12500
X28000Y12500
X70000Y12500
T7
X61300Y20400
X53600Y26200
X58000Y18000
X55000Y17000
X55000Y18000
X55000Y19000
X58000Y19000
X59000Y19000
X59000Y18000
X60400Y11300
X55400Y11700
X56400Y12700
X56400Y11700
X57400Y12700
X57400Y11700
X50500Y18300
X50500Y17500
X55400Y12700
X82300Y20400
X74600Y26200
X79000Y18000
X76000Y17000
X76000Y18000
X76000Y19000
X79000Y19000
X80000Y19000
X80000Y18000
X81400Y11300
X76400Y11700
X77400Y12700
X77400Y11700
X78400Y12700
X78400Y11700
X71500Y18300
X71500Y17500
X76400Y12700
X19300Y17750
X5680Y3000
X40300Y17750
X26680Y3000
X61300Y17750
X47680Y3000
X82300Y17750
X68680Y3000
X2900Y12200
X10000Y14500
X23900Y12200
X31000Y14500
X44900Y12200
X52000Y14500
X65900Y12200
X73000Y14500
X5100Y23000
X26100Y23000
X47100Y23000
X68100Y23000
X7200Y26000
X9100Y20300
X28200Y26000
X30100Y20300
X49200Y26000
X51100Y20300
X70200Y26000
X72100Y20300
X18440Y23780
X19200Y23200
X39400Y11300
X17200Y14200
X15750Y23800
X8300Y26000
X11565Y22500
X9200Y18800
X13200Y13483
X14765Y7900
X19300Y20400
X33000Y4000
X38200Y14200
X36750Y23800
X29300Y26000
X32565Y22500
X30200Y18800
X34200Y13483
X35765Y7900
X11600Y26200
X54000Y4000
X59200Y14200
X57750Y23800
X50300Y26000
X53565Y22500
X51200Y18800
X55200Y13483
X56765Y7900
X16000Y18000
X75000Y4000
X80200Y14200
X78750Y23800
X71300Y26000
X74565Y22500
X72200Y18800
X76200Y13483
X77765Y7900
X13000Y17000
X19300Y19250
X11500Y15500
X14100Y7700
X32500Y15500
X35100Y7700
X53500Y15500
X56100Y7700
X74500Y15500
X77100Y7700
X10100Y17752
X14500Y10300
X31100Y17752
X35500Y10300
X52100Y17752
X56500Y10300
X73100Y17752
X77500Y10300
X10700Y17250
X14700Y6900
X31700Y17250
X35700Y6900
X52700Y17250
X56700Y6900
X13000Y18000
X77700Y6900
X11000Y15000
X13600Y8400
X32000Y15000
X34600Y8400
X53000Y15000
X55600Y8400
X74000Y15000
X76600Y8400
X16700Y12700
X12500Y10800
X37700Y12700
X33500Y10800
X58700Y12700
X54500Y10800
X79700Y12700
X75500Y10800
X39440Y23780
X40200Y23200
X40300Y19250
X60440Y23780
X61200Y23200
X61300Y19250
X81440Y23780
X82200Y23200
X82300Y19250
X13000Y19000
X16000Y19000
X12000Y4000
X17000Y19000
X17000Y18000
X18400Y11300
X13400Y11700
X14400Y12700
X14400Y11700
X15400Y12700
X15400Y11700
X8500Y18300
X8500Y17500
X13400Y12700
X40300Y20400
X32600Y26200
X37000Y18000
X34000Y17000
X34000Y18000
X34000Y19000
X37000Y19000
X38000Y19000
X38000Y18000
X34400Y11700
X35400Y12700
X35400Y11700
X36400Y12700
X36400Y11700
X29500Y18300
X29500Y17500
X34400Y12700
X73700Y17250
T8
X20000Y14330
X20000Y14660
X20000Y15000
X20000Y14000
X21000Y14670
X21000Y14340
X21000Y14000
X21000Y15000
X20000Y12330
X20000Y12660
X20000Y13000
X20000Y12000
X21000Y12670
X21000Y12340
X21000Y12000
X21000Y13000
X20000Y8330
X20000Y8660
X20000Y9000
X20000Y8000
X21000Y8670
X21000Y8340
X21000Y8000
X21000Y9000
X20000Y5330
X20000Y5660
X20000Y6000
X20000Y5000
X21000Y5670
X21000Y5340
X21000Y5000
X21000Y6000
X20000Y6830
X20000Y7160
X20000Y7500
X20000Y6500
X21000Y7170
X21000Y6840
X21000Y6500
X21000Y7500
X20000Y13500
X21000Y13500
X41000Y21330
X41000Y21660
X41000Y22000
X41000Y21000
X42000Y21670
X42000Y21340
X42000Y21000
X42000Y22000
X41000Y18330
X41000Y18660
X41000Y19000
X41000Y18000
X42000Y18670
X42000Y18340
X42000Y18000
X42000Y19000
X41000Y19830
X41000Y20160
X41000Y20500
X41000Y19500
X42000Y20170
X42000Y19840
X42000Y19500
X42000Y20500
X41000Y14330
X41000Y14660
X41000Y15000
X41000Y14000
X42000Y14670
X42000Y14340
X42000Y14000
X42000Y15000
X41000Y12330
X41000Y12660
X41000Y13000
X41000Y12000
X42000Y12670
X42000Y12340
X42000Y12000
X42000Y13000
X41000Y8330
X41000Y8660
X41000Y9000
X41000Y8000
X42000Y8670
X42000Y8340
X42000Y8000
X20000Y21330
X41000Y5330
X41000Y5660
X41000Y6000
X41000Y5000
X42000Y5670
X42000Y5340
X42000Y5000
X42000Y6000
X41000Y6830
X41000Y7160
X41000Y7500
X41000Y6500
X42000Y7170
X42000Y6840
X42000Y6500
X42000Y7500
X41000Y13500
X42000Y13500
X62000Y21330
X62000Y21660
X62000Y22000
X62000Y21000
X63000Y21670
X63000Y21340
X63000Y21000
X63000Y22000
X62000Y18330
X62000Y18660
X62000Y19000
X62000Y18000
X63000Y18670
X63000Y18340
X63000Y18000
X63000Y19000
X62000Y19830
X62000Y20160
X62000Y20500
X62000Y19500
X63000Y20170
X63000Y19840
X63000Y19500
X63000Y20500
X62000Y14330
X62000Y14660
X62000Y15000
X62000Y14000
X63000Y14670
X63000Y14340
X63000Y14000
X63000Y15000
X62000Y12330
X62000Y12660
X62000Y13000
X42000Y9000
X63000Y12670
X63000Y12340
X63000Y12000
X63000Y13000
X62000Y8330
X62000Y8660
X62000Y9000
X62000Y8000
X63000Y8670
X63000Y8340
X63000Y8000
X63000Y9000
X62000Y5330
X62000Y5660
X62000Y6000
X62000Y5000
X63000Y5670
X63000Y5340
X63000Y5000
X63000Y6000
X62000Y6830
X62000Y7160
X62000Y7500
X62000Y6500
X63000Y7170
X63000Y6840
X63000Y6500
X63000Y7500
X62000Y13500
X63000Y13500
X20000Y21660
X20000Y22000
X20000Y21000
X21000Y21670
X21000Y21340
X21000Y21000
X21000Y22000
X20000Y18330
X20000Y18660
X20000Y19000
X20000Y18000
X21000Y18670
X21000Y18340
X21000Y18000
X21000Y19000
X20000Y19830
X20000Y20160
X20000Y20500
X20000Y19500
X21000Y20170
X21000Y19840
X21000Y19500
X21000Y20500
X62000Y12000
M30