G04 EAGLE Gerber RS-274X export*
G75*
%MOMM*%
%FSLAX34Y34*%
%LPD*%
%INSilkscreen Bottom*%
%IPPOS*%
%AMOC8*
5,1,8,0,0,1.08239X$1,22.5*%
G01*
%ADD10C,0.127000*%
%ADD11C,0.200000*%
%ADD12C,0.152400*%


D10*
X122939Y228904D02*
X122939Y227832D01*
X122941Y227767D01*
X122947Y227703D01*
X122957Y227639D01*
X122970Y227575D01*
X122988Y227513D01*
X123009Y227452D01*
X123033Y227392D01*
X123062Y227334D01*
X123094Y227277D01*
X123129Y227223D01*
X123167Y227171D01*
X123209Y227121D01*
X123253Y227074D01*
X123300Y227030D01*
X123350Y226988D01*
X123402Y226950D01*
X123456Y226915D01*
X123513Y226883D01*
X123571Y226854D01*
X123631Y226830D01*
X123692Y226809D01*
X123754Y226791D01*
X123818Y226778D01*
X123882Y226768D01*
X123946Y226762D01*
X124011Y226760D01*
X124011Y226759D02*
X126693Y226759D01*
X126693Y226760D02*
X126758Y226762D01*
X126822Y226768D01*
X126886Y226778D01*
X126950Y226791D01*
X127012Y226809D01*
X127073Y226830D01*
X127133Y226854D01*
X127191Y226883D01*
X127248Y226915D01*
X127302Y226950D01*
X127354Y226988D01*
X127404Y227030D01*
X127451Y227074D01*
X127495Y227121D01*
X127537Y227171D01*
X127575Y227223D01*
X127610Y227277D01*
X127642Y227334D01*
X127671Y227392D01*
X127695Y227452D01*
X127716Y227513D01*
X127734Y227575D01*
X127747Y227639D01*
X127757Y227703D01*
X127763Y227767D01*
X127765Y227832D01*
X127765Y228904D01*
X127765Y232834D02*
X127763Y232902D01*
X127757Y232969D01*
X127748Y233036D01*
X127735Y233103D01*
X127718Y233168D01*
X127697Y233233D01*
X127673Y233296D01*
X127645Y233358D01*
X127614Y233418D01*
X127580Y233476D01*
X127542Y233532D01*
X127502Y233587D01*
X127458Y233638D01*
X127411Y233687D01*
X127362Y233734D01*
X127311Y233778D01*
X127256Y233818D01*
X127200Y233856D01*
X127142Y233890D01*
X127082Y233921D01*
X127020Y233949D01*
X126957Y233973D01*
X126892Y233994D01*
X126827Y234011D01*
X126760Y234024D01*
X126693Y234033D01*
X126626Y234039D01*
X126558Y234041D01*
X127765Y232834D02*
X127763Y232756D01*
X127757Y232678D01*
X127747Y232601D01*
X127734Y232524D01*
X127716Y232448D01*
X127695Y232373D01*
X127670Y232299D01*
X127641Y232227D01*
X127609Y232156D01*
X127573Y232087D01*
X127534Y232019D01*
X127491Y231954D01*
X127445Y231891D01*
X127396Y231830D01*
X127344Y231772D01*
X127289Y231717D01*
X127232Y231664D01*
X127172Y231615D01*
X127109Y231568D01*
X127044Y231525D01*
X126978Y231485D01*
X126909Y231448D01*
X126838Y231415D01*
X126766Y231385D01*
X126693Y231359D01*
X125620Y233639D02*
X125669Y233688D01*
X125721Y233735D01*
X125776Y233778D01*
X125833Y233819D01*
X125892Y233857D01*
X125953Y233891D01*
X126016Y233922D01*
X126080Y233950D01*
X126146Y233974D01*
X126212Y233994D01*
X126280Y234011D01*
X126349Y234024D01*
X126418Y234033D01*
X126488Y234039D01*
X126558Y234041D01*
X125620Y233639D02*
X122939Y231360D01*
X122939Y234041D01*
X17000Y202100D02*
X7550Y202100D01*
X7550Y60700D01*
X17000Y60700D01*
X157050Y92400D02*
X157050Y149400D01*
D11*
X-100Y169500D02*
X-98Y169563D01*
X-92Y169625D01*
X-82Y169687D01*
X-69Y169749D01*
X-51Y169809D01*
X-30Y169868D01*
X-5Y169926D01*
X24Y169982D01*
X56Y170036D01*
X91Y170088D01*
X129Y170137D01*
X171Y170185D01*
X215Y170229D01*
X263Y170271D01*
X312Y170309D01*
X364Y170344D01*
X418Y170376D01*
X474Y170405D01*
X532Y170430D01*
X591Y170451D01*
X651Y170469D01*
X713Y170482D01*
X775Y170492D01*
X837Y170498D01*
X900Y170500D01*
X963Y170498D01*
X1025Y170492D01*
X1087Y170482D01*
X1149Y170469D01*
X1209Y170451D01*
X1268Y170430D01*
X1326Y170405D01*
X1382Y170376D01*
X1436Y170344D01*
X1488Y170309D01*
X1537Y170271D01*
X1585Y170229D01*
X1629Y170185D01*
X1671Y170137D01*
X1709Y170088D01*
X1744Y170036D01*
X1776Y169982D01*
X1805Y169926D01*
X1830Y169868D01*
X1851Y169809D01*
X1869Y169749D01*
X1882Y169687D01*
X1892Y169625D01*
X1898Y169563D01*
X1900Y169500D01*
X1898Y169437D01*
X1892Y169375D01*
X1882Y169313D01*
X1869Y169251D01*
X1851Y169191D01*
X1830Y169132D01*
X1805Y169074D01*
X1776Y169018D01*
X1744Y168964D01*
X1709Y168912D01*
X1671Y168863D01*
X1629Y168815D01*
X1585Y168771D01*
X1537Y168729D01*
X1488Y168691D01*
X1436Y168656D01*
X1382Y168624D01*
X1326Y168595D01*
X1268Y168570D01*
X1209Y168549D01*
X1149Y168531D01*
X1087Y168518D01*
X1025Y168508D01*
X963Y168502D01*
X900Y168500D01*
X837Y168502D01*
X775Y168508D01*
X713Y168518D01*
X651Y168531D01*
X591Y168549D01*
X532Y168570D01*
X474Y168595D01*
X418Y168624D01*
X364Y168656D01*
X312Y168691D01*
X263Y168729D01*
X215Y168771D01*
X171Y168815D01*
X129Y168863D01*
X91Y168912D01*
X56Y168964D01*
X24Y169018D01*
X-5Y169074D01*
X-30Y169132D01*
X-51Y169191D01*
X-69Y169251D01*
X-82Y169313D01*
X-92Y169375D01*
X-98Y169437D01*
X-100Y169500D01*
D10*
X168255Y225948D02*
X173081Y225948D01*
X173081Y227289D01*
X173079Y227360D01*
X173073Y227432D01*
X173064Y227502D01*
X173051Y227572D01*
X173034Y227642D01*
X173013Y227710D01*
X172989Y227777D01*
X172961Y227843D01*
X172930Y227907D01*
X172895Y227970D01*
X172857Y228030D01*
X172816Y228089D01*
X172772Y228145D01*
X172725Y228199D01*
X172676Y228250D01*
X172623Y228298D01*
X172568Y228344D01*
X172511Y228386D01*
X172451Y228426D01*
X172390Y228462D01*
X172326Y228495D01*
X172261Y228524D01*
X172195Y228550D01*
X172127Y228573D01*
X172058Y228592D01*
X171988Y228607D01*
X171918Y228618D01*
X171847Y228626D01*
X171776Y228630D01*
X171704Y228630D01*
X171633Y228626D01*
X171562Y228618D01*
X171492Y228607D01*
X171422Y228592D01*
X171353Y228573D01*
X171285Y228550D01*
X171219Y228524D01*
X171154Y228495D01*
X171090Y228462D01*
X171029Y228426D01*
X170969Y228386D01*
X170912Y228344D01*
X170857Y228298D01*
X170804Y228250D01*
X170755Y228199D01*
X170708Y228145D01*
X170664Y228089D01*
X170623Y228030D01*
X170585Y227970D01*
X170550Y227907D01*
X170519Y227843D01*
X170491Y227777D01*
X170467Y227710D01*
X170446Y227642D01*
X170429Y227572D01*
X170416Y227502D01*
X170407Y227432D01*
X170401Y227360D01*
X170399Y227289D01*
X170400Y227289D02*
X170400Y225948D01*
X170400Y227557D02*
X168255Y228629D01*
X172009Y231371D02*
X173081Y232711D01*
X168255Y232711D01*
X168255Y231371D02*
X168255Y234052D01*
D12*
X115336Y261336D02*
X72664Y261336D01*
X115336Y261336D02*
X115336Y256764D01*
X115336Y218664D02*
X72664Y218664D01*
X72664Y223236D01*
X72664Y256764D02*
X72664Y261336D01*
X115336Y223236D02*
X115336Y218664D01*
X65552Y227808D02*
X65550Y227862D01*
X65544Y227916D01*
X65535Y227970D01*
X65521Y228023D01*
X65504Y228074D01*
X65483Y228125D01*
X65459Y228173D01*
X65431Y228220D01*
X65400Y228265D01*
X65366Y228307D01*
X65329Y228347D01*
X65289Y228384D01*
X65247Y228418D01*
X65202Y228449D01*
X65155Y228477D01*
X65107Y228501D01*
X65056Y228522D01*
X65005Y228539D01*
X64952Y228553D01*
X64898Y228562D01*
X64844Y228568D01*
X64790Y228570D01*
X64736Y228568D01*
X64682Y228562D01*
X64628Y228553D01*
X64575Y228539D01*
X64524Y228522D01*
X64473Y228501D01*
X64425Y228477D01*
X64378Y228449D01*
X64333Y228418D01*
X64291Y228384D01*
X64251Y228347D01*
X64214Y228307D01*
X64180Y228265D01*
X64149Y228220D01*
X64121Y228173D01*
X64097Y228125D01*
X64076Y228074D01*
X64059Y228023D01*
X64045Y227970D01*
X64036Y227916D01*
X64030Y227862D01*
X64028Y227808D01*
X64030Y227754D01*
X64036Y227700D01*
X64045Y227646D01*
X64059Y227593D01*
X64076Y227542D01*
X64097Y227491D01*
X64121Y227443D01*
X64149Y227396D01*
X64180Y227351D01*
X64214Y227309D01*
X64251Y227269D01*
X64291Y227232D01*
X64333Y227198D01*
X64378Y227167D01*
X64425Y227139D01*
X64473Y227115D01*
X64524Y227094D01*
X64575Y227077D01*
X64628Y227063D01*
X64682Y227054D01*
X64736Y227048D01*
X64790Y227046D01*
X64844Y227048D01*
X64898Y227054D01*
X64952Y227063D01*
X65005Y227077D01*
X65056Y227094D01*
X65107Y227115D01*
X65155Y227139D01*
X65202Y227167D01*
X65247Y227198D01*
X65289Y227232D01*
X65329Y227269D01*
X65366Y227309D01*
X65400Y227351D01*
X65431Y227396D01*
X65459Y227443D01*
X65483Y227491D01*
X65504Y227542D01*
X65521Y227593D01*
X65535Y227646D01*
X65544Y227700D01*
X65550Y227754D01*
X65552Y227808D01*
D10*
X122939Y507832D02*
X122939Y508904D01*
X122939Y507832D02*
X122941Y507767D01*
X122947Y507703D01*
X122957Y507639D01*
X122970Y507575D01*
X122988Y507513D01*
X123009Y507452D01*
X123033Y507392D01*
X123062Y507334D01*
X123094Y507277D01*
X123129Y507223D01*
X123167Y507171D01*
X123209Y507121D01*
X123253Y507074D01*
X123300Y507030D01*
X123350Y506988D01*
X123402Y506950D01*
X123456Y506915D01*
X123513Y506883D01*
X123571Y506854D01*
X123631Y506830D01*
X123692Y506809D01*
X123754Y506791D01*
X123818Y506778D01*
X123882Y506768D01*
X123946Y506762D01*
X124011Y506760D01*
X124011Y506759D02*
X126693Y506759D01*
X126693Y506760D02*
X126758Y506762D01*
X126822Y506768D01*
X126886Y506778D01*
X126950Y506791D01*
X127012Y506809D01*
X127073Y506830D01*
X127133Y506854D01*
X127191Y506883D01*
X127248Y506915D01*
X127302Y506950D01*
X127354Y506988D01*
X127404Y507030D01*
X127451Y507074D01*
X127495Y507121D01*
X127537Y507171D01*
X127575Y507223D01*
X127610Y507277D01*
X127642Y507334D01*
X127671Y507392D01*
X127695Y507452D01*
X127716Y507513D01*
X127734Y507575D01*
X127747Y507639D01*
X127757Y507703D01*
X127763Y507767D01*
X127765Y507832D01*
X127765Y508904D01*
X122939Y511360D02*
X122939Y512968D01*
X122941Y513033D01*
X122947Y513097D01*
X122957Y513161D01*
X122970Y513225D01*
X122988Y513287D01*
X123009Y513348D01*
X123033Y513408D01*
X123062Y513466D01*
X123094Y513523D01*
X123129Y513577D01*
X123167Y513629D01*
X123209Y513679D01*
X123253Y513726D01*
X123300Y513770D01*
X123350Y513812D01*
X123402Y513850D01*
X123456Y513885D01*
X123513Y513917D01*
X123571Y513946D01*
X123631Y513970D01*
X123692Y513991D01*
X123754Y514009D01*
X123818Y514022D01*
X123882Y514032D01*
X123946Y514038D01*
X124011Y514040D01*
X124011Y514041D02*
X124548Y514041D01*
X124548Y514040D02*
X124613Y514038D01*
X124677Y514032D01*
X124741Y514022D01*
X124805Y514009D01*
X124867Y513991D01*
X124928Y513970D01*
X124988Y513946D01*
X125046Y513917D01*
X125103Y513885D01*
X125157Y513850D01*
X125209Y513812D01*
X125259Y513770D01*
X125306Y513726D01*
X125350Y513679D01*
X125392Y513629D01*
X125430Y513577D01*
X125465Y513523D01*
X125497Y513466D01*
X125526Y513408D01*
X125550Y513348D01*
X125571Y513287D01*
X125589Y513225D01*
X125602Y513161D01*
X125612Y513097D01*
X125618Y513033D01*
X125620Y512968D01*
X125620Y511360D01*
X127765Y511360D01*
X127765Y514041D01*
X17000Y482100D02*
X7550Y482100D01*
X7550Y340700D01*
X17000Y340700D01*
X157050Y372400D02*
X157050Y429400D01*
D11*
X-100Y449500D02*
X-98Y449563D01*
X-92Y449625D01*
X-82Y449687D01*
X-69Y449749D01*
X-51Y449809D01*
X-30Y449868D01*
X-5Y449926D01*
X24Y449982D01*
X56Y450036D01*
X91Y450088D01*
X129Y450137D01*
X171Y450185D01*
X215Y450229D01*
X263Y450271D01*
X312Y450309D01*
X364Y450344D01*
X418Y450376D01*
X474Y450405D01*
X532Y450430D01*
X591Y450451D01*
X651Y450469D01*
X713Y450482D01*
X775Y450492D01*
X837Y450498D01*
X900Y450500D01*
X963Y450498D01*
X1025Y450492D01*
X1087Y450482D01*
X1149Y450469D01*
X1209Y450451D01*
X1268Y450430D01*
X1326Y450405D01*
X1382Y450376D01*
X1436Y450344D01*
X1488Y450309D01*
X1537Y450271D01*
X1585Y450229D01*
X1629Y450185D01*
X1671Y450137D01*
X1709Y450088D01*
X1744Y450036D01*
X1776Y449982D01*
X1805Y449926D01*
X1830Y449868D01*
X1851Y449809D01*
X1869Y449749D01*
X1882Y449687D01*
X1892Y449625D01*
X1898Y449563D01*
X1900Y449500D01*
X1898Y449437D01*
X1892Y449375D01*
X1882Y449313D01*
X1869Y449251D01*
X1851Y449191D01*
X1830Y449132D01*
X1805Y449074D01*
X1776Y449018D01*
X1744Y448964D01*
X1709Y448912D01*
X1671Y448863D01*
X1629Y448815D01*
X1585Y448771D01*
X1537Y448729D01*
X1488Y448691D01*
X1436Y448656D01*
X1382Y448624D01*
X1326Y448595D01*
X1268Y448570D01*
X1209Y448549D01*
X1149Y448531D01*
X1087Y448518D01*
X1025Y448508D01*
X963Y448502D01*
X900Y448500D01*
X837Y448502D01*
X775Y448508D01*
X713Y448518D01*
X651Y448531D01*
X591Y448549D01*
X532Y448570D01*
X474Y448595D01*
X418Y448624D01*
X364Y448656D01*
X312Y448691D01*
X263Y448729D01*
X215Y448771D01*
X171Y448815D01*
X129Y448863D01*
X91Y448912D01*
X56Y448964D01*
X24Y449018D01*
X-5Y449074D01*
X-30Y449132D01*
X-51Y449191D01*
X-69Y449251D01*
X-82Y449313D01*
X-92Y449375D01*
X-98Y449437D01*
X-100Y449500D01*
D10*
X168255Y505948D02*
X173081Y505948D01*
X173081Y507289D01*
X173079Y507360D01*
X173073Y507432D01*
X173064Y507502D01*
X173051Y507572D01*
X173034Y507642D01*
X173013Y507710D01*
X172989Y507777D01*
X172961Y507843D01*
X172930Y507907D01*
X172895Y507970D01*
X172857Y508030D01*
X172816Y508089D01*
X172772Y508145D01*
X172725Y508199D01*
X172676Y508250D01*
X172623Y508298D01*
X172568Y508344D01*
X172511Y508386D01*
X172451Y508426D01*
X172390Y508462D01*
X172326Y508495D01*
X172261Y508524D01*
X172195Y508550D01*
X172127Y508573D01*
X172058Y508592D01*
X171988Y508607D01*
X171918Y508618D01*
X171847Y508626D01*
X171776Y508630D01*
X171704Y508630D01*
X171633Y508626D01*
X171562Y508618D01*
X171492Y508607D01*
X171422Y508592D01*
X171353Y508573D01*
X171285Y508550D01*
X171219Y508524D01*
X171154Y508495D01*
X171090Y508462D01*
X171029Y508426D01*
X170969Y508386D01*
X170912Y508344D01*
X170857Y508298D01*
X170804Y508250D01*
X170755Y508199D01*
X170708Y508145D01*
X170664Y508089D01*
X170623Y508030D01*
X170585Y507970D01*
X170550Y507907D01*
X170519Y507843D01*
X170491Y507777D01*
X170467Y507710D01*
X170446Y507642D01*
X170429Y507572D01*
X170416Y507502D01*
X170407Y507432D01*
X170401Y507360D01*
X170399Y507289D01*
X170400Y507289D02*
X170400Y505948D01*
X170400Y507557D02*
X168255Y508629D01*
X168255Y511371D02*
X168255Y512711D01*
X168257Y512782D01*
X168263Y512854D01*
X168272Y512924D01*
X168285Y512994D01*
X168302Y513064D01*
X168323Y513132D01*
X168347Y513199D01*
X168375Y513265D01*
X168406Y513329D01*
X168441Y513392D01*
X168479Y513452D01*
X168520Y513511D01*
X168564Y513567D01*
X168611Y513621D01*
X168660Y513672D01*
X168713Y513720D01*
X168768Y513766D01*
X168825Y513808D01*
X168885Y513848D01*
X168946Y513884D01*
X169010Y513917D01*
X169075Y513946D01*
X169141Y513972D01*
X169209Y513995D01*
X169278Y514014D01*
X169348Y514029D01*
X169418Y514040D01*
X169489Y514048D01*
X169560Y514052D01*
X169632Y514052D01*
X169703Y514048D01*
X169774Y514040D01*
X169844Y514029D01*
X169914Y514014D01*
X169983Y513995D01*
X170051Y513972D01*
X170117Y513946D01*
X170182Y513917D01*
X170246Y513884D01*
X170307Y513848D01*
X170367Y513808D01*
X170424Y513766D01*
X170479Y513720D01*
X170532Y513672D01*
X170581Y513621D01*
X170628Y513567D01*
X170672Y513511D01*
X170713Y513452D01*
X170751Y513392D01*
X170786Y513329D01*
X170817Y513265D01*
X170845Y513199D01*
X170869Y513132D01*
X170890Y513064D01*
X170907Y512994D01*
X170920Y512924D01*
X170929Y512854D01*
X170935Y512782D01*
X170937Y512711D01*
X173081Y512979D02*
X173081Y511371D01*
X173081Y512979D02*
X173079Y513044D01*
X173073Y513108D01*
X173063Y513172D01*
X173050Y513236D01*
X173032Y513298D01*
X173011Y513359D01*
X172987Y513419D01*
X172958Y513477D01*
X172926Y513534D01*
X172891Y513588D01*
X172853Y513640D01*
X172811Y513690D01*
X172767Y513737D01*
X172720Y513781D01*
X172670Y513823D01*
X172618Y513861D01*
X172564Y513896D01*
X172507Y513928D01*
X172449Y513957D01*
X172389Y513981D01*
X172328Y514002D01*
X172266Y514020D01*
X172202Y514033D01*
X172138Y514043D01*
X172074Y514049D01*
X172009Y514051D01*
X171944Y514049D01*
X171880Y514043D01*
X171816Y514033D01*
X171752Y514020D01*
X171690Y514002D01*
X171629Y513981D01*
X171569Y513957D01*
X171511Y513928D01*
X171454Y513896D01*
X171400Y513861D01*
X171348Y513823D01*
X171298Y513781D01*
X171251Y513737D01*
X171207Y513690D01*
X171165Y513640D01*
X171127Y513588D01*
X171092Y513534D01*
X171060Y513477D01*
X171031Y513419D01*
X171007Y513359D01*
X170986Y513298D01*
X170968Y513236D01*
X170955Y513172D01*
X170945Y513108D01*
X170939Y513044D01*
X170937Y512979D01*
X170936Y512979D02*
X170936Y511907D01*
D12*
X115336Y541336D02*
X72664Y541336D01*
X115336Y541336D02*
X115336Y536764D01*
X115336Y498664D02*
X72664Y498664D01*
X72664Y503236D01*
X72664Y536764D02*
X72664Y541336D01*
X115336Y503236D02*
X115336Y498664D01*
X65552Y507808D02*
X65550Y507862D01*
X65544Y507916D01*
X65535Y507970D01*
X65521Y508023D01*
X65504Y508074D01*
X65483Y508125D01*
X65459Y508173D01*
X65431Y508220D01*
X65400Y508265D01*
X65366Y508307D01*
X65329Y508347D01*
X65289Y508384D01*
X65247Y508418D01*
X65202Y508449D01*
X65155Y508477D01*
X65107Y508501D01*
X65056Y508522D01*
X65005Y508539D01*
X64952Y508553D01*
X64898Y508562D01*
X64844Y508568D01*
X64790Y508570D01*
X64736Y508568D01*
X64682Y508562D01*
X64628Y508553D01*
X64575Y508539D01*
X64524Y508522D01*
X64473Y508501D01*
X64425Y508477D01*
X64378Y508449D01*
X64333Y508418D01*
X64291Y508384D01*
X64251Y508347D01*
X64214Y508307D01*
X64180Y508265D01*
X64149Y508220D01*
X64121Y508173D01*
X64097Y508125D01*
X64076Y508074D01*
X64059Y508023D01*
X64045Y507970D01*
X64036Y507916D01*
X64030Y507862D01*
X64028Y507808D01*
X64030Y507754D01*
X64036Y507700D01*
X64045Y507646D01*
X64059Y507593D01*
X64076Y507542D01*
X64097Y507491D01*
X64121Y507443D01*
X64149Y507396D01*
X64180Y507351D01*
X64214Y507309D01*
X64251Y507269D01*
X64291Y507232D01*
X64333Y507198D01*
X64378Y507167D01*
X64425Y507139D01*
X64473Y507115D01*
X64524Y507094D01*
X64575Y507077D01*
X64628Y507063D01*
X64682Y507054D01*
X64736Y507048D01*
X64790Y507046D01*
X64844Y507048D01*
X64898Y507054D01*
X64952Y507063D01*
X65005Y507077D01*
X65056Y507094D01*
X65107Y507115D01*
X65155Y507139D01*
X65202Y507167D01*
X65247Y507198D01*
X65289Y507232D01*
X65329Y507269D01*
X65366Y507309D01*
X65400Y507351D01*
X65431Y507396D01*
X65459Y507443D01*
X65483Y507491D01*
X65504Y507542D01*
X65521Y507593D01*
X65535Y507646D01*
X65544Y507700D01*
X65550Y507754D01*
X65552Y507808D01*
D10*
X332939Y507832D02*
X332939Y508904D01*
X332939Y507832D02*
X332941Y507767D01*
X332947Y507703D01*
X332957Y507639D01*
X332970Y507575D01*
X332988Y507513D01*
X333009Y507452D01*
X333033Y507392D01*
X333062Y507334D01*
X333094Y507277D01*
X333129Y507223D01*
X333167Y507171D01*
X333209Y507121D01*
X333253Y507074D01*
X333300Y507030D01*
X333350Y506988D01*
X333402Y506950D01*
X333456Y506915D01*
X333513Y506883D01*
X333571Y506854D01*
X333631Y506830D01*
X333692Y506809D01*
X333754Y506791D01*
X333818Y506778D01*
X333882Y506768D01*
X333946Y506762D01*
X334011Y506760D01*
X334011Y506759D02*
X336693Y506759D01*
X336693Y506760D02*
X336758Y506762D01*
X336822Y506768D01*
X336886Y506778D01*
X336950Y506791D01*
X337012Y506809D01*
X337073Y506830D01*
X337133Y506854D01*
X337191Y506883D01*
X337248Y506915D01*
X337302Y506950D01*
X337354Y506988D01*
X337404Y507030D01*
X337451Y507074D01*
X337495Y507121D01*
X337537Y507171D01*
X337575Y507223D01*
X337610Y507277D01*
X337642Y507334D01*
X337671Y507392D01*
X337695Y507452D01*
X337716Y507513D01*
X337734Y507575D01*
X337747Y507639D01*
X337757Y507703D01*
X337763Y507767D01*
X337765Y507832D01*
X337765Y508904D01*
X335084Y512432D02*
X335084Y514041D01*
X335084Y512432D02*
X335086Y512367D01*
X335092Y512303D01*
X335102Y512239D01*
X335115Y512175D01*
X335133Y512113D01*
X335154Y512052D01*
X335178Y511992D01*
X335207Y511934D01*
X335239Y511877D01*
X335274Y511823D01*
X335312Y511771D01*
X335354Y511721D01*
X335398Y511674D01*
X335445Y511630D01*
X335495Y511588D01*
X335547Y511550D01*
X335601Y511515D01*
X335658Y511483D01*
X335716Y511454D01*
X335776Y511430D01*
X335837Y511409D01*
X335899Y511391D01*
X335963Y511378D01*
X336027Y511368D01*
X336091Y511362D01*
X336156Y511360D01*
X336424Y511360D01*
X336424Y511359D02*
X336495Y511361D01*
X336567Y511367D01*
X336637Y511376D01*
X336707Y511389D01*
X336777Y511406D01*
X336845Y511427D01*
X336912Y511451D01*
X336978Y511479D01*
X337042Y511510D01*
X337105Y511545D01*
X337165Y511583D01*
X337224Y511624D01*
X337280Y511668D01*
X337334Y511715D01*
X337385Y511764D01*
X337433Y511817D01*
X337479Y511872D01*
X337521Y511929D01*
X337561Y511989D01*
X337597Y512050D01*
X337630Y512114D01*
X337659Y512179D01*
X337685Y512245D01*
X337708Y512313D01*
X337727Y512382D01*
X337742Y512452D01*
X337753Y512522D01*
X337761Y512593D01*
X337765Y512664D01*
X337765Y512736D01*
X337761Y512807D01*
X337753Y512878D01*
X337742Y512948D01*
X337727Y513018D01*
X337708Y513087D01*
X337685Y513155D01*
X337659Y513221D01*
X337630Y513286D01*
X337597Y513350D01*
X337561Y513411D01*
X337521Y513471D01*
X337479Y513528D01*
X337433Y513583D01*
X337385Y513636D01*
X337334Y513685D01*
X337280Y513732D01*
X337224Y513776D01*
X337165Y513817D01*
X337105Y513855D01*
X337042Y513890D01*
X336978Y513921D01*
X336912Y513949D01*
X336845Y513973D01*
X336777Y513994D01*
X336707Y514011D01*
X336637Y514024D01*
X336567Y514033D01*
X336495Y514039D01*
X336424Y514041D01*
X335084Y514041D01*
X334993Y514039D01*
X334902Y514033D01*
X334812Y514024D01*
X334721Y514010D01*
X334632Y513993D01*
X334544Y513972D01*
X334456Y513947D01*
X334369Y513918D01*
X334284Y513886D01*
X334200Y513851D01*
X334118Y513811D01*
X334038Y513769D01*
X333959Y513723D01*
X333883Y513673D01*
X333809Y513621D01*
X333736Y513565D01*
X333667Y513506D01*
X333600Y513445D01*
X333535Y513380D01*
X333474Y513313D01*
X333415Y513244D01*
X333359Y513171D01*
X333307Y513097D01*
X333257Y513021D01*
X333211Y512942D01*
X333169Y512862D01*
X333129Y512780D01*
X333094Y512696D01*
X333062Y512611D01*
X333033Y512524D01*
X333008Y512436D01*
X332987Y512348D01*
X332970Y512259D01*
X332956Y512168D01*
X332947Y512078D01*
X332941Y511987D01*
X332939Y511896D01*
X227000Y482100D02*
X217550Y482100D01*
X217550Y340700D01*
X227000Y340700D01*
X367050Y372400D02*
X367050Y429400D01*
D11*
X209900Y449500D02*
X209902Y449563D01*
X209908Y449625D01*
X209918Y449687D01*
X209931Y449749D01*
X209949Y449809D01*
X209970Y449868D01*
X209995Y449926D01*
X210024Y449982D01*
X210056Y450036D01*
X210091Y450088D01*
X210129Y450137D01*
X210171Y450185D01*
X210215Y450229D01*
X210263Y450271D01*
X210312Y450309D01*
X210364Y450344D01*
X210418Y450376D01*
X210474Y450405D01*
X210532Y450430D01*
X210591Y450451D01*
X210651Y450469D01*
X210713Y450482D01*
X210775Y450492D01*
X210837Y450498D01*
X210900Y450500D01*
X210963Y450498D01*
X211025Y450492D01*
X211087Y450482D01*
X211149Y450469D01*
X211209Y450451D01*
X211268Y450430D01*
X211326Y450405D01*
X211382Y450376D01*
X211436Y450344D01*
X211488Y450309D01*
X211537Y450271D01*
X211585Y450229D01*
X211629Y450185D01*
X211671Y450137D01*
X211709Y450088D01*
X211744Y450036D01*
X211776Y449982D01*
X211805Y449926D01*
X211830Y449868D01*
X211851Y449809D01*
X211869Y449749D01*
X211882Y449687D01*
X211892Y449625D01*
X211898Y449563D01*
X211900Y449500D01*
X211898Y449437D01*
X211892Y449375D01*
X211882Y449313D01*
X211869Y449251D01*
X211851Y449191D01*
X211830Y449132D01*
X211805Y449074D01*
X211776Y449018D01*
X211744Y448964D01*
X211709Y448912D01*
X211671Y448863D01*
X211629Y448815D01*
X211585Y448771D01*
X211537Y448729D01*
X211488Y448691D01*
X211436Y448656D01*
X211382Y448624D01*
X211326Y448595D01*
X211268Y448570D01*
X211209Y448549D01*
X211149Y448531D01*
X211087Y448518D01*
X211025Y448508D01*
X210963Y448502D01*
X210900Y448500D01*
X210837Y448502D01*
X210775Y448508D01*
X210713Y448518D01*
X210651Y448531D01*
X210591Y448549D01*
X210532Y448570D01*
X210474Y448595D01*
X210418Y448624D01*
X210364Y448656D01*
X210312Y448691D01*
X210263Y448729D01*
X210215Y448771D01*
X210171Y448815D01*
X210129Y448863D01*
X210091Y448912D01*
X210056Y448964D01*
X210024Y449018D01*
X209995Y449074D01*
X209970Y449132D01*
X209949Y449191D01*
X209931Y449251D01*
X209918Y449313D01*
X209908Y449375D01*
X209902Y449437D01*
X209900Y449500D01*
D10*
X378255Y505948D02*
X383081Y505948D01*
X383081Y507289D01*
X383079Y507360D01*
X383073Y507432D01*
X383064Y507502D01*
X383051Y507572D01*
X383034Y507642D01*
X383013Y507710D01*
X382989Y507777D01*
X382961Y507843D01*
X382930Y507907D01*
X382895Y507970D01*
X382857Y508030D01*
X382816Y508089D01*
X382772Y508145D01*
X382725Y508199D01*
X382676Y508250D01*
X382623Y508298D01*
X382568Y508344D01*
X382511Y508386D01*
X382451Y508426D01*
X382390Y508462D01*
X382326Y508495D01*
X382261Y508524D01*
X382195Y508550D01*
X382127Y508573D01*
X382058Y508592D01*
X381988Y508607D01*
X381918Y508618D01*
X381847Y508626D01*
X381776Y508630D01*
X381704Y508630D01*
X381633Y508626D01*
X381562Y508618D01*
X381492Y508607D01*
X381422Y508592D01*
X381353Y508573D01*
X381285Y508550D01*
X381219Y508524D01*
X381154Y508495D01*
X381090Y508462D01*
X381029Y508426D01*
X380969Y508386D01*
X380912Y508344D01*
X380857Y508298D01*
X380804Y508250D01*
X380755Y508199D01*
X380708Y508145D01*
X380664Y508089D01*
X380623Y508030D01*
X380585Y507970D01*
X380550Y507907D01*
X380519Y507843D01*
X380491Y507777D01*
X380467Y507710D01*
X380446Y507642D01*
X380429Y507572D01*
X380416Y507502D01*
X380407Y507432D01*
X380401Y507360D01*
X380399Y507289D01*
X380400Y507289D02*
X380400Y505948D01*
X380400Y507557D02*
X378255Y508629D01*
X378255Y511371D02*
X378255Y512979D01*
X378257Y513044D01*
X378263Y513108D01*
X378273Y513172D01*
X378286Y513236D01*
X378304Y513298D01*
X378325Y513359D01*
X378349Y513419D01*
X378378Y513477D01*
X378410Y513534D01*
X378445Y513588D01*
X378483Y513640D01*
X378525Y513690D01*
X378569Y513737D01*
X378616Y513781D01*
X378666Y513823D01*
X378718Y513861D01*
X378772Y513896D01*
X378829Y513928D01*
X378887Y513957D01*
X378947Y513981D01*
X379008Y514002D01*
X379070Y514020D01*
X379134Y514033D01*
X379198Y514043D01*
X379262Y514049D01*
X379327Y514051D01*
X379327Y514052D02*
X379864Y514052D01*
X379864Y514051D02*
X379929Y514049D01*
X379993Y514043D01*
X380057Y514033D01*
X380121Y514020D01*
X380183Y514002D01*
X380244Y513981D01*
X380304Y513957D01*
X380362Y513928D01*
X380419Y513896D01*
X380473Y513861D01*
X380525Y513823D01*
X380575Y513781D01*
X380622Y513737D01*
X380666Y513690D01*
X380708Y513640D01*
X380746Y513588D01*
X380781Y513534D01*
X380813Y513477D01*
X380842Y513419D01*
X380866Y513359D01*
X380887Y513298D01*
X380905Y513236D01*
X380918Y513172D01*
X380928Y513108D01*
X380934Y513044D01*
X380936Y512979D01*
X380936Y511371D01*
X383081Y511371D01*
X383081Y514052D01*
D12*
X325336Y541336D02*
X282664Y541336D01*
X325336Y541336D02*
X325336Y536764D01*
X325336Y498664D02*
X282664Y498664D01*
X282664Y503236D01*
X282664Y536764D02*
X282664Y541336D01*
X325336Y503236D02*
X325336Y498664D01*
X275552Y507808D02*
X275550Y507862D01*
X275544Y507916D01*
X275535Y507970D01*
X275521Y508023D01*
X275504Y508074D01*
X275483Y508125D01*
X275459Y508173D01*
X275431Y508220D01*
X275400Y508265D01*
X275366Y508307D01*
X275329Y508347D01*
X275289Y508384D01*
X275247Y508418D01*
X275202Y508449D01*
X275155Y508477D01*
X275107Y508501D01*
X275056Y508522D01*
X275005Y508539D01*
X274952Y508553D01*
X274898Y508562D01*
X274844Y508568D01*
X274790Y508570D01*
X274736Y508568D01*
X274682Y508562D01*
X274628Y508553D01*
X274575Y508539D01*
X274524Y508522D01*
X274473Y508501D01*
X274425Y508477D01*
X274378Y508449D01*
X274333Y508418D01*
X274291Y508384D01*
X274251Y508347D01*
X274214Y508307D01*
X274180Y508265D01*
X274149Y508220D01*
X274121Y508173D01*
X274097Y508125D01*
X274076Y508074D01*
X274059Y508023D01*
X274045Y507970D01*
X274036Y507916D01*
X274030Y507862D01*
X274028Y507808D01*
X274030Y507754D01*
X274036Y507700D01*
X274045Y507646D01*
X274059Y507593D01*
X274076Y507542D01*
X274097Y507491D01*
X274121Y507443D01*
X274149Y507396D01*
X274180Y507351D01*
X274214Y507309D01*
X274251Y507269D01*
X274291Y507232D01*
X274333Y507198D01*
X274378Y507167D01*
X274425Y507139D01*
X274473Y507115D01*
X274524Y507094D01*
X274575Y507077D01*
X274628Y507063D01*
X274682Y507054D01*
X274736Y507048D01*
X274790Y507046D01*
X274844Y507048D01*
X274898Y507054D01*
X274952Y507063D01*
X275005Y507077D01*
X275056Y507094D01*
X275107Y507115D01*
X275155Y507139D01*
X275202Y507167D01*
X275247Y507198D01*
X275289Y507232D01*
X275329Y507269D01*
X275366Y507309D01*
X275400Y507351D01*
X275431Y507396D01*
X275459Y507443D01*
X275483Y507491D01*
X275504Y507542D01*
X275521Y507593D01*
X275535Y507646D01*
X275544Y507700D01*
X275550Y507754D01*
X275552Y507808D01*
D10*
X332939Y228904D02*
X332939Y227832D01*
X332941Y227767D01*
X332947Y227703D01*
X332957Y227639D01*
X332970Y227575D01*
X332988Y227513D01*
X333009Y227452D01*
X333033Y227392D01*
X333062Y227334D01*
X333094Y227277D01*
X333129Y227223D01*
X333167Y227171D01*
X333209Y227121D01*
X333253Y227074D01*
X333300Y227030D01*
X333350Y226988D01*
X333402Y226950D01*
X333456Y226915D01*
X333513Y226883D01*
X333571Y226854D01*
X333631Y226830D01*
X333692Y226809D01*
X333754Y226791D01*
X333818Y226778D01*
X333882Y226768D01*
X333946Y226762D01*
X334011Y226760D01*
X334011Y226759D02*
X336693Y226759D01*
X336693Y226760D02*
X336758Y226762D01*
X336822Y226768D01*
X336886Y226778D01*
X336950Y226791D01*
X337012Y226809D01*
X337073Y226830D01*
X337133Y226854D01*
X337191Y226883D01*
X337248Y226915D01*
X337302Y226950D01*
X337354Y226988D01*
X337404Y227030D01*
X337451Y227074D01*
X337495Y227121D01*
X337537Y227171D01*
X337575Y227223D01*
X337610Y227277D01*
X337642Y227334D01*
X337671Y227392D01*
X337695Y227452D01*
X337716Y227513D01*
X337734Y227575D01*
X337747Y227639D01*
X337757Y227703D01*
X337763Y227767D01*
X337765Y227832D01*
X337765Y228904D01*
X337765Y231360D02*
X337229Y231360D01*
X337765Y231360D02*
X337765Y234041D01*
X332939Y232700D01*
X227000Y202100D02*
X217550Y202100D01*
X217550Y60700D01*
X227000Y60700D01*
X367050Y92400D02*
X367050Y149400D01*
D11*
X209900Y169500D02*
X209902Y169563D01*
X209908Y169625D01*
X209918Y169687D01*
X209931Y169749D01*
X209949Y169809D01*
X209970Y169868D01*
X209995Y169926D01*
X210024Y169982D01*
X210056Y170036D01*
X210091Y170088D01*
X210129Y170137D01*
X210171Y170185D01*
X210215Y170229D01*
X210263Y170271D01*
X210312Y170309D01*
X210364Y170344D01*
X210418Y170376D01*
X210474Y170405D01*
X210532Y170430D01*
X210591Y170451D01*
X210651Y170469D01*
X210713Y170482D01*
X210775Y170492D01*
X210837Y170498D01*
X210900Y170500D01*
X210963Y170498D01*
X211025Y170492D01*
X211087Y170482D01*
X211149Y170469D01*
X211209Y170451D01*
X211268Y170430D01*
X211326Y170405D01*
X211382Y170376D01*
X211436Y170344D01*
X211488Y170309D01*
X211537Y170271D01*
X211585Y170229D01*
X211629Y170185D01*
X211671Y170137D01*
X211709Y170088D01*
X211744Y170036D01*
X211776Y169982D01*
X211805Y169926D01*
X211830Y169868D01*
X211851Y169809D01*
X211869Y169749D01*
X211882Y169687D01*
X211892Y169625D01*
X211898Y169563D01*
X211900Y169500D01*
X211898Y169437D01*
X211892Y169375D01*
X211882Y169313D01*
X211869Y169251D01*
X211851Y169191D01*
X211830Y169132D01*
X211805Y169074D01*
X211776Y169018D01*
X211744Y168964D01*
X211709Y168912D01*
X211671Y168863D01*
X211629Y168815D01*
X211585Y168771D01*
X211537Y168729D01*
X211488Y168691D01*
X211436Y168656D01*
X211382Y168624D01*
X211326Y168595D01*
X211268Y168570D01*
X211209Y168549D01*
X211149Y168531D01*
X211087Y168518D01*
X211025Y168508D01*
X210963Y168502D01*
X210900Y168500D01*
X210837Y168502D01*
X210775Y168508D01*
X210713Y168518D01*
X210651Y168531D01*
X210591Y168549D01*
X210532Y168570D01*
X210474Y168595D01*
X210418Y168624D01*
X210364Y168656D01*
X210312Y168691D01*
X210263Y168729D01*
X210215Y168771D01*
X210171Y168815D01*
X210129Y168863D01*
X210091Y168912D01*
X210056Y168964D01*
X210024Y169018D01*
X209995Y169074D01*
X209970Y169132D01*
X209949Y169191D01*
X209931Y169251D01*
X209918Y169313D01*
X209908Y169375D01*
X209902Y169437D01*
X209900Y169500D01*
D10*
X378255Y225948D02*
X383081Y225948D01*
X383081Y227289D01*
X383079Y227360D01*
X383073Y227432D01*
X383064Y227502D01*
X383051Y227572D01*
X383034Y227642D01*
X383013Y227710D01*
X382989Y227777D01*
X382961Y227843D01*
X382930Y227907D01*
X382895Y227970D01*
X382857Y228030D01*
X382816Y228089D01*
X382772Y228145D01*
X382725Y228199D01*
X382676Y228250D01*
X382623Y228298D01*
X382568Y228344D01*
X382511Y228386D01*
X382451Y228426D01*
X382390Y228462D01*
X382326Y228495D01*
X382261Y228524D01*
X382195Y228550D01*
X382127Y228573D01*
X382058Y228592D01*
X381988Y228607D01*
X381918Y228618D01*
X381847Y228626D01*
X381776Y228630D01*
X381704Y228630D01*
X381633Y228626D01*
X381562Y228618D01*
X381492Y228607D01*
X381422Y228592D01*
X381353Y228573D01*
X381285Y228550D01*
X381219Y228524D01*
X381154Y228495D01*
X381090Y228462D01*
X381029Y228426D01*
X380969Y228386D01*
X380912Y228344D01*
X380857Y228298D01*
X380804Y228250D01*
X380755Y228199D01*
X380708Y228145D01*
X380664Y228089D01*
X380623Y228030D01*
X380585Y227970D01*
X380550Y227907D01*
X380519Y227843D01*
X380491Y227777D01*
X380467Y227710D01*
X380446Y227642D01*
X380429Y227572D01*
X380416Y227502D01*
X380407Y227432D01*
X380401Y227360D01*
X380399Y227289D01*
X380400Y227289D02*
X380400Y225948D01*
X380400Y227557D02*
X378255Y228629D01*
X379327Y231371D02*
X383081Y232443D01*
X379327Y231371D02*
X379327Y234052D01*
X380400Y233248D02*
X378255Y233248D01*
D12*
X325336Y261336D02*
X282664Y261336D01*
X325336Y261336D02*
X325336Y256764D01*
X325336Y218664D02*
X282664Y218664D01*
X282664Y223236D01*
X282664Y256764D02*
X282664Y261336D01*
X325336Y223236D02*
X325336Y218664D01*
X275552Y227808D02*
X275550Y227862D01*
X275544Y227916D01*
X275535Y227970D01*
X275521Y228023D01*
X275504Y228074D01*
X275483Y228125D01*
X275459Y228173D01*
X275431Y228220D01*
X275400Y228265D01*
X275366Y228307D01*
X275329Y228347D01*
X275289Y228384D01*
X275247Y228418D01*
X275202Y228449D01*
X275155Y228477D01*
X275107Y228501D01*
X275056Y228522D01*
X275005Y228539D01*
X274952Y228553D01*
X274898Y228562D01*
X274844Y228568D01*
X274790Y228570D01*
X274736Y228568D01*
X274682Y228562D01*
X274628Y228553D01*
X274575Y228539D01*
X274524Y228522D01*
X274473Y228501D01*
X274425Y228477D01*
X274378Y228449D01*
X274333Y228418D01*
X274291Y228384D01*
X274251Y228347D01*
X274214Y228307D01*
X274180Y228265D01*
X274149Y228220D01*
X274121Y228173D01*
X274097Y228125D01*
X274076Y228074D01*
X274059Y228023D01*
X274045Y227970D01*
X274036Y227916D01*
X274030Y227862D01*
X274028Y227808D01*
X274030Y227754D01*
X274036Y227700D01*
X274045Y227646D01*
X274059Y227593D01*
X274076Y227542D01*
X274097Y227491D01*
X274121Y227443D01*
X274149Y227396D01*
X274180Y227351D01*
X274214Y227309D01*
X274251Y227269D01*
X274291Y227232D01*
X274333Y227198D01*
X274378Y227167D01*
X274425Y227139D01*
X274473Y227115D01*
X274524Y227094D01*
X274575Y227077D01*
X274628Y227063D01*
X274682Y227054D01*
X274736Y227048D01*
X274790Y227046D01*
X274844Y227048D01*
X274898Y227054D01*
X274952Y227063D01*
X275005Y227077D01*
X275056Y227094D01*
X275107Y227115D01*
X275155Y227139D01*
X275202Y227167D01*
X275247Y227198D01*
X275289Y227232D01*
X275329Y227269D01*
X275366Y227309D01*
X275400Y227351D01*
X275431Y227396D01*
X275459Y227443D01*
X275483Y227491D01*
X275504Y227542D01*
X275521Y227593D01*
X275535Y227646D01*
X275544Y227700D01*
X275550Y227754D01*
X275552Y227808D01*
M02*
