G04 EAGLE Gerber RS-274X export*
G75*
%MOMM*%
%FSLAX34Y34*%
%LPD*%
%INSoldermask Bottom*%
%IPPOS*%
%AMOC8*
5,1,8,0,0,1.08239X$1,22.5*%
G01*
%ADD10C,3.227000*%
%ADD11C,0.327000*%
%ADD12R,1.127000X1.227000*%
%ADD13R,1.367000X0.927000*%
%ADD14R,2.627000X1.077000*%
%ADD15R,2.327000X1.277000*%
%ADD16R,1.377000X1.287000*%
%ADD17R,1.327000X1.287000*%
%ADD18R,1.277000X1.627000*%
%ADD19R,0.990600X0.381000*%
%ADD20R,2.514600X3.225800*%


D10*
X30000Y240000D03*
X170000Y30000D03*
X30000Y520000D03*
X170000Y310000D03*
X240000Y520000D03*
X380000Y310000D03*
X240000Y240000D03*
X380000Y30000D03*
D11*
X60000Y270000D03*
X50000Y270000D03*
X56700Y270000D03*
X53400Y270000D03*
X90000Y270000D03*
X80000Y270000D03*
X86700Y270000D03*
X83400Y270000D03*
X75000Y270000D03*
X65000Y270000D03*
X71700Y270000D03*
X68400Y270000D03*
X130000Y270000D03*
X120000Y270000D03*
X126700Y270000D03*
X123400Y270000D03*
X160000Y270000D03*
X150000Y270000D03*
X156700Y270000D03*
X153400Y270000D03*
X145000Y270000D03*
X135000Y270000D03*
X141700Y270000D03*
X138400Y270000D03*
X260000Y280000D03*
X250000Y280000D03*
X256700Y280000D03*
X253400Y280000D03*
X260000Y270000D03*
X250000Y270000D03*
X256700Y270000D03*
X253400Y270000D03*
X290000Y280000D03*
X280000Y280000D03*
X286700Y280000D03*
X283400Y280000D03*
X290000Y270000D03*
X280000Y270000D03*
X286700Y270000D03*
X283400Y270000D03*
X275000Y280000D03*
X265000Y280000D03*
X271700Y280000D03*
X268400Y280000D03*
X275000Y270000D03*
X265000Y270000D03*
X271700Y270000D03*
X268400Y270000D03*
X340000Y280000D03*
X330000Y280000D03*
X336700Y280000D03*
X333400Y280000D03*
X340000Y270000D03*
X330000Y270000D03*
X336700Y270000D03*
X333400Y270000D03*
X370000Y280000D03*
X360000Y280000D03*
X366700Y280000D03*
X363400Y280000D03*
X370000Y270000D03*
X360000Y270000D03*
X366700Y270000D03*
X363400Y270000D03*
X355000Y280000D03*
X345000Y280000D03*
X351700Y280000D03*
X348400Y280000D03*
X355000Y270000D03*
X345000Y270000D03*
X351700Y270000D03*
X348400Y270000D03*
X210000Y350000D03*
X210000Y340000D03*
X210000Y346700D03*
X210000Y343400D03*
X210000Y380000D03*
X210000Y370000D03*
X210000Y376700D03*
X210000Y373400D03*
X210000Y365000D03*
X210000Y355000D03*
X210000Y361700D03*
X210000Y358400D03*
X210000Y430000D03*
X210000Y420000D03*
X210000Y426700D03*
X210000Y423400D03*
X210000Y460000D03*
X210000Y450000D03*
X210000Y456700D03*
X210000Y453400D03*
X210000Y445000D03*
X210000Y435000D03*
X210000Y441700D03*
X210000Y438400D03*
X200000Y70000D03*
X200000Y60000D03*
X200000Y66700D03*
X200000Y63400D03*
X210000Y70000D03*
X210000Y60000D03*
X210000Y66700D03*
X210000Y63400D03*
X200000Y100000D03*
X200000Y90000D03*
X200000Y96700D03*
X200000Y93400D03*
X210000Y100000D03*
X210000Y90000D03*
X210000Y96700D03*
X210000Y93400D03*
X200000Y85000D03*
X200000Y75000D03*
X200000Y81700D03*
X200000Y78400D03*
X210000Y85000D03*
X210000Y75000D03*
X210000Y81700D03*
X210000Y78400D03*
X200000Y150000D03*
X200000Y140000D03*
X200000Y146700D03*
X200000Y143400D03*
X210000Y150000D03*
X210000Y140000D03*
X210000Y146700D03*
X210000Y143400D03*
X200000Y180000D03*
X200000Y170000D03*
X200000Y176700D03*
X200000Y173400D03*
X210000Y180000D03*
X210000Y170000D03*
X210000Y176700D03*
X210000Y173400D03*
X200000Y165000D03*
X200000Y155000D03*
X200000Y161700D03*
X200000Y158400D03*
X210000Y165000D03*
X210000Y155000D03*
X210000Y161700D03*
X210000Y158400D03*
X60000Y280000D03*
X50000Y280000D03*
X56700Y280000D03*
X53400Y280000D03*
X90000Y280000D03*
X80000Y280000D03*
X86700Y280000D03*
X83400Y280000D03*
X75000Y280000D03*
X65000Y280000D03*
X71700Y280000D03*
X68400Y280000D03*
X130000Y280000D03*
X120000Y280000D03*
X126700Y280000D03*
X123400Y280000D03*
X160000Y280000D03*
X150000Y280000D03*
X156700Y280000D03*
X153400Y280000D03*
X145000Y280000D03*
X135000Y280000D03*
X141700Y280000D03*
X138400Y280000D03*
D12*
X137000Y221500D03*
X137000Y238500D03*
D13*
X26250Y160400D03*
X26250Y149400D03*
X26250Y138400D03*
X26250Y127400D03*
X26250Y116400D03*
X26250Y105400D03*
X26250Y94400D03*
X26250Y83400D03*
D14*
X32550Y203850D03*
D15*
X31050Y59950D03*
D16*
X52550Y64000D03*
D17*
X142550Y64000D03*
D15*
X145850Y202850D03*
D18*
X153800Y159800D03*
X153800Y82000D03*
D12*
X160000Y221500D03*
X160000Y238500D03*
D19*
X74315Y227808D03*
X74315Y235936D03*
X74315Y244064D03*
X74315Y252192D03*
X113685Y252192D03*
X113685Y244064D03*
X113685Y235936D03*
X113685Y227808D03*
D20*
X94000Y240000D03*
D12*
X137000Y501500D03*
X137000Y518500D03*
D13*
X26250Y440400D03*
X26250Y429400D03*
X26250Y418400D03*
X26250Y407400D03*
X26250Y396400D03*
X26250Y385400D03*
X26250Y374400D03*
X26250Y363400D03*
D14*
X32550Y483850D03*
D15*
X31050Y339950D03*
D16*
X52550Y344000D03*
D17*
X142550Y344000D03*
D15*
X145850Y482850D03*
D18*
X153800Y439800D03*
X153800Y362000D03*
D12*
X160000Y501500D03*
X160000Y518500D03*
D19*
X74315Y507808D03*
X74315Y515936D03*
X74315Y524064D03*
X74315Y532192D03*
X113685Y532192D03*
X113685Y524064D03*
X113685Y515936D03*
X113685Y507808D03*
D20*
X94000Y520000D03*
D12*
X347000Y501500D03*
X347000Y518500D03*
D13*
X236250Y440400D03*
X236250Y429400D03*
X236250Y418400D03*
X236250Y407400D03*
X236250Y396400D03*
X236250Y385400D03*
X236250Y374400D03*
X236250Y363400D03*
D14*
X242550Y483850D03*
D15*
X241050Y339950D03*
D16*
X262550Y344000D03*
D17*
X352550Y344000D03*
D15*
X355850Y482850D03*
D18*
X363800Y439800D03*
X363800Y362000D03*
D12*
X370000Y501500D03*
X370000Y518500D03*
D19*
X284315Y507808D03*
X284315Y515936D03*
X284315Y524064D03*
X284315Y532192D03*
X323685Y532192D03*
X323685Y524064D03*
X323685Y515936D03*
X323685Y507808D03*
D20*
X304000Y520000D03*
D12*
X347000Y221500D03*
X347000Y238500D03*
D13*
X236250Y160400D03*
X236250Y149400D03*
X236250Y138400D03*
X236250Y127400D03*
X236250Y116400D03*
X236250Y105400D03*
X236250Y94400D03*
X236250Y83400D03*
D14*
X242550Y203850D03*
D15*
X241050Y59950D03*
D16*
X262550Y64000D03*
D17*
X352550Y64000D03*
D15*
X355850Y202850D03*
D18*
X363800Y159800D03*
X363800Y82000D03*
D12*
X370000Y221500D03*
X370000Y238500D03*
D19*
X284315Y227808D03*
X284315Y235936D03*
X284315Y244064D03*
X284315Y252192D03*
X323685Y252192D03*
X323685Y244064D03*
X323685Y235936D03*
X323685Y227808D03*
D20*
X304000Y240000D03*
M02*
