G04 EAGLE Gerber RS-274X export*
G75*
%MOMM*%
%FSLAX34Y34*%
%LPD*%
%INSoldermask Top*%
%IPPOS*%
%AMOC8*
5,1,8,0,0,1.08239X$1,22.5*%
G01*
%ADD10C,3.227000*%
%ADD11C,0.327000*%
%ADD12R,1.127000X1.227000*%
%ADD13R,0.777000X0.357000*%
%ADD14R,0.657000X0.577000*%


D10*
X30000Y240000D03*
X170000Y30000D03*
X30000Y520000D03*
X170000Y310000D03*
X240000Y520000D03*
X380000Y310000D03*
X240000Y240000D03*
X380000Y30000D03*
D11*
X60000Y270000D03*
X50000Y270000D03*
X56700Y270000D03*
X53400Y270000D03*
X90000Y270000D03*
X80000Y270000D03*
X86700Y270000D03*
X83400Y270000D03*
X75000Y270000D03*
X65000Y270000D03*
X71700Y270000D03*
X68400Y270000D03*
X130000Y270000D03*
X120000Y270000D03*
X126700Y270000D03*
X123400Y270000D03*
X160000Y270000D03*
X150000Y270000D03*
X156700Y270000D03*
X153400Y270000D03*
X145000Y270000D03*
X135000Y270000D03*
X141700Y270000D03*
X138400Y270000D03*
X260000Y280000D03*
X250000Y280000D03*
X256700Y280000D03*
X253400Y280000D03*
X260000Y270000D03*
X250000Y270000D03*
X256700Y270000D03*
X253400Y270000D03*
X290000Y280000D03*
X280000Y280000D03*
X286700Y280000D03*
X283400Y280000D03*
X290000Y270000D03*
X280000Y270000D03*
X286700Y270000D03*
X283400Y270000D03*
X275000Y280000D03*
X265000Y280000D03*
X271700Y280000D03*
X268400Y280000D03*
X275000Y270000D03*
X265000Y270000D03*
X271700Y270000D03*
X268400Y270000D03*
X340000Y280000D03*
X330000Y280000D03*
X336700Y280000D03*
X333400Y280000D03*
X340000Y270000D03*
X330000Y270000D03*
X336700Y270000D03*
X333400Y270000D03*
X370000Y280000D03*
X360000Y280000D03*
X366700Y280000D03*
X363400Y280000D03*
X370000Y270000D03*
X360000Y270000D03*
X366700Y270000D03*
X363400Y270000D03*
X355000Y280000D03*
X345000Y280000D03*
X351700Y280000D03*
X348400Y280000D03*
X355000Y270000D03*
X345000Y270000D03*
X351700Y270000D03*
X348400Y270000D03*
X210000Y350000D03*
X210000Y340000D03*
X210000Y346700D03*
X210000Y343400D03*
X210000Y380000D03*
X210000Y370000D03*
X210000Y376700D03*
X210000Y373400D03*
X210000Y365000D03*
X210000Y355000D03*
X210000Y361700D03*
X210000Y358400D03*
X210000Y430000D03*
X210000Y420000D03*
X210000Y426700D03*
X210000Y423400D03*
X210000Y460000D03*
X210000Y450000D03*
X210000Y456700D03*
X210000Y453400D03*
X210000Y445000D03*
X210000Y435000D03*
X210000Y441700D03*
X210000Y438400D03*
X200000Y70000D03*
X200000Y60000D03*
X200000Y66700D03*
X200000Y63400D03*
X210000Y70000D03*
X210000Y60000D03*
X210000Y66700D03*
X210000Y63400D03*
X200000Y100000D03*
X200000Y90000D03*
X200000Y96700D03*
X200000Y93400D03*
X210000Y100000D03*
X210000Y90000D03*
X210000Y96700D03*
X210000Y93400D03*
X200000Y85000D03*
X200000Y75000D03*
X200000Y81700D03*
X200000Y78400D03*
X210000Y85000D03*
X210000Y75000D03*
X210000Y81700D03*
X210000Y78400D03*
X200000Y150000D03*
X200000Y140000D03*
X200000Y146700D03*
X200000Y143400D03*
X210000Y150000D03*
X210000Y140000D03*
X210000Y146700D03*
X210000Y143400D03*
X200000Y180000D03*
X200000Y170000D03*
X200000Y176700D03*
X200000Y173400D03*
X210000Y180000D03*
X210000Y170000D03*
X210000Y176700D03*
X210000Y173400D03*
X200000Y165000D03*
X200000Y155000D03*
X200000Y161700D03*
X200000Y158400D03*
X210000Y165000D03*
X210000Y155000D03*
X210000Y161700D03*
X210000Y158400D03*
X60000Y280000D03*
X50000Y280000D03*
X56700Y280000D03*
X53400Y280000D03*
X90000Y280000D03*
X80000Y280000D03*
X86700Y280000D03*
X83400Y280000D03*
X75000Y280000D03*
X65000Y280000D03*
X71700Y280000D03*
X68400Y280000D03*
X130000Y280000D03*
X120000Y280000D03*
X126700Y280000D03*
X123400Y280000D03*
X160000Y280000D03*
X150000Y280000D03*
X156700Y280000D03*
X153400Y280000D03*
X145000Y280000D03*
X135000Y280000D03*
X141700Y280000D03*
X138400Y280000D03*
D12*
X26400Y110000D03*
X26400Y127000D03*
D13*
X161250Y90000D03*
X161250Y86000D03*
X161250Y82000D03*
X161250Y78000D03*
X161250Y74000D03*
X161250Y70000D03*
X178750Y90000D03*
X178750Y86000D03*
X178750Y82000D03*
X178750Y78000D03*
X178750Y74000D03*
X178750Y70000D03*
D14*
X164350Y62000D03*
X175650Y62000D03*
X164350Y98000D03*
X175650Y98000D03*
D12*
X26400Y390000D03*
X26400Y407000D03*
D13*
X161250Y370000D03*
X161250Y366000D03*
X161250Y362000D03*
X161250Y358000D03*
X161250Y354000D03*
X161250Y350000D03*
X178750Y370000D03*
X178750Y366000D03*
X178750Y362000D03*
X178750Y358000D03*
X178750Y354000D03*
X178750Y350000D03*
D14*
X164350Y342000D03*
X175650Y342000D03*
X164350Y378000D03*
X175650Y378000D03*
D12*
X236400Y390000D03*
X236400Y407000D03*
D13*
X371250Y370000D03*
X371250Y366000D03*
X371250Y362000D03*
X371250Y358000D03*
X371250Y354000D03*
X371250Y350000D03*
X388750Y370000D03*
X388750Y366000D03*
X388750Y362000D03*
X388750Y358000D03*
X388750Y354000D03*
X388750Y350000D03*
D14*
X374350Y342000D03*
X385650Y342000D03*
X374350Y378000D03*
X385650Y378000D03*
D12*
X236400Y110000D03*
X236400Y127000D03*
D13*
X371250Y90000D03*
X371250Y86000D03*
X371250Y82000D03*
X371250Y78000D03*
X371250Y74000D03*
X371250Y70000D03*
X388750Y90000D03*
X388750Y86000D03*
X388750Y82000D03*
X388750Y78000D03*
X388750Y74000D03*
X388750Y70000D03*
D14*
X374350Y62000D03*
X385650Y62000D03*
X374350Y98000D03*
X385650Y98000D03*
M02*
