G04 EAGLE Gerber RS-274X export*
G75*
%MOMM*%
%FSLAX34Y34*%
%LPD*%
%INSolderpaste Bottom*%
%IPPOS*%
%AMOC8*
5,1,8,0,0,1.08239X$1,22.5*%
G01*
%ADD10R,1.000000X1.100000*%
%ADD11R,1.240000X0.800000*%
%ADD12R,2.500000X0.950000*%
%ADD13R,2.200000X1.150000*%
%ADD14R,1.250000X1.160000*%
%ADD15R,1.200000X1.160000*%
%ADD16R,1.150000X1.500000*%
%ADD17R,0.863600X0.254000*%

G36*
X314940Y520875D02*
X314940Y520875D01*
X314942Y520874D01*
X314985Y520894D01*
X315029Y520912D01*
X315029Y520914D01*
X315031Y520915D01*
X315064Y521000D01*
X315064Y534494D01*
X315063Y534496D01*
X315064Y534498D01*
X315044Y534541D01*
X315026Y534585D01*
X315024Y534585D01*
X315023Y534587D01*
X314938Y534620D01*
X293062Y534620D01*
X293060Y534619D01*
X293058Y534620D01*
X293015Y534600D01*
X292971Y534582D01*
X292971Y534580D01*
X292969Y534579D01*
X292936Y534494D01*
X292936Y521000D01*
X292937Y520998D01*
X292936Y520996D01*
X292956Y520953D01*
X292974Y520909D01*
X292976Y520909D01*
X292977Y520907D01*
X293062Y520874D01*
X314938Y520874D01*
X314940Y520875D01*
G37*
G36*
X104940Y520875D02*
X104940Y520875D01*
X104942Y520874D01*
X104985Y520894D01*
X105029Y520912D01*
X105029Y520914D01*
X105031Y520915D01*
X105064Y521000D01*
X105064Y534494D01*
X105063Y534496D01*
X105064Y534498D01*
X105044Y534541D01*
X105026Y534585D01*
X105024Y534585D01*
X105023Y534587D01*
X104938Y534620D01*
X83062Y534620D01*
X83060Y534619D01*
X83058Y534620D01*
X83015Y534600D01*
X82971Y534582D01*
X82971Y534580D01*
X82969Y534579D01*
X82936Y534494D01*
X82936Y521000D01*
X82937Y520998D01*
X82936Y520996D01*
X82956Y520953D01*
X82974Y520909D01*
X82976Y520909D01*
X82977Y520907D01*
X83062Y520874D01*
X104938Y520874D01*
X104940Y520875D01*
G37*
G36*
X314940Y505381D02*
X314940Y505381D01*
X314942Y505380D01*
X314985Y505400D01*
X315029Y505418D01*
X315029Y505420D01*
X315031Y505421D01*
X315064Y505506D01*
X315064Y519000D01*
X315063Y519002D01*
X315064Y519004D01*
X315044Y519047D01*
X315026Y519091D01*
X315024Y519091D01*
X315023Y519093D01*
X314938Y519126D01*
X293062Y519126D01*
X293060Y519125D01*
X293058Y519126D01*
X293015Y519106D01*
X292971Y519088D01*
X292971Y519086D01*
X292969Y519085D01*
X292936Y519000D01*
X292936Y505506D01*
X292937Y505504D01*
X292936Y505502D01*
X292956Y505459D01*
X292974Y505415D01*
X292976Y505415D01*
X292977Y505413D01*
X293062Y505380D01*
X314938Y505380D01*
X314940Y505381D01*
G37*
G36*
X104940Y505381D02*
X104940Y505381D01*
X104942Y505380D01*
X104985Y505400D01*
X105029Y505418D01*
X105029Y505420D01*
X105031Y505421D01*
X105064Y505506D01*
X105064Y519000D01*
X105063Y519002D01*
X105064Y519004D01*
X105044Y519047D01*
X105026Y519091D01*
X105024Y519091D01*
X105023Y519093D01*
X104938Y519126D01*
X83062Y519126D01*
X83060Y519125D01*
X83058Y519126D01*
X83015Y519106D01*
X82971Y519088D01*
X82971Y519086D01*
X82969Y519085D01*
X82936Y519000D01*
X82936Y505506D01*
X82937Y505504D01*
X82936Y505502D01*
X82956Y505459D01*
X82974Y505415D01*
X82976Y505415D01*
X82977Y505413D01*
X83062Y505380D01*
X104938Y505380D01*
X104940Y505381D01*
G37*
G36*
X314940Y240875D02*
X314940Y240875D01*
X314942Y240874D01*
X314985Y240894D01*
X315029Y240912D01*
X315029Y240914D01*
X315031Y240915D01*
X315064Y241000D01*
X315064Y254494D01*
X315063Y254496D01*
X315064Y254498D01*
X315044Y254541D01*
X315026Y254585D01*
X315024Y254585D01*
X315023Y254587D01*
X314938Y254620D01*
X293062Y254620D01*
X293060Y254619D01*
X293058Y254620D01*
X293015Y254600D01*
X292971Y254582D01*
X292971Y254580D01*
X292969Y254579D01*
X292936Y254494D01*
X292936Y241000D01*
X292937Y240998D01*
X292936Y240996D01*
X292956Y240953D01*
X292974Y240909D01*
X292976Y240909D01*
X292977Y240907D01*
X293062Y240874D01*
X314938Y240874D01*
X314940Y240875D01*
G37*
G36*
X104940Y240875D02*
X104940Y240875D01*
X104942Y240874D01*
X104985Y240894D01*
X105029Y240912D01*
X105029Y240914D01*
X105031Y240915D01*
X105064Y241000D01*
X105064Y254494D01*
X105063Y254496D01*
X105064Y254498D01*
X105044Y254541D01*
X105026Y254585D01*
X105024Y254585D01*
X105023Y254587D01*
X104938Y254620D01*
X83062Y254620D01*
X83060Y254619D01*
X83058Y254620D01*
X83015Y254600D01*
X82971Y254582D01*
X82971Y254580D01*
X82969Y254579D01*
X82936Y254494D01*
X82936Y241000D01*
X82937Y240998D01*
X82936Y240996D01*
X82956Y240953D01*
X82974Y240909D01*
X82976Y240909D01*
X82977Y240907D01*
X83062Y240874D01*
X104938Y240874D01*
X104940Y240875D01*
G37*
G36*
X314940Y225381D02*
X314940Y225381D01*
X314942Y225380D01*
X314985Y225400D01*
X315029Y225418D01*
X315029Y225420D01*
X315031Y225421D01*
X315064Y225506D01*
X315064Y239000D01*
X315063Y239002D01*
X315064Y239004D01*
X315044Y239047D01*
X315026Y239091D01*
X315024Y239091D01*
X315023Y239093D01*
X314938Y239126D01*
X293062Y239126D01*
X293060Y239125D01*
X293058Y239126D01*
X293015Y239106D01*
X292971Y239088D01*
X292971Y239086D01*
X292969Y239085D01*
X292936Y239000D01*
X292936Y225506D01*
X292937Y225504D01*
X292936Y225502D01*
X292956Y225459D01*
X292974Y225415D01*
X292976Y225415D01*
X292977Y225413D01*
X293062Y225380D01*
X314938Y225380D01*
X314940Y225381D01*
G37*
G36*
X104940Y225381D02*
X104940Y225381D01*
X104942Y225380D01*
X104985Y225400D01*
X105029Y225418D01*
X105029Y225420D01*
X105031Y225421D01*
X105064Y225506D01*
X105064Y239000D01*
X105063Y239002D01*
X105064Y239004D01*
X105044Y239047D01*
X105026Y239091D01*
X105024Y239091D01*
X105023Y239093D01*
X104938Y239126D01*
X83062Y239126D01*
X83060Y239125D01*
X83058Y239126D01*
X83015Y239106D01*
X82971Y239088D01*
X82971Y239086D01*
X82969Y239085D01*
X82936Y239000D01*
X82936Y225506D01*
X82937Y225504D01*
X82936Y225502D01*
X82956Y225459D01*
X82974Y225415D01*
X82976Y225415D01*
X82977Y225413D01*
X83062Y225380D01*
X104938Y225380D01*
X104940Y225381D01*
G37*
D10*
X137000Y221500D03*
X137000Y238500D03*
D11*
X26250Y160400D03*
X26250Y149400D03*
X26250Y138400D03*
X26250Y127400D03*
X26250Y116400D03*
X26250Y105400D03*
X26250Y94400D03*
X26250Y83400D03*
D12*
X32550Y203850D03*
D13*
X31050Y59950D03*
D14*
X52550Y64000D03*
D15*
X142550Y64000D03*
D13*
X145850Y202850D03*
D16*
X153800Y159800D03*
X153800Y82000D03*
D10*
X160000Y221500D03*
X160000Y238500D03*
D17*
X74315Y227808D03*
X74315Y235936D03*
X74315Y244064D03*
X74315Y252192D03*
X113685Y252192D03*
X113685Y244064D03*
X113685Y235936D03*
X113685Y227808D03*
D10*
X137000Y501500D03*
X137000Y518500D03*
D11*
X26250Y440400D03*
X26250Y429400D03*
X26250Y418400D03*
X26250Y407400D03*
X26250Y396400D03*
X26250Y385400D03*
X26250Y374400D03*
X26250Y363400D03*
D12*
X32550Y483850D03*
D13*
X31050Y339950D03*
D14*
X52550Y344000D03*
D15*
X142550Y344000D03*
D13*
X145850Y482850D03*
D16*
X153800Y439800D03*
X153800Y362000D03*
D10*
X160000Y501500D03*
X160000Y518500D03*
D17*
X74315Y507808D03*
X74315Y515936D03*
X74315Y524064D03*
X74315Y532192D03*
X113685Y532192D03*
X113685Y524064D03*
X113685Y515936D03*
X113685Y507808D03*
D10*
X347000Y501500D03*
X347000Y518500D03*
D11*
X236250Y440400D03*
X236250Y429400D03*
X236250Y418400D03*
X236250Y407400D03*
X236250Y396400D03*
X236250Y385400D03*
X236250Y374400D03*
X236250Y363400D03*
D12*
X242550Y483850D03*
D13*
X241050Y339950D03*
D14*
X262550Y344000D03*
D15*
X352550Y344000D03*
D13*
X355850Y482850D03*
D16*
X363800Y439800D03*
X363800Y362000D03*
D10*
X370000Y501500D03*
X370000Y518500D03*
D17*
X284315Y507808D03*
X284315Y515936D03*
X284315Y524064D03*
X284315Y532192D03*
X323685Y532192D03*
X323685Y524064D03*
X323685Y515936D03*
X323685Y507808D03*
D10*
X347000Y221500D03*
X347000Y238500D03*
D11*
X236250Y160400D03*
X236250Y149400D03*
X236250Y138400D03*
X236250Y127400D03*
X236250Y116400D03*
X236250Y105400D03*
X236250Y94400D03*
X236250Y83400D03*
D12*
X242550Y203850D03*
D13*
X241050Y59950D03*
D14*
X262550Y64000D03*
D15*
X352550Y64000D03*
D13*
X355850Y202850D03*
D16*
X363800Y159800D03*
X363800Y82000D03*
D10*
X370000Y221500D03*
X370000Y238500D03*
D17*
X284315Y227808D03*
X284315Y235936D03*
X284315Y244064D03*
X284315Y252192D03*
X323685Y252192D03*
X323685Y244064D03*
X323685Y235936D03*
X323685Y227808D03*
M02*
